<?xml version="1.0" encoding="utf-8" standalone="no"?>
<!DOCTYPE svg PUBLIC "-//W3C//DTD SVG 1.1//EN"
  "http://www.w3.org/Graphics/SVG/1.1/DTD/svg11.dtd">
<svg xmlns:xlink="http://www.w3.org/1999/xlink" width="1440pt" height="720pt" viewBox="0 0 1440 720" xmlns="http://www.w3.org/2000/svg" version="1.1">
 <metadata>
  <rdf:RDF xmlns:dc="http://purl.org/dc/elements/1.1/" xmlns:cc="http://creativecommons.org/ns#" xmlns:rdf="http://www.w3.org/1999/02/22-rdf-syntax-ns#">
   <cc:Work>
    <dc:type rdf:resource="http://purl.org/dc/dcmitype/StillImage"/>
    <dc:date>2024-05-10T16:31:44.276638</dc:date>
    <dc:format>image/svg+xml</dc:format>
    <dc:creator>
     <cc:Agent>
      <dc:title>Matplotlib v3.8.1, https://matplotlib.org/</dc:title>
     </cc:Agent>
    </dc:creator>
   </cc:Work>
  </rdf:RDF>
 </metadata>
 <defs>
  <style type="text/css">*{stroke-linejoin: round; stroke-linecap: butt}</style>
 </defs>
 <g id="figure_1">
  <g id="patch_1">
   <path d="M 0 720 
L 1440 720 
L 1440 0 
L 0 0 
z
" style="fill: #ffffff"/>
  </g>
  <g id="axes_1">
   <g id="patch_2">
    <path d="M 55.19 673.72 
L 1429.2 673.72 
L 1429.2 32.64 
L 55.19 32.64 
z
" style="fill: #ffffff"/>
   </g>
   <g id="PathCollection_1">
    <defs>
     <path id="md42bc7daf9" d="M 0 3 
C 0.795609 3 1.55874 2.683901 2.12132 2.12132 
C 2.683901 1.55874 3 0.795609 3 0 
C 3 -0.795609 2.683901 -1.55874 2.12132 -2.12132 
C 1.55874 -2.683901 0.795609 -3 0 -3 
C -0.795609 -3 -1.55874 -2.683901 -2.12132 -2.12132 
C -2.683901 -1.55874 -3 -0.795609 -3 0 
C -3 0.795609 -2.683901 1.55874 -2.12132 2.12132 
C -1.55874 2.683901 -0.795609 3 0 3 
z
" style="stroke: #ff0000"/>
    </defs>
    <g clip-path="url(#p9925e6157e)">
     <use xlink:href="#md42bc7daf9" x="1321.231398" y="571.783809" style="fill: #ff0000; stroke: #ff0000"/>
    </g>
   </g>
   <g id="PathCollection_2">
    <g clip-path="url(#p9925e6157e)">
     <use xlink:href="#md42bc7daf9" x="208.565789" y="576.416307" style="fill: #ff0000; stroke: #ff0000"/>
    </g>
   </g>
   <g id="PathCollection_3">
    <g clip-path="url(#p9925e6157e)">
     <use xlink:href="#md42bc7daf9" x="1303.513602" y="160.856" style="fill: #ff0000; stroke: #ff0000"/>
    </g>
   </g>
   <g id="PathCollection_4">
    <g clip-path="url(#p9925e6157e)">
     <use xlink:href="#md42bc7daf9" x="214.072775" y="563.029403" style="fill: #ff0000; stroke: #ff0000"/>
    </g>
   </g>
   <g id="matplotlib.axis_1">
    <g id="xtick_1">
     <g id="line2d_1">
      <defs>
       <path id="m783dde050a" d="M 0 0 
L 0 3.5 
" style="stroke: #000000; stroke-width: 0.8"/>
      </defs>
      <g>
       <use xlink:href="#m783dde050a" x="169.690833" y="673.72" style="stroke: #000000; stroke-width: 0.8"/>
      </g>
     </g>
     <g id="text_1">
      <!-- 1100 -->
      <g transform="translate(154.420833 689.838125) scale(0.12 -0.12)">
       <defs>
        <path id="DejaVuSans-31" d="M 794 531 
L 1825 531 
L 1825 4091 
L 703 3866 
L 703 4441 
L 1819 4666 
L 2450 4666 
L 2450 531 
L 3481 531 
L 3481 0 
L 794 0 
L 794 531 
z
" transform="scale(0.015625)"/>
        <path id="DejaVuSans-30" d="M 2034 4250 
Q 1547 4250 1301 3770 
Q 1056 3291 1056 2328 
Q 1056 1369 1301 889 
Q 1547 409 2034 409 
Q 2525 409 2770 889 
Q 3016 1369 3016 2328 
Q 3016 3291 2770 3770 
Q 2525 4250 2034 4250 
z
M 2034 4750 
Q 2819 4750 3233 4129 
Q 3647 3509 3647 2328 
Q 3647 1150 3233 529 
Q 2819 -91 2034 -91 
Q 1250 -91 836 529 
Q 422 1150 422 2328 
Q 422 3509 836 4129 
Q 1250 4750 2034 4750 
z
" transform="scale(0.015625)"/>
       </defs>
       <use xlink:href="#DejaVuSans-31"/>
       <use xlink:href="#DejaVuSans-31" x="63.623047"/>
       <use xlink:href="#DejaVuSans-30" x="127.246094"/>
       <use xlink:href="#DejaVuSans-30" x="190.869141"/>
      </g>
     </g>
    </g>
    <g id="xtick_2">
     <g id="line2d_2">
      <g>
       <use xlink:href="#m783dde050a" x="398.6925" y="673.72" style="stroke: #000000; stroke-width: 0.8"/>
      </g>
     </g>
     <g id="text_2">
      <!-- 1200 -->
      <g transform="translate(383.4225 689.838125) scale(0.12 -0.12)">
       <defs>
        <path id="DejaVuSans-32" d="M 1228 531 
L 3431 531 
L 3431 0 
L 469 0 
L 469 531 
Q 828 903 1448 1529 
Q 2069 2156 2228 2338 
Q 2531 2678 2651 2914 
Q 2772 3150 2772 3378 
Q 2772 3750 2511 3984 
Q 2250 4219 1831 4219 
Q 1534 4219 1204 4116 
Q 875 4013 500 3803 
L 500 4441 
Q 881 4594 1212 4672 
Q 1544 4750 1819 4750 
Q 2544 4750 2975 4387 
Q 3406 4025 3406 3419 
Q 3406 3131 3298 2873 
Q 3191 2616 2906 2266 
Q 2828 2175 2409 1742 
Q 1991 1309 1228 531 
z
" transform="scale(0.015625)"/>
       </defs>
       <use xlink:href="#DejaVuSans-31"/>
       <use xlink:href="#DejaVuSans-32" x="63.623047"/>
       <use xlink:href="#DejaVuSans-30" x="127.246094"/>
       <use xlink:href="#DejaVuSans-30" x="190.869141"/>
      </g>
     </g>
    </g>
    <g id="xtick_3">
     <g id="line2d_3">
      <g>
       <use xlink:href="#m783dde050a" x="627.694167" y="673.72" style="stroke: #000000; stroke-width: 0.8"/>
      </g>
     </g>
     <g id="text_3">
      <!-- 1300 -->
      <g transform="translate(612.424167 689.838125) scale(0.12 -0.12)">
       <defs>
        <path id="DejaVuSans-33" d="M 2597 2516 
Q 3050 2419 3304 2112 
Q 3559 1806 3559 1356 
Q 3559 666 3084 287 
Q 2609 -91 1734 -91 
Q 1441 -91 1130 -33 
Q 819 25 488 141 
L 488 750 
Q 750 597 1062 519 
Q 1375 441 1716 441 
Q 2309 441 2620 675 
Q 2931 909 2931 1356 
Q 2931 1769 2642 2001 
Q 2353 2234 1838 2234 
L 1294 2234 
L 1294 2753 
L 1863 2753 
Q 2328 2753 2575 2939 
Q 2822 3125 2822 3475 
Q 2822 3834 2567 4026 
Q 2313 4219 1838 4219 
Q 1578 4219 1281 4162 
Q 984 4106 628 3988 
L 628 4550 
Q 988 4650 1302 4700 
Q 1616 4750 1894 4750 
Q 2613 4750 3031 4423 
Q 3450 4097 3450 3541 
Q 3450 3153 3228 2886 
Q 3006 2619 2597 2516 
z
" transform="scale(0.015625)"/>
       </defs>
       <use xlink:href="#DejaVuSans-31"/>
       <use xlink:href="#DejaVuSans-33" x="63.623047"/>
       <use xlink:href="#DejaVuSans-30" x="127.246094"/>
       <use xlink:href="#DejaVuSans-30" x="190.869141"/>
      </g>
     </g>
    </g>
    <g id="xtick_4">
     <g id="line2d_4">
      <g>
       <use xlink:href="#m783dde050a" x="856.695833" y="673.72" style="stroke: #000000; stroke-width: 0.8"/>
      </g>
     </g>
     <g id="text_4">
      <!-- 1400 -->
      <g transform="translate(841.425833 689.838125) scale(0.12 -0.12)">
       <defs>
        <path id="DejaVuSans-34" d="M 2419 4116 
L 825 1625 
L 2419 1625 
L 2419 4116 
z
M 2253 4666 
L 3047 4666 
L 3047 1625 
L 3713 1625 
L 3713 1100 
L 3047 1100 
L 3047 0 
L 2419 0 
L 2419 1100 
L 313 1100 
L 313 1709 
L 2253 4666 
z
" transform="scale(0.015625)"/>
       </defs>
       <use xlink:href="#DejaVuSans-31"/>
       <use xlink:href="#DejaVuSans-34" x="63.623047"/>
       <use xlink:href="#DejaVuSans-30" x="127.246094"/>
       <use xlink:href="#DejaVuSans-30" x="190.869141"/>
      </g>
     </g>
    </g>
    <g id="xtick_5">
     <g id="line2d_5">
      <g>
       <use xlink:href="#m783dde050a" x="1085.6975" y="673.72" style="stroke: #000000; stroke-width: 0.8"/>
      </g>
     </g>
     <g id="text_5">
      <!-- 1500 -->
      <g transform="translate(1070.4275 689.838125) scale(0.12 -0.12)">
       <defs>
        <path id="DejaVuSans-35" d="M 691 4666 
L 3169 4666 
L 3169 4134 
L 1269 4134 
L 1269 2991 
Q 1406 3038 1543 3061 
Q 1681 3084 1819 3084 
Q 2600 3084 3056 2656 
Q 3513 2228 3513 1497 
Q 3513 744 3044 326 
Q 2575 -91 1722 -91 
Q 1428 -91 1123 -41 
Q 819 9 494 109 
L 494 744 
Q 775 591 1075 516 
Q 1375 441 1709 441 
Q 2250 441 2565 725 
Q 2881 1009 2881 1497 
Q 2881 1984 2565 2268 
Q 2250 2553 1709 2553 
Q 1456 2553 1204 2497 
Q 953 2441 691 2322 
L 691 4666 
z
" transform="scale(0.015625)"/>
       </defs>
       <use xlink:href="#DejaVuSans-31"/>
       <use xlink:href="#DejaVuSans-35" x="63.623047"/>
       <use xlink:href="#DejaVuSans-30" x="127.246094"/>
       <use xlink:href="#DejaVuSans-30" x="190.869141"/>
      </g>
     </g>
    </g>
    <g id="xtick_6">
     <g id="line2d_6">
      <g>
       <use xlink:href="#m783dde050a" x="1314.699167" y="673.72" style="stroke: #000000; stroke-width: 0.8"/>
      </g>
     </g>
     <g id="text_6">
      <!-- 1600 -->
      <g transform="translate(1299.429167 689.838125) scale(0.12 -0.12)">
       <defs>
        <path id="DejaVuSans-36" d="M 2113 2584 
Q 1688 2584 1439 2293 
Q 1191 2003 1191 1497 
Q 1191 994 1439 701 
Q 1688 409 2113 409 
Q 2538 409 2786 701 
Q 3034 994 3034 1497 
Q 3034 2003 2786 2293 
Q 2538 2584 2113 2584 
z
M 3366 4563 
L 3366 3988 
Q 3128 4100 2886 4159 
Q 2644 4219 2406 4219 
Q 1781 4219 1451 3797 
Q 1122 3375 1075 2522 
Q 1259 2794 1537 2939 
Q 1816 3084 2150 3084 
Q 2853 3084 3261 2657 
Q 3669 2231 3669 1497 
Q 3669 778 3244 343 
Q 2819 -91 2113 -91 
Q 1303 -91 875 529 
Q 447 1150 447 2328 
Q 447 3434 972 4092 
Q 1497 4750 2381 4750 
Q 2619 4750 2861 4703 
Q 3103 4656 3366 4563 
z
" transform="scale(0.015625)"/>
       </defs>
       <use xlink:href="#DejaVuSans-31"/>
       <use xlink:href="#DejaVuSans-36" x="63.623047"/>
       <use xlink:href="#DejaVuSans-30" x="127.246094"/>
       <use xlink:href="#DejaVuSans-30" x="190.869141"/>
      </g>
     </g>
    </g>
    <g id="text_7">
     <!-- Entropy, s [J/kg.K] -->
     <g transform="translate(670.52375 708.49125) scale(0.16 -0.16)">
      <defs>
       <path id="DejaVuSans-45" d="M 628 4666 
L 3578 4666 
L 3578 4134 
L 1259 4134 
L 1259 2753 
L 3481 2753 
L 3481 2222 
L 1259 2222 
L 1259 531 
L 3634 531 
L 3634 0 
L 628 0 
L 628 4666 
z
" transform="scale(0.015625)"/>
       <path id="DejaVuSans-6e" d="M 3513 2113 
L 3513 0 
L 2938 0 
L 2938 2094 
Q 2938 2591 2744 2837 
Q 2550 3084 2163 3084 
Q 1697 3084 1428 2787 
Q 1159 2491 1159 1978 
L 1159 0 
L 581 0 
L 581 3500 
L 1159 3500 
L 1159 2956 
Q 1366 3272 1645 3428 
Q 1925 3584 2291 3584 
Q 2894 3584 3203 3211 
Q 3513 2838 3513 2113 
z
" transform="scale(0.015625)"/>
       <path id="DejaVuSans-74" d="M 1172 4494 
L 1172 3500 
L 2356 3500 
L 2356 3053 
L 1172 3053 
L 1172 1153 
Q 1172 725 1289 603 
Q 1406 481 1766 481 
L 2356 481 
L 2356 0 
L 1766 0 
Q 1100 0 847 248 
Q 594 497 594 1153 
L 594 3053 
L 172 3053 
L 172 3500 
L 594 3500 
L 594 4494 
L 1172 4494 
z
" transform="scale(0.015625)"/>
       <path id="DejaVuSans-72" d="M 2631 2963 
Q 2534 3019 2420 3045 
Q 2306 3072 2169 3072 
Q 1681 3072 1420 2755 
Q 1159 2438 1159 1844 
L 1159 0 
L 581 0 
L 581 3500 
L 1159 3500 
L 1159 2956 
Q 1341 3275 1631 3429 
Q 1922 3584 2338 3584 
Q 2397 3584 2469 3576 
Q 2541 3569 2628 3553 
L 2631 2963 
z
" transform="scale(0.015625)"/>
       <path id="DejaVuSans-6f" d="M 1959 3097 
Q 1497 3097 1228 2736 
Q 959 2375 959 1747 
Q 959 1119 1226 758 
Q 1494 397 1959 397 
Q 2419 397 2687 759 
Q 2956 1122 2956 1747 
Q 2956 2369 2687 2733 
Q 2419 3097 1959 3097 
z
M 1959 3584 
Q 2709 3584 3137 3096 
Q 3566 2609 3566 1747 
Q 3566 888 3137 398 
Q 2709 -91 1959 -91 
Q 1206 -91 779 398 
Q 353 888 353 1747 
Q 353 2609 779 3096 
Q 1206 3584 1959 3584 
z
" transform="scale(0.015625)"/>
       <path id="DejaVuSans-70" d="M 1159 525 
L 1159 -1331 
L 581 -1331 
L 581 3500 
L 1159 3500 
L 1159 2969 
Q 1341 3281 1617 3432 
Q 1894 3584 2278 3584 
Q 2916 3584 3314 3078 
Q 3713 2572 3713 1747 
Q 3713 922 3314 415 
Q 2916 -91 2278 -91 
Q 1894 -91 1617 61 
Q 1341 213 1159 525 
z
M 3116 1747 
Q 3116 2381 2855 2742 
Q 2594 3103 2138 3103 
Q 1681 3103 1420 2742 
Q 1159 2381 1159 1747 
Q 1159 1113 1420 752 
Q 1681 391 2138 391 
Q 2594 391 2855 752 
Q 3116 1113 3116 1747 
z
" transform="scale(0.015625)"/>
       <path id="DejaVuSans-79" d="M 2059 -325 
Q 1816 -950 1584 -1140 
Q 1353 -1331 966 -1331 
L 506 -1331 
L 506 -850 
L 844 -850 
Q 1081 -850 1212 -737 
Q 1344 -625 1503 -206 
L 1606 56 
L 191 3500 
L 800 3500 
L 1894 763 
L 2988 3500 
L 3597 3500 
L 2059 -325 
z
" transform="scale(0.015625)"/>
       <path id="DejaVuSans-2c" d="M 750 794 
L 1409 794 
L 1409 256 
L 897 -744 
L 494 -744 
L 750 256 
L 750 794 
z
" transform="scale(0.015625)"/>
       <path id="DejaVuSans-20" transform="scale(0.015625)"/>
       <path id="DejaVuSans-73" d="M 2834 3397 
L 2834 2853 
Q 2591 2978 2328 3040 
Q 2066 3103 1784 3103 
Q 1356 3103 1142 2972 
Q 928 2841 928 2578 
Q 928 2378 1081 2264 
Q 1234 2150 1697 2047 
L 1894 2003 
Q 2506 1872 2764 1633 
Q 3022 1394 3022 966 
Q 3022 478 2636 193 
Q 2250 -91 1575 -91 
Q 1294 -91 989 -36 
Q 684 19 347 128 
L 347 722 
Q 666 556 975 473 
Q 1284 391 1588 391 
Q 1994 391 2212 530 
Q 2431 669 2431 922 
Q 2431 1156 2273 1281 
Q 2116 1406 1581 1522 
L 1381 1569 
Q 847 1681 609 1914 
Q 372 2147 372 2553 
Q 372 3047 722 3315 
Q 1072 3584 1716 3584 
Q 2034 3584 2315 3537 
Q 2597 3491 2834 3397 
z
" transform="scale(0.015625)"/>
       <path id="DejaVuSans-5b" d="M 550 4863 
L 1875 4863 
L 1875 4416 
L 1125 4416 
L 1125 -397 
L 1875 -397 
L 1875 -844 
L 550 -844 
L 550 4863 
z
" transform="scale(0.015625)"/>
       <path id="DejaVuSans-4a" d="M 628 4666 
L 1259 4666 
L 1259 325 
Q 1259 -519 939 -900 
Q 619 -1281 -91 -1281 
L -331 -1281 
L -331 -750 
L -134 -750 
Q 284 -750 456 -515 
Q 628 -281 628 325 
L 628 4666 
z
" transform="scale(0.015625)"/>
       <path id="DejaVuSans-2f" d="M 1625 4666 
L 2156 4666 
L 531 -594 
L 0 -594 
L 1625 4666 
z
" transform="scale(0.015625)"/>
       <path id="DejaVuSans-6b" d="M 581 4863 
L 1159 4863 
L 1159 1991 
L 2875 3500 
L 3609 3500 
L 1753 1863 
L 3688 0 
L 2938 0 
L 1159 1709 
L 1159 0 
L 581 0 
L 581 4863 
z
" transform="scale(0.015625)"/>
       <path id="DejaVuSans-67" d="M 2906 1791 
Q 2906 2416 2648 2759 
Q 2391 3103 1925 3103 
Q 1463 3103 1205 2759 
Q 947 2416 947 1791 
Q 947 1169 1205 825 
Q 1463 481 1925 481 
Q 2391 481 2648 825 
Q 2906 1169 2906 1791 
z
M 3481 434 
Q 3481 -459 3084 -895 
Q 2688 -1331 1869 -1331 
Q 1566 -1331 1297 -1286 
Q 1028 -1241 775 -1147 
L 775 -588 
Q 1028 -725 1275 -790 
Q 1522 -856 1778 -856 
Q 2344 -856 2625 -561 
Q 2906 -266 2906 331 
L 2906 616 
Q 2728 306 2450 153 
Q 2172 0 1784 0 
Q 1141 0 747 490 
Q 353 981 353 1791 
Q 353 2603 747 3093 
Q 1141 3584 1784 3584 
Q 2172 3584 2450 3431 
Q 2728 3278 2906 2969 
L 2906 3500 
L 3481 3500 
L 3481 434 
z
" transform="scale(0.015625)"/>
       <path id="DejaVuSans-2e" d="M 684 794 
L 1344 794 
L 1344 0 
L 684 0 
L 684 794 
z
" transform="scale(0.015625)"/>
       <path id="DejaVuSans-4b" d="M 628 4666 
L 1259 4666 
L 1259 2694 
L 3353 4666 
L 4166 4666 
L 1850 2491 
L 4331 0 
L 3500 0 
L 1259 2247 
L 1259 0 
L 628 0 
L 628 4666 
z
" transform="scale(0.015625)"/>
       <path id="DejaVuSans-5d" d="M 1947 4863 
L 1947 -844 
L 622 -844 
L 622 -397 
L 1369 -397 
L 1369 4416 
L 622 4416 
L 622 4863 
L 1947 4863 
z
" transform="scale(0.015625)"/>
      </defs>
      <use xlink:href="#DejaVuSans-45"/>
      <use xlink:href="#DejaVuSans-6e" x="63.183594"/>
      <use xlink:href="#DejaVuSans-74" x="126.5625"/>
      <use xlink:href="#DejaVuSans-72" x="165.771484"/>
      <use xlink:href="#DejaVuSans-6f" x="204.634766"/>
      <use xlink:href="#DejaVuSans-70" x="265.816406"/>
      <use xlink:href="#DejaVuSans-79" x="329.292969"/>
      <use xlink:href="#DejaVuSans-2c" x="388.472656"/>
      <use xlink:href="#DejaVuSans-20" x="420.259766"/>
      <use xlink:href="#DejaVuSans-73" x="452.046875"/>
      <use xlink:href="#DejaVuSans-20" x="504.146484"/>
      <use xlink:href="#DejaVuSans-5b" x="535.933594"/>
      <use xlink:href="#DejaVuSans-4a" x="574.947266"/>
      <use xlink:href="#DejaVuSans-2f" x="604.439453"/>
      <use xlink:href="#DejaVuSans-6b" x="638.130859"/>
      <use xlink:href="#DejaVuSans-67" x="696.041016"/>
      <use xlink:href="#DejaVuSans-2e" x="759.517578"/>
      <use xlink:href="#DejaVuSans-4b" x="791.304688"/>
      <use xlink:href="#DejaVuSans-5d" x="856.880859"/>
     </g>
    </g>
   </g>
   <g id="matplotlib.axis_2">
    <g id="ytick_1">
     <g id="line2d_7">
      <defs>
       <path id="m6877227114" d="M 0 0 
L -3.5 0 
" style="stroke: #000000; stroke-width: 0.8"/>
      </defs>
      <g>
       <use xlink:href="#m6877227114" x="55.19" y="609.612" style="stroke: #000000; stroke-width: 0.8"/>
      </g>
     </g>
     <g id="text_8">
      <!-- 20 -->
      <g transform="translate(32.92 614.171062) scale(0.12 -0.12)">
       <use xlink:href="#DejaVuSans-32"/>
       <use xlink:href="#DejaVuSans-30" x="63.623047"/>
      </g>
     </g>
    </g>
    <g id="ytick_2">
     <g id="line2d_8">
      <g>
       <use xlink:href="#m6877227114" x="55.19" y="481.396" style="stroke: #000000; stroke-width: 0.8"/>
      </g>
     </g>
     <g id="text_9">
      <!-- 40 -->
      <g transform="translate(32.92 485.955062) scale(0.12 -0.12)">
       <use xlink:href="#DejaVuSans-34"/>
       <use xlink:href="#DejaVuSans-30" x="63.623047"/>
      </g>
     </g>
    </g>
    <g id="ytick_3">
     <g id="line2d_9">
      <g>
       <use xlink:href="#m6877227114" x="55.19" y="353.18" style="stroke: #000000; stroke-width: 0.8"/>
      </g>
     </g>
     <g id="text_10">
      <!-- 60 -->
      <g transform="translate(32.92 357.739062) scale(0.12 -0.12)">
       <use xlink:href="#DejaVuSans-36"/>
       <use xlink:href="#DejaVuSans-30" x="63.623047"/>
      </g>
     </g>
    </g>
    <g id="ytick_4">
     <g id="line2d_10">
      <g>
       <use xlink:href="#m6877227114" x="55.19" y="224.964" style="stroke: #000000; stroke-width: 0.8"/>
      </g>
     </g>
     <g id="text_11">
      <!-- 80 -->
      <g transform="translate(32.92 229.523062) scale(0.12 -0.12)">
       <defs>
        <path id="DejaVuSans-38" d="M 2034 2216 
Q 1584 2216 1326 1975 
Q 1069 1734 1069 1313 
Q 1069 891 1326 650 
Q 1584 409 2034 409 
Q 2484 409 2743 651 
Q 3003 894 3003 1313 
Q 3003 1734 2745 1975 
Q 2488 2216 2034 2216 
z
M 1403 2484 
Q 997 2584 770 2862 
Q 544 3141 544 3541 
Q 544 4100 942 4425 
Q 1341 4750 2034 4750 
Q 2731 4750 3128 4425 
Q 3525 4100 3525 3541 
Q 3525 3141 3298 2862 
Q 3072 2584 2669 2484 
Q 3125 2378 3379 2068 
Q 3634 1759 3634 1313 
Q 3634 634 3220 271 
Q 2806 -91 2034 -91 
Q 1263 -91 848 271 
Q 434 634 434 1313 
Q 434 1759 690 2068 
Q 947 2378 1403 2484 
z
M 1172 3481 
Q 1172 3119 1398 2916 
Q 1625 2713 2034 2713 
Q 2441 2713 2670 2916 
Q 2900 3119 2900 3481 
Q 2900 3844 2670 4047 
Q 2441 4250 2034 4250 
Q 1625 4250 1398 4047 
Q 1172 3844 1172 3481 
z
" transform="scale(0.015625)"/>
       </defs>
       <use xlink:href="#DejaVuSans-38"/>
       <use xlink:href="#DejaVuSans-30" x="63.623047"/>
      </g>
     </g>
    </g>
    <g id="ytick_5">
     <g id="line2d_11">
      <g>
       <use xlink:href="#m6877227114" x="55.19" y="96.748" style="stroke: #000000; stroke-width: 0.8"/>
      </g>
     </g>
     <g id="text_12">
      <!-- 100 -->
      <g transform="translate(25.285 101.307062) scale(0.12 -0.12)">
       <use xlink:href="#DejaVuSans-31"/>
       <use xlink:href="#DejaVuSans-30" x="63.623047"/>
       <use xlink:href="#DejaVuSans-30" x="127.246094"/>
      </g>
     </g>
    </g>
    <g id="text_13">
     <!-- Temperature, T [oC] -->
     <g transform="translate(17.9575 433.08875) rotate(-90) scale(0.16 -0.16)">
      <defs>
       <path id="DejaVuSans-54" d="M -19 4666 
L 3928 4666 
L 3928 4134 
L 2272 4134 
L 2272 0 
L 1638 0 
L 1638 4134 
L -19 4134 
L -19 4666 
z
" transform="scale(0.015625)"/>
       <path id="DejaVuSans-65" d="M 3597 1894 
L 3597 1613 
L 953 1613 
Q 991 1019 1311 708 
Q 1631 397 2203 397 
Q 2534 397 2845 478 
Q 3156 559 3463 722 
L 3463 178 
Q 3153 47 2828 -22 
Q 2503 -91 2169 -91 
Q 1331 -91 842 396 
Q 353 884 353 1716 
Q 353 2575 817 3079 
Q 1281 3584 2069 3584 
Q 2775 3584 3186 3129 
Q 3597 2675 3597 1894 
z
M 3022 2063 
Q 3016 2534 2758 2815 
Q 2500 3097 2075 3097 
Q 1594 3097 1305 2825 
Q 1016 2553 972 2059 
L 3022 2063 
z
" transform="scale(0.015625)"/>
       <path id="DejaVuSans-6d" d="M 3328 2828 
Q 3544 3216 3844 3400 
Q 4144 3584 4550 3584 
Q 5097 3584 5394 3201 
Q 5691 2819 5691 2113 
L 5691 0 
L 5113 0 
L 5113 2094 
Q 5113 2597 4934 2840 
Q 4756 3084 4391 3084 
Q 3944 3084 3684 2787 
Q 3425 2491 3425 1978 
L 3425 0 
L 2847 0 
L 2847 2094 
Q 2847 2600 2669 2842 
Q 2491 3084 2119 3084 
Q 1678 3084 1418 2786 
Q 1159 2488 1159 1978 
L 1159 0 
L 581 0 
L 581 3500 
L 1159 3500 
L 1159 2956 
Q 1356 3278 1631 3431 
Q 1906 3584 2284 3584 
Q 2666 3584 2933 3390 
Q 3200 3197 3328 2828 
z
" transform="scale(0.015625)"/>
       <path id="DejaVuSans-61" d="M 2194 1759 
Q 1497 1759 1228 1600 
Q 959 1441 959 1056 
Q 959 750 1161 570 
Q 1363 391 1709 391 
Q 2188 391 2477 730 
Q 2766 1069 2766 1631 
L 2766 1759 
L 2194 1759 
z
M 3341 1997 
L 3341 0 
L 2766 0 
L 2766 531 
Q 2569 213 2275 61 
Q 1981 -91 1556 -91 
Q 1019 -91 701 211 
Q 384 513 384 1019 
Q 384 1609 779 1909 
Q 1175 2209 1959 2209 
L 2766 2209 
L 2766 2266 
Q 2766 2663 2505 2880 
Q 2244 3097 1772 3097 
Q 1472 3097 1187 3025 
Q 903 2953 641 2809 
L 641 3341 
Q 956 3463 1253 3523 
Q 1550 3584 1831 3584 
Q 2591 3584 2966 3190 
Q 3341 2797 3341 1997 
z
" transform="scale(0.015625)"/>
       <path id="DejaVuSans-75" d="M 544 1381 
L 544 3500 
L 1119 3500 
L 1119 1403 
Q 1119 906 1312 657 
Q 1506 409 1894 409 
Q 2359 409 2629 706 
Q 2900 1003 2900 1516 
L 2900 3500 
L 3475 3500 
L 3475 0 
L 2900 0 
L 2900 538 
Q 2691 219 2414 64 
Q 2138 -91 1772 -91 
Q 1169 -91 856 284 
Q 544 659 544 1381 
z
M 1991 3584 
L 1991 3584 
z
" transform="scale(0.015625)"/>
       <path id="DejaVuSans-43" d="M 4122 4306 
L 4122 3641 
Q 3803 3938 3442 4084 
Q 3081 4231 2675 4231 
Q 1875 4231 1450 3742 
Q 1025 3253 1025 2328 
Q 1025 1406 1450 917 
Q 1875 428 2675 428 
Q 3081 428 3442 575 
Q 3803 722 4122 1019 
L 4122 359 
Q 3791 134 3420 21 
Q 3050 -91 2638 -91 
Q 1578 -91 968 557 
Q 359 1206 359 2328 
Q 359 3453 968 4101 
Q 1578 4750 2638 4750 
Q 3056 4750 3426 4639 
Q 3797 4528 4122 4306 
z
" transform="scale(0.015625)"/>
      </defs>
      <use xlink:href="#DejaVuSans-54"/>
      <use xlink:href="#DejaVuSans-65" x="44.083984"/>
      <use xlink:href="#DejaVuSans-6d" x="105.607422"/>
      <use xlink:href="#DejaVuSans-70" x="203.019531"/>
      <use xlink:href="#DejaVuSans-65" x="266.496094"/>
      <use xlink:href="#DejaVuSans-72" x="328.019531"/>
      <use xlink:href="#DejaVuSans-61" x="369.132812"/>
      <use xlink:href="#DejaVuSans-74" x="430.412109"/>
      <use xlink:href="#DejaVuSans-75" x="469.621094"/>
      <use xlink:href="#DejaVuSans-72" x="533"/>
      <use xlink:href="#DejaVuSans-65" x="571.863281"/>
      <use xlink:href="#DejaVuSans-2c" x="633.386719"/>
      <use xlink:href="#DejaVuSans-20" x="665.173828"/>
      <use xlink:href="#DejaVuSans-54" x="696.960938"/>
      <use xlink:href="#DejaVuSans-20" x="758.044922"/>
      <use xlink:href="#DejaVuSans-5b" x="789.832031"/>
      <use xlink:href="#DejaVuSans-6f" x="828.845703"/>
      <use xlink:href="#DejaVuSans-43" x="890.027344"/>
      <use xlink:href="#DejaVuSans-5d" x="959.851562"/>
     </g>
    </g>
   </g>
   <g id="line2d_12">
    <path d="M -1 700.863564 
L 56.968583 666.185904 
L 145.392628 613.05661 
L 226.201329 564.439305 
L 299.952797 520.152631 
L 357.1246 485.990985 
L 357.347744 485.990985 
L 358.80385 485.990985 
L 360.297468 485.990985 
L 361.829564 485.990985 
L 363.40113 485.990985 
L 365.013183 485.990985 
L 366.666765 485.990985 
L 368.362947 485.990985 
L 370.102825 485.990985 
L 371.887526 485.990985 
L 373.718204 485.990985 
L 375.596044 485.990985 
L 377.522261 485.990985 
L 379.4981 485.990985 
L 381.524841 485.990985 
L 383.603795 485.990985 
L 385.736306 485.990985 
L 387.923755 485.990985 
L 390.167557 485.990985 
L 392.469163 485.990985 
L 394.830063 485.990985 
L 397.251784 485.990985 
L 399.735893 485.990985 
L 402.283998 485.990985 
L 404.897746 485.990985 
L 407.57883 485.990985 
L 410.328983 485.990985 
L 413.149986 485.990985 
L 416.043663 485.990985 
L 419.011886 485.990985 
L 422.056577 485.990985 
L 425.179704 485.990985 
L 428.38329 485.990985 
L 431.669405 485.990985 
L 435.040177 485.990985 
L 438.497787 485.990985 
L 442.044471 485.990985 
L 445.682524 485.990985 
L 449.4143 485.990985 
L 453.242214 485.990985 
L 457.168742 485.990985 
L 461.196425 485.990985 
L 465.327869 485.990985 
L 469.565747 485.990985 
L 473.9128 485.990985 
L 478.371841 485.990985 
L 482.945756 485.990985 
L 487.637503 485.990985 
L 492.450119 485.990985 
L 497.386717 485.990985 
L 502.450491 485.990985 
L 507.644717 485.990985 
L 512.972756 485.990985 
L 518.438056 485.990985 
L 524.044152 485.990985 
L 529.794671 485.990985 
L 535.693335 485.990985 
L 541.743959 485.990985 
L 547.950459 485.990985 
L 554.316851 485.990985 
L 560.847252 485.990985 
L 567.545889 485.990985 
L 574.417095 485.990985 
L 581.465316 485.990985 
L 588.695113 485.990985 
L 596.111163 485.990985 
L 603.718265 485.990985 
L 611.52134 485.990985 
L 619.525437 485.990985 
L 627.735734 485.990985 
L 636.157544 485.990985 
L 644.796316 485.990985 
L 653.657639 485.990985 
L 662.747246 485.990985 
L 672.071019 485.990985 
L 681.634989 485.990985 
L 691.445346 485.990985 
L 701.508435 485.990985 
L 711.830769 485.990985 
L 722.419026 485.990985 
L 733.280056 485.990985 
L 744.420887 485.990985 
L 755.848726 485.990985 
L 767.570968 485.990985 
L 779.595198 485.990985 
L 791.929194 485.990985 
L 804.580937 485.990985 
L 817.558612 485.990985 
L 830.870617 485.990985 
L 844.525565 485.990985 
L 858.532289 485.990985 
L 885.032331 485.990985 
L 912.791552 485.990985 
L 941.869784 485.990985 
L 972.329701 485.990985 
L 1004.236955 485.990985 
L 1037.660319 485.990985 
L 1072.671831 485.990985 
L 1109.346954 485.990985 
L 1147.764738 485.990985 
L 1188.007986 485.990985 
L 1230.163436 485.990985 
L 1274.321951 485.990985 
L 1320.578708 485.990985 
L 1331.563048 485.990985 
L 1371.882463 455.075316 
L 1427.90795 410.493689 
L 1441 399.668989 
" clip-path="url(#p9925e6157e)" style="fill: none; stroke-dasharray: 3.2,0.8,0.5,0.8; stroke-dashoffset: 0; stroke: #363636; stroke-width: 0.5"/>
   </g>
   <g id="line2d_13">
    <path d="M -1 697.601681 
L 68.822192 655.532469 
L 158.275766 601.332118 
L 240.19868 551.556902 
L 315.156276 506.021727 
L 383.670257 464.545167 
L 446.191601 426.971953 
L 503.097268 393.172264 
L 554.714665 363.020916 
L 601.35348 336.375387 
L 643.325263 313.066433 
L 675.707863 295.660219 
L 676.119682 295.660219 
L 678.979317 295.660219 
L 681.912621 295.660219 
L 684.921492 295.660219 
L 688.007877 295.660219 
L 691.173774 295.660219 
L 694.42123 295.660219 
L 697.752347 295.660219 
L 701.169279 295.660219 
L 704.674239 295.660219 
L 708.269492 295.660219 
L 711.957366 295.660219 
L 715.740247 295.660219 
L 719.620581 295.660219 
L 723.600881 295.660219 
L 727.68372 295.660219 
L 731.871741 295.660219 
L 736.167654 295.660219 
L 740.574237 295.660219 
L 745.094342 295.660219 
L 749.730894 295.660219 
L 754.486891 295.660219 
L 759.365413 295.660219 
L 764.369614 295.660219 
L 769.502733 295.660219 
L 774.76809 295.660219 
L 780.169094 295.660219 
L 785.709237 295.660219 
L 791.392105 295.660219 
L 797.221374 295.660219 
L 803.200816 295.660219 
L 809.3343 295.660219 
L 815.625793 295.660219 
L 822.079368 295.660219 
L 828.699199 295.660219 
L 835.489569 295.660219 
L 842.454872 295.660219 
L 849.599614 295.660219 
L 856.928418 295.660219 
L 864.446027 295.660219 
L 872.157302 295.660219 
L 880.067235 295.660219 
L 888.180943 295.660219 
L 896.503675 295.660219 
L 905.040816 295.660219 
L 913.79789 295.660219 
L 922.780563 295.660219 
L 931.994646 295.660219 
L 941.446102 295.660219 
L 951.141044 295.660219 
L 961.085747 295.660219 
L 971.286644 295.660219 
L 981.750336 295.660219 
L 992.483592 295.660219 
L 1003.493356 295.660219 
L 1014.786753 295.660219 
L 1026.371089 295.660219 
L 1038.25386 295.660219 
L 1050.442753 295.660219 
L 1062.945655 295.660219 
L 1075.770655 295.660219 
L 1088.926052 295.660219 
L 1102.420356 295.660219 
L 1116.262299 295.660219 
L 1130.460836 295.660219 
L 1145.025155 295.660219 
L 1159.964678 295.660219 
L 1175.289071 295.660219 
L 1191.008249 295.660219 
L 1207.132383 295.660219 
L 1223.671905 295.660219 
L 1240.637516 295.660219 
L 1258.040194 295.660219 
L 1275.891197 295.660219 
L 1294.202076 295.660219 
L 1312.984677 295.660219 
L 1331.237508 295.660219 
L 1332.174211 295.127092 
L 1350.657226 284.310773 
L 1370.041405 272.403298 
L 1390.355879 259.367006 
L 1411.629871 245.163698 
L 1433.892726 229.754361 
" clip-path="url(#p9925e6157e)" style="fill: none; stroke-dasharray: 3.2,0.8,0.5,0.8; stroke-dashoffset: 0; stroke: #363636; stroke-width: 0.5"/>
   </g>
   <g id="line2d_14">
    <path d="M -1 694.419472 
L 80.628121 644.88996 
L 171.100023 589.622132 
L 254.123373 538.694053 
L 330.268622 491.918123 
L 400.056874 449.114012 
L 463.939087 410.125256 
L 522.301693 374.812524 
L 575.494359 343.032439 
L 623.857782 314.620535 
L 667.736581 289.387555 
L 707.477456 267.126333 
L 743.420174 247.622398 
L 775.888204 230.663185 
L 805.18241 216.043885 
L 831.578491 203.569982 
L 855.32743 193.057443 
L 876.657874 184.331596 
L 895.77949 177.225505 
L 912.886716 171.578287 
L 920.292186 169.381014 
L 922.884919 169.381014 
L 927.87831 169.381014 
L 933.00034 169.381014 
L 938.254323 169.381014 
L 943.643658 169.381014 
L 949.171833 169.381014 
L 954.842424 169.381014 
L 960.6591 169.381014 
L 966.625625 169.381014 
L 972.745858 169.381014 
L 979.023761 169.381014 
L 985.463394 169.381014 
L 992.068924 169.381014 
L 998.844625 169.381014 
L 1005.794881 169.381014 
L 1012.924188 169.381014 
L 1020.23716 169.381014 
L 1027.738528 169.381014 
L 1035.433145 169.381014 
L 1043.32599 169.381014 
L 1051.422169 169.381014 
L 1059.726922 169.381014 
L 1068.24562 169.381014 
L 1076.983776 169.381014 
L 1085.947044 169.381014 
L 1095.141222 169.381014 
L 1104.57226 169.381014 
L 1114.246258 169.381014 
L 1124.169478 169.381014 
L 1134.348338 169.381014 
L 1144.789424 169.381014 
L 1155.499493 169.381014 
L 1166.485474 169.381014 
L 1177.754474 169.381014 
L 1189.313784 169.381014 
L 1201.170884 169.381014 
L 1213.333446 169.381014 
L 1225.809338 169.381014 
L 1238.606632 169.381014 
L 1251.733609 169.381014 
L 1265.198761 169.381014 
L 1271.557935 169.381014 
L 1277.466108 168.029547 
L 1288.779078 165.153054 
L 1300.505816 161.782447 
L 1312.675696 157.882775 
L 1325.318616 153.418658 
L 1338.464977 148.354248 
L 1352.145663 142.653164 
L 1366.392026 136.27841 
L 1381.235865 129.192273 
L 1396.709416 121.356214 
L 1412.845331 112.730746 
L 1429.676646 103.275331 
" clip-path="url(#p9925e6157e)" style="fill: none; stroke-dasharray: 3.2,0.8,0.5,0.8; stroke-dashoffset: 0; stroke: #363636; stroke-width: 0.5"/>
   </g>
   <g id="line2d_15">
    <path d="M -1 691.314697 
L 92.388366 634.257212 
L 183.868173 577.925086 
L 267.97911 525.848666 
L 345.295093 477.838699 
L 416.336011 433.715774 
L 481.553691 393.321212 
L 541.344337 356.506317 
L 596.076488 323.112996 
L 646.113025 292.962241 
L 691.817579 265.855224 
L 733.549241 241.581899 
L 771.653668 219.930503 
L 806.456091 200.694253 
L 838.258118 183.674562 
L 867.337798 168.681711 
L 893.951613 155.53428 
L 918.337125 144.058344 
L 940.715484 134.086978 
L 961.293419 125.460224 
L 980.264653 118.025449 
L 997.810818 111.637948 
L 1014.101984 106.161645 
L 1029.296887 101.469795 
L 1043.542947 97.445606 
L 1056.976127 93.982734 
L 1069.720707 90.985607 
L 1081.889076 88.369512 
L 1093.581615 86.060437 
L 1104.886795 83.994606 
L 1115.881534 82.117738 
L 1126.631862 80.384057 
L 1137.193865 78.755118 
L 1147.614843 77.198539 
L 1157.934613 75.686726 
L 1168.186846 74.195666 
L 1178.400361 72.703846 
L 1188.600313 71.191338 
L 1198.809234 69.639041 
L 1209.047903 68.028103 
L 1219.336057 66.339479 
L 1229.692941 64.553619 
L 1240.137735 62.650252 
L 1250.689861 60.608247 
L 1261.3692 58.405535 
L 1272.196249 56.019059 
L 1283.192213 53.424758 
L 1294.379068 50.597563 
L 1305.77959 47.511393 
L 1317.417366 44.139163 
L 1329.316798 40.452779 
L 1341.503092 36.423131 
L 1354.002243 32.020078 
" clip-path="url(#p9925e6157e)" style="fill: none; stroke-dasharray: 3.2,0.8,0.5,0.8; stroke-dashoffset: 0; stroke: #363636; stroke-width: 0.5"/>
   </g>
   <g id="line2d_16">
    <path d="M 30.8243 683.871342 
L 67.263044 661.944082 
L 103.605389 640.016822 
L 139.861237 618.089562 
L 176.040996 596.162302 
L 212.155825 574.235042 
L 248.218061 552.307782 
L 284.241892 530.380522 
L 320.244261 508.453262 
L 356.245974 486.526002 
L 392.27288 464.598742 
L 428.357009 442.671482 
L 464.537565 420.744223 
L 500.861808 398.816963 
L 537.386029 376.889703 
L 574.177038 354.962443 
L 611.314843 333.035183 
L 648.897557 311.107923 
L 687.050326 289.180663 
L 725.941653 267.253403 
L 765.814286 245.326143 
L 807.047262 223.398883 
L 850.293867 201.471623 
L 853.994316 199.657614 
L 857.71755 197.843604 
L 861.464662 196.029594 
L 865.236827 194.215584 
L 869.03531 192.401574 
L 872.861478 190.587564 
L 876.716809 188.773555 
L 880.602906 186.959545 
L 884.521513 185.145535 
L 888.474532 183.331525 
L 892.46404 181.517515 
L 896.492317 179.703505 
L 900.561874 177.889496 
L 904.675479 176.075486 
L 908.836207 174.261476 
L 913.047477 172.447466 
L 917.313116 170.633456 
L 921.637424 168.819446 
L 926.025264 167.005437 
L 930.482161 165.191427 
L 935.014444 163.377417 
L 939.629405 161.563407 
L 944.335524 159.749397 
L 949.142748 157.935387 
L 954.062866 156.121378 
L 959.110016 154.307368 
L 964.301383 152.493358 
L 969.658181 150.679348 
L 975.207082 148.865338 
L 980.982353 147.051328 
L 987.029185 145.237319 
L 993.40912 143.423309 
L 1000.20945 141.609299 
L 1007.560717 139.795289 
L 1015.672736 137.981279 
L 1024.919847 136.167269 
L 1036.091045 134.35326 
L 1051.478696 132.53925 
L 1105.727491 130.72524 
" clip-path="url(#p9925e6157e)" style="fill: none; stroke: #363636; stroke-width: 0.5; stroke-linecap: square"/>
   </g>
   <g id="line2d_17">
    <path d="M 1313.410335 683.871342 
L 1315.246755 661.944082 
L 1317.215046 640.016822 
L 1319.278898 618.089562 
L 1321.401249 596.162302 
L 1323.544226 574.235042 
L 1325.668966 552.307782 
L 1327.735245 530.380522 
L 1329.700879 508.453262 
L 1331.520864 486.526002 
L 1333.146232 464.598742 
L 1334.522579 442.671482 
L 1335.588204 420.744223 
L 1336.2717 398.816963 
L 1336.488754 376.889703 
L 1336.1377 354.962443 
L 1335.093082 333.035183 
L 1333.195908 311.107923 
L 1330.238158 289.180663 
L 1325.93681 267.253403 
L 1319.887254 245.326143 
L 1311.472156 223.398883 
L 1299.659946 201.471623 
L 1298.480314 199.657614 
L 1297.263599 197.843604 
L 1296.008146 196.029594 
L 1294.71218 194.215584 
L 1293.373791 192.401574 
L 1291.990923 190.587564 
L 1290.561352 188.773555 
L 1289.082674 186.959545 
L 1287.552279 185.145535 
L 1285.967323 183.331525 
L 1284.324709 181.517515 
L 1282.62104 179.703505 
L 1280.852591 177.889496 
L 1279.015251 176.075486 
L 1277.104474 174.261476 
L 1275.115211 172.447466 
L 1273.041825 170.633456 
L 1270.877995 168.819446 
L 1268.616596 167.005437 
L 1266.249546 165.191427 
L 1263.767624 163.377417 
L 1261.160229 161.563407 
L 1258.41508 159.749397 
L 1255.517821 157.935387 
L 1252.451502 156.121378 
L 1249.195887 154.307368 
L 1245.72649 152.493358 
L 1242.013242 150.679348 
L 1238.018558 148.865338 
L 1233.694462 147.051328 
L 1228.978147 145.237319 
L 1223.784788 143.423309 
L 1217.995234 141.609299 
L 1211.43331 139.795289 
L 1203.819702 137.981279 
L 1194.664513 136.167269 
L 1182.958223 134.35326 
L 1165.865515 132.53925 
L 1105.727491 130.72524 
" clip-path="url(#p9925e6157e)" style="fill: none; stroke: #363636; stroke-width: 0.5; stroke-linecap: square"/>
   </g>
   <g id="line2d_18">
    <path d="M 1321.231398 571.783809 
L 1282.501304 571.941629 
L 1245.089658 572.094303 
L 1208.950442 572.241998 
L 1174.039315 572.384873 
L 1140.31355 572.523084 
L 1107.731968 572.65678 
L 1076.25488 572.786108 
L 1045.844027 572.911208 
L 1016.462528 573.032217 
L 988.074826 573.149267 
L 960.646638 573.262486 
L 934.144905 573.371999 
L 908.537746 573.477925 
L 883.794418 573.58038 
L 859.885264 573.679478 
L 836.781683 573.775327 
L 814.456081 573.868033 
L 792.881841 573.957698 
L 772.033281 574.044421 
L 751.885624 574.128298 
L 732.414961 574.209421 
L 713.598221 574.287879 
L 695.41314 574.363761 
L 677.838232 574.43715 
L 660.852758 574.508127 
L 644.436702 574.576771 
L 628.570744 574.643158 
L 613.236235 574.707362 
L 598.415168 574.769454 
L 584.090165 574.829503 
L 570.244444 574.887577 
L 556.861803 574.94374 
L 543.9266 574.998053 
L 531.423729 575.050579 
L 519.338606 575.101375 
L 507.657144 575.150499 
L 496.365744 575.198004 
L 485.451268 575.243944 
L 474.90103 575.288371 
L 464.702779 575.331334 
L 454.844679 575.372881 
L 445.315301 575.413058 
L 436.103603 575.451911 
L 427.198921 575.489483 
L 418.590952 575.525816 
L 410.269746 575.560951 
L 402.225687 575.594927 
L 394.449488 575.627782 
L 386.932177 575.659554 
L 379.665084 575.690277 
L 372.639835 575.719986 
L 365.848337 575.748716 
L 359.282773 575.776497 
L 352.935588 575.803361 
L 346.799482 575.829339 
L 340.867404 575.854459 
L 335.132538 575.878749 
L 329.588297 575.902238 
L 324.22832 575.924951 
L 319.046456 575.946915 
L 314.036763 575.968153 
L 309.193498 575.988689 
L 304.511112 576.008547 
L 299.98424 576.02775 
L 295.6077 576.046318 
L 291.376482 576.064273 
L 287.285746 576.081635 
L 283.330811 576.098423 
L 279.507156 576.114656 
L 275.81041 576.130353 
L 272.236349 576.145532 
L 268.78089 576.160208 
L 265.440086 576.1744 
L 262.210124 576.188123 
L 259.087316 576.201393 
L 256.068098 576.214224 
L 253.149027 576.22663 
L 250.326773 576.238627 
L 247.598117 576.250227 
L 244.959949 576.261444 
L 242.409262 576.27229 
L 239.94315 576.282777 
L 237.558802 576.292918 
L 235.253502 576.302723 
L 233.024625 576.312205 
L 230.869634 576.321373 
L 228.786074 576.330237 
L 226.771575 576.338809 
L 224.823843 576.347097 
L 222.940662 576.355111 
L 221.119889 576.362861 
L 219.359454 576.370354 
L 217.657355 576.377599 
L 216.011654 576.384604 
L 214.420483 576.391378 
L 212.88203 576.397928 
L 211.394548 576.404262 
L 209.956346 576.410385 
L 208.565789 576.416307 
" clip-path="url(#p9925e6157e)" style="fill: none; stroke: #ff0000; stroke-width: 2; stroke-linecap: square"/>
   </g>
   <g id="line2d_19">
    <path d="M 208.565789 576.416307 
L 208.621415 576.282498 
L 208.677041 576.14866 
L 208.732667 576.014793 
L 208.788293 575.880898 
L 208.84392 575.746973 
L 208.899546 575.613019 
L 208.955172 575.479037 
L 209.010798 575.345025 
L 209.066424 575.210985 
L 209.12205 575.076916 
L 209.177676 574.942818 
L 209.233302 574.80869 
L 209.288929 574.674534 
L 209.344555 574.540349 
L 209.400181 574.406136 
L 209.455807 574.271893 
L 209.511433 574.137621 
L 209.567059 574.003321 
L 209.622685 573.868991 
L 209.678311 573.734633 
L 209.733938 573.600246 
L 209.789564 573.46583 
L 209.84519 573.331385 
L 209.900816 573.196911 
L 209.956442 573.062408 
L 210.012068 572.927877 
L 210.067694 572.793317 
L 210.12332 572.658727 
L 210.178947 572.524109 
L 210.234573 572.389462 
L 210.290199 572.254787 
L 210.345825 572.120082 
L 210.401451 571.985349 
L 210.457077 571.850587 
L 210.512703 571.715796 
L 210.568329 571.580976 
L 210.623956 571.446127 
L 210.679582 571.31125 
L 210.735208 571.176343 
L 210.790834 571.041408 
L 210.84646 570.906444 
L 210.902086 570.771452 
L 210.957712 570.63643 
L 211.013338 570.50138 
L 211.068965 570.366301 
L 211.124591 570.231193 
L 211.180217 570.096057 
L 211.235843 569.960891 
L 211.291469 569.825697 
L 211.347095 569.690474 
L 211.402721 569.555223 
L 211.458347 569.419942 
L 211.513974 569.284633 
L 211.5696 569.149295 
L 211.625226 569.013929 
L 211.680852 568.878533 
L 211.736478 568.743109 
L 211.792104 568.607656 
L 211.84773 568.472175 
L 211.903357 568.336665 
L 211.958983 568.201126 
L 212.014609 568.065558 
L 212.070235 567.929961 
L 212.125861 567.794336 
L 212.181487 567.658683 
L 212.237113 567.523 
L 212.292739 567.387289 
L 212.348366 567.251549 
L 212.403992 567.11578 
L 212.459618 566.979983 
L 212.515244 566.844157 
L 212.57087 566.708302 
L 212.626496 566.572419 
L 212.682122 566.436507 
L 212.737748 566.300567 
L 212.793375 566.164597 
L 212.849001 566.028599 
L 212.904627 565.892573 
L 212.960253 565.756518 
L 213.015879 565.620434 
L 213.071505 565.484321 
L 213.127131 565.34818 
L 213.182757 565.21201 
L 213.238384 565.075812 
L 213.29401 564.939585 
L 213.349636 564.803329 
L 213.405262 564.667045 
L 213.460888 564.530732 
L 213.516514 564.39439 
L 213.57214 564.25802 
L 213.627766 564.121621 
L 213.683393 563.985194 
L 213.739019 563.848738 
L 213.794645 563.712254 
L 213.850271 563.575741 
L 213.905897 563.439199 
L 213.961523 563.302629 
L 214.017149 563.16603 
L 214.072775 563.029403 
" clip-path="url(#p9925e6157e)" style="fill: none; stroke: #ff0000; stroke-width: 2; stroke-linecap: square"/>
   </g>
   <g id="line2d_20">
    <path d="M 1303.513602 160.856 
L 1303.692569 165.729908 
L 1303.871537 170.591237 
L 1304.050505 175.439946 
L 1304.229472 180.275976 
L 1304.40844 185.099256 
L 1304.587408 189.909699 
L 1304.766375 194.707208 
L 1304.945343 199.491677 
L 1305.124311 204.262995 
L 1305.303278 209.021041 
L 1305.482246 213.274158 
L 1305.661213 217.140199 
L 1305.840181 221.022811 
L 1306.019149 224.92124 
L 1306.198116 228.834776 
L 1306.377084 232.762749 
L 1306.556052 236.704524 
L 1306.735019 240.659497 
L 1306.913987 244.627093 
L 1307.092955 248.606763 
L 1307.271922 252.597979 
L 1307.45089 256.600238 
L 1307.629857 260.613052 
L 1307.808825 264.635952 
L 1307.987793 268.668487 
L 1308.16676 272.710216 
L 1308.345728 276.760716 
L 1308.524696 280.819573 
L 1308.703663 284.886387 
L 1308.882631 288.960768 
L 1309.061599 293.042333 
L 1309.240566 297.130713 
L 1309.419534 301.225543 
L 1309.598501 305.326469 
L 1309.777469 309.433143 
L 1309.956437 313.545224 
L 1310.135404 317.662377 
L 1310.314372 321.784275 
L 1310.49334 325.910596 
L 1310.672307 330.041022 
L 1310.851275 334.175242 
L 1311.030243 338.31295 
L 1311.20921 342.453845 
L 1311.388178 346.597628 
L 1311.567145 350.744007 
L 1311.746113 354.892695 
L 1311.925081 359.043406 
L 1312.104048 363.19586 
L 1312.283016 367.34978 
L 1312.461984 371.504895 
L 1312.640951 375.660934 
L 1312.819919 379.817632 
L 1312.998887 383.974728 
L 1313.177854 388.131962 
L 1313.356822 392.289079 
L 1313.535789 396.445828 
L 1313.714757 400.60196 
L 1313.893725 404.757229 
L 1314.072692 408.911394 
L 1314.25166 413.064216 
L 1314.430628 417.215458 
L 1314.609595 421.36489 
L 1314.788563 425.512281 
L 1314.967531 429.657405 
L 1315.146498 433.800039 
L 1315.325466 437.939964 
L 1315.504433 442.076962 
L 1315.683401 446.210821 
L 1315.862369 450.34133 
L 1316.041336 454.468282 
L 1316.220304 458.591473 
L 1316.399272 462.710701 
L 1316.578239 466.825769 
L 1316.757207 470.936482 
L 1316.936175 475.04265 
L 1317.115142 479.144083 
L 1317.29411 483.240596 
L 1317.473077 487.332008 
L 1317.652045 491.418139 
L 1317.831013 495.498814 
L 1318.00998 499.57386 
L 1318.188948 503.643108 
L 1318.367916 507.706391 
L 1318.546883 511.763545 
L 1318.725851 515.814412 
L 1318.904819 519.858833 
L 1319.083786 523.896655 
L 1319.262754 527.927727 
L 1319.441722 531.9519 
L 1319.620689 535.96903 
L 1319.799657 539.978975 
L 1319.978624 543.981596 
L 1320.157592 547.976757 
L 1320.33656 551.964324 
L 1320.515527 555.944169 
L 1320.694495 559.916162 
L 1320.873463 563.880181 
L 1321.05243 567.836103 
L 1321.231398 571.783809 
" clip-path="url(#p9925e6157e)" style="fill: none; stroke: #ff0000; stroke-width: 2; stroke-linecap: square"/>
   </g>
   <g id="line2d_21">
    <path d="M 214.072775 563.029403 
L 263.733007 532.524893 
L 310.828383 503.574459 
L 355.480935 476.135759 
L 397.802862 450.169865 
L 437.895745 425.641635 
L 475.851578 402.518648 
L 511.75518 380.769264 
L 545.687129 360.360544 
L 577.72634 341.256683 
L 607.951775 323.418236 
L 636.443176 306.80213 
L 663.280956 291.362254 
L 688.54557 277.050348 
L 712.316635 263.816985 
L 734.672039 251.612458 
L 755.687167 240.38751 
L 775.434336 230.093852 
L 793.982432 220.684502 
L 811.396753 212.113945 
L 827.739015 204.33818 
L 843.067477 197.314669 
L 857.437165 191.002234 
L 870.900143 185.360923 
L 883.505813 180.351872 
L 895.30124 175.937162 
L 906.331463 172.079688 
L 916.639823 168.743041 
L 926.268275 165.891402 
L 933.798639 163.860927 
L 934.302208 163.868119 
L 937.343645 163.911533 
L 940.432126 163.955635 
L 943.568367 164.000438 
L 946.753092 164.045951 
L 949.987039 164.092186 
L 953.270953 164.139154 
L 956.605593 164.186868 
L 959.991726 164.23534 
L 963.430132 164.28458 
L 966.921603 164.334603 
L 970.466942 164.38542 
L 974.066962 164.437044 
L 977.722489 164.489488 
L 981.434361 164.542765 
L 985.203429 164.596888 
L 989.030554 164.651872 
L 992.916611 164.707729 
L 996.862486 164.764474 
L 1000.869081 164.822122 
L 1004.937308 164.880686 
L 1009.068091 164.940181 
L 1013.262372 165.000623 
L 1017.5211 165.062026 
L 1021.845243 165.124407 
L 1026.23578 165.18778 
L 1030.693705 165.252162 
L 1035.220024 165.317569 
L 1039.815759 165.384017 
L 1044.481947 165.451523 
L 1049.219638 165.520105 
L 1054.029898 165.58978 
L 1058.913805 165.660565 
L 1063.872457 165.732478 
L 1068.906963 165.805537 
L 1074.018449 165.879762 
L 1079.208058 165.95517 
L 1084.476945 166.031781 
L 1089.826286 166.109615 
L 1095.257268 166.18869 
L 1100.771099 166.269028 
L 1106.369001 166.350649 
L 1112.052213 166.433573 
L 1117.821991 166.517822 
L 1123.679607 166.603416 
L 1129.626354 166.690379 
L 1135.663538 166.778731 
L 1141.792484 166.868497 
L 1148.014538 166.959697 
L 1154.331059 167.052357 
L 1160.743428 167.1465 
L 1167.253043 167.242149 
L 1173.861319 167.339329 
L 1180.569694 167.438066 
L 1187.37962 167.538385 
L 1194.292573 167.64031 
L 1201.310043 167.74387 
L 1208.433545 167.849089 
L 1215.66461 167.955996 
L 1223.00479 168.064618 
L 1230.455657 168.174983 
L 1238.018804 168.28712 
L 1245.695843 168.401056 
L 1253.488408 168.516823 
L 1261.398154 168.63445 
L 1269.426755 168.753967 
L 1270.823459 168.774734 
L 1276.19855 167.691405 
L 1282.814482 166.237618 
L 1289.568224 164.618675 
L 1296.465878 162.827255 
L 1303.513602 160.856 
" clip-path="url(#p9925e6157e)" style="fill: none; stroke: #ff0000; stroke-width: 2; stroke-linecap: square"/>
   </g>
   <g id="patch_3">
    <path d="M 55.19 673.72 
L 55.19 32.64 
" style="fill: none; stroke: #000000; stroke-width: 0.8; stroke-linejoin: miter; stroke-linecap: square"/>
   </g>
   <g id="patch_4">
    <path d="M 1429.2 673.72 
L 1429.2 32.64 
" style="fill: none; stroke: #000000; stroke-width: 0.8; stroke-linejoin: miter; stroke-linecap: square"/>
   </g>
   <g id="patch_5">
    <path d="M 55.19 673.72 
L 1429.2 673.72 
" style="fill: none; stroke: #000000; stroke-width: 0.8; stroke-linejoin: miter; stroke-linecap: square"/>
   </g>
   <g id="patch_6">
    <path d="M 55.19 32.64 
L 1429.2 32.64 
" style="fill: none; stroke: #000000; stroke-width: 0.8; stroke-linejoin: miter; stroke-linecap: square"/>
   </g>
   <g id="text_14">
    <g id="patch_7">
     <path d="M 823.50994 490.830048 
L 865.54119 490.830048 
L 865.54119 481.151923 
L 823.50994 481.151923 
z
" style="fill: #ffffff; stroke: #ffffff; stroke-linejoin: miter"/>
    </g>
    <!-- 10.0 bar -->
    <g transform="translate(823.50994 488.75036) scale(0.1 -0.1)">
     <defs>
      <path id="DejaVuSans-62" d="M 3116 1747 
Q 3116 2381 2855 2742 
Q 2594 3103 2138 3103 
Q 1681 3103 1420 2742 
Q 1159 2381 1159 1747 
Q 1159 1113 1420 752 
Q 1681 391 2138 391 
Q 2594 391 2855 752 
Q 3116 1113 3116 1747 
z
M 1159 2969 
Q 1341 3281 1617 3432 
Q 1894 3584 2278 3584 
Q 2916 3584 3314 3078 
Q 3713 2572 3713 1747 
Q 3713 922 3314 415 
Q 2916 -91 2278 -91 
Q 1894 -91 1617 61 
Q 1341 213 1159 525 
L 1159 0 
L 581 0 
L 581 4863 
L 1159 4863 
L 1159 2969 
z
" transform="scale(0.015625)"/>
     </defs>
     <use xlink:href="#DejaVuSans-31"/>
     <use xlink:href="#DejaVuSans-30" x="63.623047"/>
     <use xlink:href="#DejaVuSans-2e" x="127.246094"/>
     <use xlink:href="#DejaVuSans-30" x="159.033203"/>
     <use xlink:href="#DejaVuSans-20" x="222.65625"/>
     <use xlink:href="#DejaVuSans-62" x="254.443359"/>
     <use xlink:href="#DejaVuSans-61" x="317.919922"/>
     <use xlink:href="#DejaVuSans-72" x="379.199219"/>
    </g>
   </g>
   <g id="text_15">
    <g id="patch_8">
     <path d="M 1154.273446 300.499282 
L 1196.304696 300.499282 
L 1196.304696 290.821157 
L 1154.273446 290.821157 
z
" style="fill: #ffffff; stroke: #ffffff; stroke-linejoin: miter"/>
    </g>
    <!-- 20.0 bar -->
    <g transform="translate(1154.273446 298.419594) scale(0.1 -0.1)">
     <use xlink:href="#DejaVuSans-32"/>
     <use xlink:href="#DejaVuSans-30" x="63.623047"/>
     <use xlink:href="#DejaVuSans-2e" x="127.246094"/>
     <use xlink:href="#DejaVuSans-30" x="159.033203"/>
     <use xlink:href="#DejaVuSans-20" x="222.65625"/>
     <use xlink:href="#DejaVuSans-62" x="254.443359"/>
     <use xlink:href="#DejaVuSans-61" x="317.919922"/>
     <use xlink:href="#DejaVuSans-72" x="379.199219"/>
    </g>
   </g>
   <g id="text_16">
    <g id="patch_9">
     <path d="M 1250.54231 174.220077 
L 1292.57356 174.220077 
L 1292.57356 164.541952 
L 1250.54231 164.541952 
z
" style="fill: #ffffff; stroke: #ffffff; stroke-linejoin: miter"/>
    </g>
    <!-- 30.0 bar -->
    <g transform="translate(1250.54231 172.140389) scale(0.1 -0.1)">
     <use xlink:href="#DejaVuSans-33"/>
     <use xlink:href="#DejaVuSans-30" x="63.623047"/>
     <use xlink:href="#DejaVuSans-2e" x="127.246094"/>
     <use xlink:href="#DejaVuSans-30" x="159.033203"/>
     <use xlink:href="#DejaVuSans-20" x="222.65625"/>
     <use xlink:href="#DejaVuSans-62" x="254.443359"/>
     <use xlink:href="#DejaVuSans-61" x="317.919922"/>
     <use xlink:href="#DejaVuSans-72" x="379.199219"/>
    </g>
   </g>
   <g id="text_17">
    <g id="patch_10">
     <path d="M 1241.88069 67.639764 
L 1282.933643 58.624168 
L 1280.85771 49.171305 
L 1239.804756 58.186902 
z
" style="fill: #ffffff; stroke: #ffffff; stroke-linejoin: miter"/>
    </g>
    <!-- 40.0 bar -->
    <g transform="translate(1241.434602 65.608482) rotate(-12.386047) scale(0.1 -0.1)">
     <use xlink:href="#DejaVuSans-34"/>
     <use xlink:href="#DejaVuSans-30" x="63.623047"/>
     <use xlink:href="#DejaVuSans-2e" x="127.246094"/>
     <use xlink:href="#DejaVuSans-30" x="159.033203"/>
     <use xlink:href="#DejaVuSans-20" x="222.65625"/>
     <use xlink:href="#DejaVuSans-62" x="254.443359"/>
     <use xlink:href="#DejaVuSans-61" x="317.919922"/>
     <use xlink:href="#DejaVuSans-72" x="379.199219"/>
    </g>
   </g>
   <g id="text_18">
    <g id="patch_11">
     <path d="M 457.62901 430.961208 
L 476.693553 418.659307 
L 471.44612 410.527238 
L 452.381577 422.829138 
z
" style="fill: #ffffff; stroke: #ffffff; stroke-linejoin: miter"/>
    </g>
    <!-- 0.0 - -->
    <g transform="translate(456.501413 429.213745) rotate(-32.833201) scale(0.1 -0.1)">
     <defs>
      <path id="DejaVuSans-2d" d="M 313 2009 
L 1997 2009 
L 1997 1497 
L 313 1497 
L 313 2009 
z
" transform="scale(0.015625)"/>
     </defs>
     <use xlink:href="#DejaVuSans-30"/>
     <use xlink:href="#DejaVuSans-2e" x="63.623047"/>
     <use xlink:href="#DejaVuSans-30" x="95.410156"/>
     <use xlink:href="#DejaVuSans-20" x="159.033203"/>
     <use xlink:href="#DejaVuSans-2d" x="190.820312"/>
    </g>
   </g>
   <g id="text_19">
    <g id="patch_12">
     <path d="M 1339.904963 432.297599 
L 1340.939504 409.632134 
L 1331.271445 409.190846 
L 1330.236904 431.856311 
z
" style="fill: #ffffff; stroke: #ffffff; stroke-linejoin: miter"/>
    </g>
    <!-- 1.0 - -->
    <g transform="translate(1337.827438 432.202773) rotate(-87.386609) scale(0.1 -0.1)">
     <use xlink:href="#DejaVuSans-31"/>
     <use xlink:href="#DejaVuSans-2e" x="63.623047"/>
     <use xlink:href="#DejaVuSans-30" x="95.410156"/>
     <use xlink:href="#DejaVuSans-20" x="159.033203"/>
     <use xlink:href="#DejaVuSans-2d" x="190.820312"/>
    </g>
   </g>
   <g id="text_20">
    <!-- T-s Diagram for ORC System -->
    <g transform="translate(600.191875 26.64) scale(0.2 -0.2)">
     <defs>
      <path id="DejaVuSans-44" d="M 1259 4147 
L 1259 519 
L 2022 519 
Q 2988 519 3436 956 
Q 3884 1394 3884 2338 
Q 3884 3275 3436 3711 
Q 2988 4147 2022 4147 
L 1259 4147 
z
M 628 4666 
L 1925 4666 
Q 3281 4666 3915 4102 
Q 4550 3538 4550 2338 
Q 4550 1131 3912 565 
Q 3275 0 1925 0 
L 628 0 
L 628 4666 
z
" transform="scale(0.015625)"/>
      <path id="DejaVuSans-69" d="M 603 3500 
L 1178 3500 
L 1178 0 
L 603 0 
L 603 3500 
z
M 603 4863 
L 1178 4863 
L 1178 4134 
L 603 4134 
L 603 4863 
z
" transform="scale(0.015625)"/>
      <path id="DejaVuSans-66" d="M 2375 4863 
L 2375 4384 
L 1825 4384 
Q 1516 4384 1395 4259 
Q 1275 4134 1275 3809 
L 1275 3500 
L 2222 3500 
L 2222 3053 
L 1275 3053 
L 1275 0 
L 697 0 
L 697 3053 
L 147 3053 
L 147 3500 
L 697 3500 
L 697 3744 
Q 697 4328 969 4595 
Q 1241 4863 1831 4863 
L 2375 4863 
z
" transform="scale(0.015625)"/>
      <path id="DejaVuSans-4f" d="M 2522 4238 
Q 1834 4238 1429 3725 
Q 1025 3213 1025 2328 
Q 1025 1447 1429 934 
Q 1834 422 2522 422 
Q 3209 422 3611 934 
Q 4013 1447 4013 2328 
Q 4013 3213 3611 3725 
Q 3209 4238 2522 4238 
z
M 2522 4750 
Q 3503 4750 4090 4092 
Q 4678 3434 4678 2328 
Q 4678 1225 4090 567 
Q 3503 -91 2522 -91 
Q 1538 -91 948 565 
Q 359 1222 359 2328 
Q 359 3434 948 4092 
Q 1538 4750 2522 4750 
z
" transform="scale(0.015625)"/>
      <path id="DejaVuSans-52" d="M 2841 2188 
Q 3044 2119 3236 1894 
Q 3428 1669 3622 1275 
L 4263 0 
L 3584 0 
L 2988 1197 
Q 2756 1666 2539 1819 
Q 2322 1972 1947 1972 
L 1259 1972 
L 1259 0 
L 628 0 
L 628 4666 
L 2053 4666 
Q 2853 4666 3247 4331 
Q 3641 3997 3641 3322 
Q 3641 2881 3436 2590 
Q 3231 2300 2841 2188 
z
M 1259 4147 
L 1259 2491 
L 2053 2491 
Q 2509 2491 2742 2702 
Q 2975 2913 2975 3322 
Q 2975 3731 2742 3939 
Q 2509 4147 2053 4147 
L 1259 4147 
z
" transform="scale(0.015625)"/>
      <path id="DejaVuSans-53" d="M 3425 4513 
L 3425 3897 
Q 3066 4069 2747 4153 
Q 2428 4238 2131 4238 
Q 1616 4238 1336 4038 
Q 1056 3838 1056 3469 
Q 1056 3159 1242 3001 
Q 1428 2844 1947 2747 
L 2328 2669 
Q 3034 2534 3370 2195 
Q 3706 1856 3706 1288 
Q 3706 609 3251 259 
Q 2797 -91 1919 -91 
Q 1588 -91 1214 -16 
Q 841 59 441 206 
L 441 856 
Q 825 641 1194 531 
Q 1563 422 1919 422 
Q 2459 422 2753 634 
Q 3047 847 3047 1241 
Q 3047 1584 2836 1778 
Q 2625 1972 2144 2069 
L 1759 2144 
Q 1053 2284 737 2584 
Q 422 2884 422 3419 
Q 422 4038 858 4394 
Q 1294 4750 2059 4750 
Q 2388 4750 2728 4690 
Q 3069 4631 3425 4513 
z
" transform="scale(0.015625)"/>
     </defs>
     <use xlink:href="#DejaVuSans-54"/>
     <use xlink:href="#DejaVuSans-2d" x="51.958984"/>
     <use xlink:href="#DejaVuSans-73" x="88.042969"/>
     <use xlink:href="#DejaVuSans-20" x="140.142578"/>
     <use xlink:href="#DejaVuSans-44" x="171.929688"/>
     <use xlink:href="#DejaVuSans-69" x="248.931641"/>
     <use xlink:href="#DejaVuSans-61" x="276.714844"/>
     <use xlink:href="#DejaVuSans-67" x="337.994141"/>
     <use xlink:href="#DejaVuSans-72" x="401.470703"/>
     <use xlink:href="#DejaVuSans-61" x="442.583984"/>
     <use xlink:href="#DejaVuSans-6d" x="503.863281"/>
     <use xlink:href="#DejaVuSans-20" x="601.275391"/>
     <use xlink:href="#DejaVuSans-66" x="633.0625"/>
     <use xlink:href="#DejaVuSans-6f" x="668.267578"/>
     <use xlink:href="#DejaVuSans-72" x="729.449219"/>
     <use xlink:href="#DejaVuSans-20" x="770.5625"/>
     <use xlink:href="#DejaVuSans-4f" x="802.349609"/>
     <use xlink:href="#DejaVuSans-52" x="881.060547"/>
     <use xlink:href="#DejaVuSans-43" x="945.542969"/>
     <use xlink:href="#DejaVuSans-20" x="1015.367188"/>
     <use xlink:href="#DejaVuSans-53" x="1047.154297"/>
     <use xlink:href="#DejaVuSans-79" x="1110.630859"/>
     <use xlink:href="#DejaVuSans-73" x="1169.810547"/>
     <use xlink:href="#DejaVuSans-74" x="1221.910156"/>
     <use xlink:href="#DejaVuSans-65" x="1261.119141"/>
     <use xlink:href="#DejaVuSans-6d" x="1322.642578"/>
    </g>
   </g>
  </g>
 </g>
 <defs>
  <clipPath id="p9925e6157e">
   <rect x="55.19" y="32.64" width="1374.01" height="641.08"/>
  </clipPath>
 </defs>
</svg>
