<?xml version="1.0" encoding="utf-8" standalone="no"?>
<!DOCTYPE svg PUBLIC "-//W3C//DTD SVG 1.1//EN"
  "http://www.w3.org/Graphics/SVG/1.1/DTD/svg11.dtd">
<svg xmlns:xlink="http://www.w3.org/1999/xlink" width="1440pt" height="720pt" viewBox="0 0 1440 720" xmlns="http://www.w3.org/2000/svg" version="1.1">
 <metadata>
  <rdf:RDF xmlns:dc="http://purl.org/dc/elements/1.1/" xmlns:cc="http://creativecommons.org/ns#" xmlns:rdf="http://www.w3.org/1999/02/22-rdf-syntax-ns#">
   <cc:Work>
    <dc:type rdf:resource="http://purl.org/dc/dcmitype/StillImage"/>
    <dc:date>2024-05-13T10:06:13.188063</dc:date>
    <dc:format>image/svg+xml</dc:format>
    <dc:creator>
     <cc:Agent>
      <dc:title>Matplotlib v3.8.1, https://matplotlib.org/</dc:title>
     </cc:Agent>
    </dc:creator>
   </cc:Work>
  </rdf:RDF>
 </metadata>
 <defs>
  <style type="text/css">*{stroke-linejoin: round; stroke-linecap: butt}</style>
 </defs>
 <g id="figure_1">
  <g id="patch_1">
   <path d="M 0 720 
L 1440 720 
L 1440 0 
L 0 0 
z
" style="fill: #ffffff"/>
  </g>
  <g id="axes_1">
   <g id="patch_2">
    <path d="M 58.97 670.84 
L 1429.2 670.84 
L 1429.2 32.64 
L 58.97 32.64 
z
" style="fill: #ffffff"/>
   </g>
   <g id="PathCollection_1">
    <defs>
     <path id="me43b714917" d="M 0 3 
C 0.795609 3 1.55874 2.683901 2.12132 2.12132 
C 2.683901 1.55874 3 0.795609 3 0 
C 3 -0.795609 2.683901 -1.55874 2.12132 -2.12132 
C 1.55874 -2.683901 0.795609 -3 0 -3 
C -0.795609 -3 -1.55874 -2.683901 -2.12132 -2.12132 
C -2.683901 -1.55874 -3 -0.795609 -3 0 
C -3 0.795609 -2.683901 1.55874 -2.12132 2.12132 
C -1.55874 2.683901 -0.795609 3 0 3 
z
" style="stroke: #ff0000"/>
    </defs>
    <g clip-path="url(#pcff4090afa)">
     <use xlink:href="#me43b714917" x="211.923841" y="573.973436" style="fill: #ff0000; stroke: #ff0000"/>
    </g>
   </g>
   <g id="PathCollection_2">
    <g clip-path="url(#pcff4090afa)">
     <use xlink:href="#me43b714917" x="217.415678" y="560.646671" style="fill: #ff0000; stroke: #ff0000"/>
    </g>
   </g>
   <g id="PathCollection_3">
    <g clip-path="url(#pcff4090afa)">
     <use xlink:href="#me43b714917" x="1303.859374" y="160.28" style="fill: #ff0000; stroke: #ff0000"/>
    </g>
   </g>
   <g id="PathCollection_4">
    <g clip-path="url(#pcff4090afa)">
     <use xlink:href="#me43b714917" x="1321.528427" y="569.361749" style="fill: #ff0000; stroke: #ff0000"/>
    </g>
   </g>
   <g id="matplotlib.axis_1">
    <g id="xtick_1">
     <g id="line2d_1">
      <defs>
       <path id="mf904a42160" d="M 0 0 
L 0 3.5 
" style="stroke: #000000; stroke-width: 0.8"/>
      </defs>
      <g>
       <use xlink:href="#mf904a42160" x="173.155833" y="670.84" style="stroke: #000000; stroke-width: 0.8"/>
      </g>
     </g>
     <g id="text_1">
      <!-- 1100 -->
      <g transform="translate(157.885833 686.958125) scale(0.12 -0.12)">
       <defs>
        <path id="DejaVuSans-31" d="M 794 531 
L 1825 531 
L 1825 4091 
L 703 3866 
L 703 4441 
L 1819 4666 
L 2450 4666 
L 2450 531 
L 3481 531 
L 3481 0 
L 794 0 
L 794 531 
z
" transform="scale(0.015625)"/>
        <path id="DejaVuSans-30" d="M 2034 4250 
Q 1547 4250 1301 3770 
Q 1056 3291 1056 2328 
Q 1056 1369 1301 889 
Q 1547 409 2034 409 
Q 2525 409 2770 889 
Q 3016 1369 3016 2328 
Q 3016 3291 2770 3770 
Q 2525 4250 2034 4250 
z
M 2034 4750 
Q 2819 4750 3233 4129 
Q 3647 3509 3647 2328 
Q 3647 1150 3233 529 
Q 2819 -91 2034 -91 
Q 1250 -91 836 529 
Q 422 1150 422 2328 
Q 422 3509 836 4129 
Q 1250 4750 2034 4750 
z
" transform="scale(0.015625)"/>
       </defs>
       <use xlink:href="#DejaVuSans-31"/>
       <use xlink:href="#DejaVuSans-31" x="63.623047"/>
       <use xlink:href="#DejaVuSans-30" x="127.246094"/>
       <use xlink:href="#DejaVuSans-30" x="190.869141"/>
      </g>
     </g>
    </g>
    <g id="xtick_2">
     <g id="line2d_2">
      <g>
       <use xlink:href="#mf904a42160" x="401.5275" y="670.84" style="stroke: #000000; stroke-width: 0.8"/>
      </g>
     </g>
     <g id="text_2">
      <!-- 1200 -->
      <g transform="translate(386.2575 686.958125) scale(0.12 -0.12)">
       <defs>
        <path id="DejaVuSans-32" d="M 1228 531 
L 3431 531 
L 3431 0 
L 469 0 
L 469 531 
Q 828 903 1448 1529 
Q 2069 2156 2228 2338 
Q 2531 2678 2651 2914 
Q 2772 3150 2772 3378 
Q 2772 3750 2511 3984 
Q 2250 4219 1831 4219 
Q 1534 4219 1204 4116 
Q 875 4013 500 3803 
L 500 4441 
Q 881 4594 1212 4672 
Q 1544 4750 1819 4750 
Q 2544 4750 2975 4387 
Q 3406 4025 3406 3419 
Q 3406 3131 3298 2873 
Q 3191 2616 2906 2266 
Q 2828 2175 2409 1742 
Q 1991 1309 1228 531 
z
" transform="scale(0.015625)"/>
       </defs>
       <use xlink:href="#DejaVuSans-31"/>
       <use xlink:href="#DejaVuSans-32" x="63.623047"/>
       <use xlink:href="#DejaVuSans-30" x="127.246094"/>
       <use xlink:href="#DejaVuSans-30" x="190.869141"/>
      </g>
     </g>
    </g>
    <g id="xtick_3">
     <g id="line2d_3">
      <g>
       <use xlink:href="#mf904a42160" x="629.899167" y="670.84" style="stroke: #000000; stroke-width: 0.8"/>
      </g>
     </g>
     <g id="text_3">
      <!-- 1300 -->
      <g transform="translate(614.629167 686.958125) scale(0.12 -0.12)">
       <defs>
        <path id="DejaVuSans-33" d="M 2597 2516 
Q 3050 2419 3304 2112 
Q 3559 1806 3559 1356 
Q 3559 666 3084 287 
Q 2609 -91 1734 -91 
Q 1441 -91 1130 -33 
Q 819 25 488 141 
L 488 750 
Q 750 597 1062 519 
Q 1375 441 1716 441 
Q 2309 441 2620 675 
Q 2931 909 2931 1356 
Q 2931 1769 2642 2001 
Q 2353 2234 1838 2234 
L 1294 2234 
L 1294 2753 
L 1863 2753 
Q 2328 2753 2575 2939 
Q 2822 3125 2822 3475 
Q 2822 3834 2567 4026 
Q 2313 4219 1838 4219 
Q 1578 4219 1281 4162 
Q 984 4106 628 3988 
L 628 4550 
Q 988 4650 1302 4700 
Q 1616 4750 1894 4750 
Q 2613 4750 3031 4423 
Q 3450 4097 3450 3541 
Q 3450 3153 3228 2886 
Q 3006 2619 2597 2516 
z
" transform="scale(0.015625)"/>
       </defs>
       <use xlink:href="#DejaVuSans-31"/>
       <use xlink:href="#DejaVuSans-33" x="63.623047"/>
       <use xlink:href="#DejaVuSans-30" x="127.246094"/>
       <use xlink:href="#DejaVuSans-30" x="190.869141"/>
      </g>
     </g>
    </g>
    <g id="xtick_4">
     <g id="line2d_4">
      <g>
       <use xlink:href="#mf904a42160" x="858.270833" y="670.84" style="stroke: #000000; stroke-width: 0.8"/>
      </g>
     </g>
     <g id="text_4">
      <!-- 1400 -->
      <g transform="translate(843.000833 686.958125) scale(0.12 -0.12)">
       <defs>
        <path id="DejaVuSans-34" d="M 2419 4116 
L 825 1625 
L 2419 1625 
L 2419 4116 
z
M 2253 4666 
L 3047 4666 
L 3047 1625 
L 3713 1625 
L 3713 1100 
L 3047 1100 
L 3047 0 
L 2419 0 
L 2419 1100 
L 313 1100 
L 313 1709 
L 2253 4666 
z
" transform="scale(0.015625)"/>
       </defs>
       <use xlink:href="#DejaVuSans-31"/>
       <use xlink:href="#DejaVuSans-34" x="63.623047"/>
       <use xlink:href="#DejaVuSans-30" x="127.246094"/>
       <use xlink:href="#DejaVuSans-30" x="190.869141"/>
      </g>
     </g>
    </g>
    <g id="xtick_5">
     <g id="line2d_5">
      <g>
       <use xlink:href="#mf904a42160" x="1086.6425" y="670.84" style="stroke: #000000; stroke-width: 0.8"/>
      </g>
     </g>
     <g id="text_5">
      <!-- 1500 -->
      <g transform="translate(1071.3725 686.958125) scale(0.12 -0.12)">
       <defs>
        <path id="DejaVuSans-35" d="M 691 4666 
L 3169 4666 
L 3169 4134 
L 1269 4134 
L 1269 2991 
Q 1406 3038 1543 3061 
Q 1681 3084 1819 3084 
Q 2600 3084 3056 2656 
Q 3513 2228 3513 1497 
Q 3513 744 3044 326 
Q 2575 -91 1722 -91 
Q 1428 -91 1123 -41 
Q 819 9 494 109 
L 494 744 
Q 775 591 1075 516 
Q 1375 441 1709 441 
Q 2250 441 2565 725 
Q 2881 1009 2881 1497 
Q 2881 1984 2565 2268 
Q 2250 2553 1709 2553 
Q 1456 2553 1204 2497 
Q 953 2441 691 2322 
L 691 4666 
z
" transform="scale(0.015625)"/>
       </defs>
       <use xlink:href="#DejaVuSans-31"/>
       <use xlink:href="#DejaVuSans-35" x="63.623047"/>
       <use xlink:href="#DejaVuSans-30" x="127.246094"/>
       <use xlink:href="#DejaVuSans-30" x="190.869141"/>
      </g>
     </g>
    </g>
    <g id="xtick_6">
     <g id="line2d_6">
      <g>
       <use xlink:href="#mf904a42160" x="1315.014167" y="670.84" style="stroke: #000000; stroke-width: 0.8"/>
      </g>
     </g>
     <g id="text_6">
      <!-- 1600 -->
      <g transform="translate(1299.744167 686.958125) scale(0.12 -0.12)">
       <defs>
        <path id="DejaVuSans-36" d="M 2113 2584 
Q 1688 2584 1439 2293 
Q 1191 2003 1191 1497 
Q 1191 994 1439 701 
Q 1688 409 2113 409 
Q 2538 409 2786 701 
Q 3034 994 3034 1497 
Q 3034 2003 2786 2293 
Q 2538 2584 2113 2584 
z
M 3366 4563 
L 3366 3988 
Q 3128 4100 2886 4159 
Q 2644 4219 2406 4219 
Q 1781 4219 1451 3797 
Q 1122 3375 1075 2522 
Q 1259 2794 1537 2939 
Q 1816 3084 2150 3084 
Q 2853 3084 3261 2657 
Q 3669 2231 3669 1497 
Q 3669 778 3244 343 
Q 2819 -91 2113 -91 
Q 1303 -91 875 529 
Q 447 1150 447 2328 
Q 447 3434 972 4092 
Q 1497 4750 2381 4750 
Q 2619 4750 2861 4703 
Q 3103 4656 3366 4563 
z
" transform="scale(0.015625)"/>
       </defs>
       <use xlink:href="#DejaVuSans-31"/>
       <use xlink:href="#DejaVuSans-36" x="63.623047"/>
       <use xlink:href="#DejaVuSans-30" x="127.246094"/>
       <use xlink:href="#DejaVuSans-30" x="190.869141"/>
      </g>
     </g>
    </g>
    <g id="text_7">
     <!-- Entropy, s [J/kg.K] -->
     <g transform="translate(672.41375 705.61125) scale(0.16 -0.16)">
      <defs>
       <path id="DejaVuSans-45" d="M 628 4666 
L 3578 4666 
L 3578 4134 
L 1259 4134 
L 1259 2753 
L 3481 2753 
L 3481 2222 
L 1259 2222 
L 1259 531 
L 3634 531 
L 3634 0 
L 628 0 
L 628 4666 
z
" transform="scale(0.015625)"/>
       <path id="DejaVuSans-6e" d="M 3513 2113 
L 3513 0 
L 2938 0 
L 2938 2094 
Q 2938 2591 2744 2837 
Q 2550 3084 2163 3084 
Q 1697 3084 1428 2787 
Q 1159 2491 1159 1978 
L 1159 0 
L 581 0 
L 581 3500 
L 1159 3500 
L 1159 2956 
Q 1366 3272 1645 3428 
Q 1925 3584 2291 3584 
Q 2894 3584 3203 3211 
Q 3513 2838 3513 2113 
z
" transform="scale(0.015625)"/>
       <path id="DejaVuSans-74" d="M 1172 4494 
L 1172 3500 
L 2356 3500 
L 2356 3053 
L 1172 3053 
L 1172 1153 
Q 1172 725 1289 603 
Q 1406 481 1766 481 
L 2356 481 
L 2356 0 
L 1766 0 
Q 1100 0 847 248 
Q 594 497 594 1153 
L 594 3053 
L 172 3053 
L 172 3500 
L 594 3500 
L 594 4494 
L 1172 4494 
z
" transform="scale(0.015625)"/>
       <path id="DejaVuSans-72" d="M 2631 2963 
Q 2534 3019 2420 3045 
Q 2306 3072 2169 3072 
Q 1681 3072 1420 2755 
Q 1159 2438 1159 1844 
L 1159 0 
L 581 0 
L 581 3500 
L 1159 3500 
L 1159 2956 
Q 1341 3275 1631 3429 
Q 1922 3584 2338 3584 
Q 2397 3584 2469 3576 
Q 2541 3569 2628 3553 
L 2631 2963 
z
" transform="scale(0.015625)"/>
       <path id="DejaVuSans-6f" d="M 1959 3097 
Q 1497 3097 1228 2736 
Q 959 2375 959 1747 
Q 959 1119 1226 758 
Q 1494 397 1959 397 
Q 2419 397 2687 759 
Q 2956 1122 2956 1747 
Q 2956 2369 2687 2733 
Q 2419 3097 1959 3097 
z
M 1959 3584 
Q 2709 3584 3137 3096 
Q 3566 2609 3566 1747 
Q 3566 888 3137 398 
Q 2709 -91 1959 -91 
Q 1206 -91 779 398 
Q 353 888 353 1747 
Q 353 2609 779 3096 
Q 1206 3584 1959 3584 
z
" transform="scale(0.015625)"/>
       <path id="DejaVuSans-70" d="M 1159 525 
L 1159 -1331 
L 581 -1331 
L 581 3500 
L 1159 3500 
L 1159 2969 
Q 1341 3281 1617 3432 
Q 1894 3584 2278 3584 
Q 2916 3584 3314 3078 
Q 3713 2572 3713 1747 
Q 3713 922 3314 415 
Q 2916 -91 2278 -91 
Q 1894 -91 1617 61 
Q 1341 213 1159 525 
z
M 3116 1747 
Q 3116 2381 2855 2742 
Q 2594 3103 2138 3103 
Q 1681 3103 1420 2742 
Q 1159 2381 1159 1747 
Q 1159 1113 1420 752 
Q 1681 391 2138 391 
Q 2594 391 2855 752 
Q 3116 1113 3116 1747 
z
" transform="scale(0.015625)"/>
       <path id="DejaVuSans-79" d="M 2059 -325 
Q 1816 -950 1584 -1140 
Q 1353 -1331 966 -1331 
L 506 -1331 
L 506 -850 
L 844 -850 
Q 1081 -850 1212 -737 
Q 1344 -625 1503 -206 
L 1606 56 
L 191 3500 
L 800 3500 
L 1894 763 
L 2988 3500 
L 3597 3500 
L 2059 -325 
z
" transform="scale(0.015625)"/>
       <path id="DejaVuSans-2c" d="M 750 794 
L 1409 794 
L 1409 256 
L 897 -744 
L 494 -744 
L 750 256 
L 750 794 
z
" transform="scale(0.015625)"/>
       <path id="DejaVuSans-20" transform="scale(0.015625)"/>
       <path id="DejaVuSans-73" d="M 2834 3397 
L 2834 2853 
Q 2591 2978 2328 3040 
Q 2066 3103 1784 3103 
Q 1356 3103 1142 2972 
Q 928 2841 928 2578 
Q 928 2378 1081 2264 
Q 1234 2150 1697 2047 
L 1894 2003 
Q 2506 1872 2764 1633 
Q 3022 1394 3022 966 
Q 3022 478 2636 193 
Q 2250 -91 1575 -91 
Q 1294 -91 989 -36 
Q 684 19 347 128 
L 347 722 
Q 666 556 975 473 
Q 1284 391 1588 391 
Q 1994 391 2212 530 
Q 2431 669 2431 922 
Q 2431 1156 2273 1281 
Q 2116 1406 1581 1522 
L 1381 1569 
Q 847 1681 609 1914 
Q 372 2147 372 2553 
Q 372 3047 722 3315 
Q 1072 3584 1716 3584 
Q 2034 3584 2315 3537 
Q 2597 3491 2834 3397 
z
" transform="scale(0.015625)"/>
       <path id="DejaVuSans-5b" d="M 550 4863 
L 1875 4863 
L 1875 4416 
L 1125 4416 
L 1125 -397 
L 1875 -397 
L 1875 -844 
L 550 -844 
L 550 4863 
z
" transform="scale(0.015625)"/>
       <path id="DejaVuSans-4a" d="M 628 4666 
L 1259 4666 
L 1259 325 
Q 1259 -519 939 -900 
Q 619 -1281 -91 -1281 
L -331 -1281 
L -331 -750 
L -134 -750 
Q 284 -750 456 -515 
Q 628 -281 628 325 
L 628 4666 
z
" transform="scale(0.015625)"/>
       <path id="DejaVuSans-2f" d="M 1625 4666 
L 2156 4666 
L 531 -594 
L 0 -594 
L 1625 4666 
z
" transform="scale(0.015625)"/>
       <path id="DejaVuSans-6b" d="M 581 4863 
L 1159 4863 
L 1159 1991 
L 2875 3500 
L 3609 3500 
L 1753 1863 
L 3688 0 
L 2938 0 
L 1159 1709 
L 1159 0 
L 581 0 
L 581 4863 
z
" transform="scale(0.015625)"/>
       <path id="DejaVuSans-67" d="M 2906 1791 
Q 2906 2416 2648 2759 
Q 2391 3103 1925 3103 
Q 1463 3103 1205 2759 
Q 947 2416 947 1791 
Q 947 1169 1205 825 
Q 1463 481 1925 481 
Q 2391 481 2648 825 
Q 2906 1169 2906 1791 
z
M 3481 434 
Q 3481 -459 3084 -895 
Q 2688 -1331 1869 -1331 
Q 1566 -1331 1297 -1286 
Q 1028 -1241 775 -1147 
L 775 -588 
Q 1028 -725 1275 -790 
Q 1522 -856 1778 -856 
Q 2344 -856 2625 -561 
Q 2906 -266 2906 331 
L 2906 616 
Q 2728 306 2450 153 
Q 2172 0 1784 0 
Q 1141 0 747 490 
Q 353 981 353 1791 
Q 353 2603 747 3093 
Q 1141 3584 1784 3584 
Q 2172 3584 2450 3431 
Q 2728 3278 2906 2969 
L 2906 3500 
L 3481 3500 
L 3481 434 
z
" transform="scale(0.015625)"/>
       <path id="DejaVuSans-2e" d="M 684 794 
L 1344 794 
L 1344 0 
L 684 0 
L 684 794 
z
" transform="scale(0.015625)"/>
       <path id="DejaVuSans-4b" d="M 628 4666 
L 1259 4666 
L 1259 2694 
L 3353 4666 
L 4166 4666 
L 1850 2491 
L 4331 0 
L 3500 0 
L 1259 2247 
L 1259 0 
L 628 0 
L 628 4666 
z
" transform="scale(0.015625)"/>
       <path id="DejaVuSans-5d" d="M 1947 4863 
L 1947 -844 
L 622 -844 
L 622 -397 
L 1369 -397 
L 1369 4416 
L 622 4416 
L 622 4863 
L 1947 4863 
z
" transform="scale(0.015625)"/>
      </defs>
      <use xlink:href="#DejaVuSans-45"/>
      <use xlink:href="#DejaVuSans-6e" x="63.183594"/>
      <use xlink:href="#DejaVuSans-74" x="126.5625"/>
      <use xlink:href="#DejaVuSans-72" x="165.771484"/>
      <use xlink:href="#DejaVuSans-6f" x="204.634766"/>
      <use xlink:href="#DejaVuSans-70" x="265.816406"/>
      <use xlink:href="#DejaVuSans-79" x="329.292969"/>
      <use xlink:href="#DejaVuSans-2c" x="388.472656"/>
      <use xlink:href="#DejaVuSans-20" x="420.259766"/>
      <use xlink:href="#DejaVuSans-73" x="452.046875"/>
      <use xlink:href="#DejaVuSans-20" x="504.146484"/>
      <use xlink:href="#DejaVuSans-5b" x="535.933594"/>
      <use xlink:href="#DejaVuSans-4a" x="574.947266"/>
      <use xlink:href="#DejaVuSans-2f" x="604.439453"/>
      <use xlink:href="#DejaVuSans-6b" x="638.130859"/>
      <use xlink:href="#DejaVuSans-67" x="696.041016"/>
      <use xlink:href="#DejaVuSans-2e" x="759.517578"/>
      <use xlink:href="#DejaVuSans-4b" x="791.304688"/>
      <use xlink:href="#DejaVuSans-5d" x="856.880859"/>
     </g>
    </g>
   </g>
   <g id="matplotlib.axis_2">
    <g id="ytick_1">
     <g id="line2d_7">
      <defs>
       <path id="mf569735226" d="M 0 0 
L -3.5 0 
" style="stroke: #000000; stroke-width: 0.8"/>
      </defs>
      <g>
       <use xlink:href="#mf569735226" x="58.97" y="607.02" style="stroke: #000000; stroke-width: 0.8"/>
      </g>
     </g>
     <g id="text_8">
      <!-- 20 -->
      <g transform="translate(36.7 611.579062) scale(0.12 -0.12)">
       <use xlink:href="#DejaVuSans-32"/>
       <use xlink:href="#DejaVuSans-30" x="63.623047"/>
      </g>
     </g>
    </g>
    <g id="ytick_2">
     <g id="line2d_8">
      <g>
       <use xlink:href="#mf569735226" x="58.97" y="479.38" style="stroke: #000000; stroke-width: 0.8"/>
      </g>
     </g>
     <g id="text_9">
      <!-- 40 -->
      <g transform="translate(36.7 483.939062) scale(0.12 -0.12)">
       <use xlink:href="#DejaVuSans-34"/>
       <use xlink:href="#DejaVuSans-30" x="63.623047"/>
      </g>
     </g>
    </g>
    <g id="ytick_3">
     <g id="line2d_9">
      <g>
       <use xlink:href="#mf569735226" x="58.97" y="351.74" style="stroke: #000000; stroke-width: 0.8"/>
      </g>
     </g>
     <g id="text_10">
      <!-- 60 -->
      <g transform="translate(36.7 356.299062) scale(0.12 -0.12)">
       <use xlink:href="#DejaVuSans-36"/>
       <use xlink:href="#DejaVuSans-30" x="63.623047"/>
      </g>
     </g>
    </g>
    <g id="ytick_4">
     <g id="line2d_10">
      <g>
       <use xlink:href="#mf569735226" x="58.97" y="224.1" style="stroke: #000000; stroke-width: 0.8"/>
      </g>
     </g>
     <g id="text_11">
      <!-- 80 -->
      <g transform="translate(36.7 228.659062) scale(0.12 -0.12)">
       <defs>
        <path id="DejaVuSans-38" d="M 2034 2216 
Q 1584 2216 1326 1975 
Q 1069 1734 1069 1313 
Q 1069 891 1326 650 
Q 1584 409 2034 409 
Q 2484 409 2743 651 
Q 3003 894 3003 1313 
Q 3003 1734 2745 1975 
Q 2488 2216 2034 2216 
z
M 1403 2484 
Q 997 2584 770 2862 
Q 544 3141 544 3541 
Q 544 4100 942 4425 
Q 1341 4750 2034 4750 
Q 2731 4750 3128 4425 
Q 3525 4100 3525 3541 
Q 3525 3141 3298 2862 
Q 3072 2584 2669 2484 
Q 3125 2378 3379 2068 
Q 3634 1759 3634 1313 
Q 3634 634 3220 271 
Q 2806 -91 2034 -91 
Q 1263 -91 848 271 
Q 434 634 434 1313 
Q 434 1759 690 2068 
Q 947 2378 1403 2484 
z
M 1172 3481 
Q 1172 3119 1398 2916 
Q 1625 2713 2034 2713 
Q 2441 2713 2670 2916 
Q 2900 3119 2900 3481 
Q 2900 3844 2670 4047 
Q 2441 4250 2034 4250 
Q 1625 4250 1398 4047 
Q 1172 3844 1172 3481 
z
" transform="scale(0.015625)"/>
       </defs>
       <use xlink:href="#DejaVuSans-38"/>
       <use xlink:href="#DejaVuSans-30" x="63.623047"/>
      </g>
     </g>
    </g>
    <g id="ytick_5">
     <g id="line2d_11">
      <g>
       <use xlink:href="#mf569735226" x="58.97" y="96.46" style="stroke: #000000; stroke-width: 0.8"/>
      </g>
     </g>
     <g id="text_12">
      <!-- 100 -->
      <g transform="translate(29.065 101.019062) scale(0.12 -0.12)">
       <use xlink:href="#DejaVuSans-31"/>
       <use xlink:href="#DejaVuSans-30" x="63.623047"/>
       <use xlink:href="#DejaVuSans-30" x="127.246094"/>
      </g>
     </g>
    </g>
    <g id="text_13">
     <!-- Temperature, T [oC] -->
     <g transform="translate(21.7375 431.64875) rotate(-90) scale(0.16 -0.16)">
      <defs>
       <path id="DejaVuSans-54" d="M -19 4666 
L 3928 4666 
L 3928 4134 
L 2272 4134 
L 2272 0 
L 1638 0 
L 1638 4134 
L -19 4134 
L -19 4666 
z
" transform="scale(0.015625)"/>
       <path id="DejaVuSans-65" d="M 3597 1894 
L 3597 1613 
L 953 1613 
Q 991 1019 1311 708 
Q 1631 397 2203 397 
Q 2534 397 2845 478 
Q 3156 559 3463 722 
L 3463 178 
Q 3153 47 2828 -22 
Q 2503 -91 2169 -91 
Q 1331 -91 842 396 
Q 353 884 353 1716 
Q 353 2575 817 3079 
Q 1281 3584 2069 3584 
Q 2775 3584 3186 3129 
Q 3597 2675 3597 1894 
z
M 3022 2063 
Q 3016 2534 2758 2815 
Q 2500 3097 2075 3097 
Q 1594 3097 1305 2825 
Q 1016 2553 972 2059 
L 3022 2063 
z
" transform="scale(0.015625)"/>
       <path id="DejaVuSans-6d" d="M 3328 2828 
Q 3544 3216 3844 3400 
Q 4144 3584 4550 3584 
Q 5097 3584 5394 3201 
Q 5691 2819 5691 2113 
L 5691 0 
L 5113 0 
L 5113 2094 
Q 5113 2597 4934 2840 
Q 4756 3084 4391 3084 
Q 3944 3084 3684 2787 
Q 3425 2491 3425 1978 
L 3425 0 
L 2847 0 
L 2847 2094 
Q 2847 2600 2669 2842 
Q 2491 3084 2119 3084 
Q 1678 3084 1418 2786 
Q 1159 2488 1159 1978 
L 1159 0 
L 581 0 
L 581 3500 
L 1159 3500 
L 1159 2956 
Q 1356 3278 1631 3431 
Q 1906 3584 2284 3584 
Q 2666 3584 2933 3390 
Q 3200 3197 3328 2828 
z
" transform="scale(0.015625)"/>
       <path id="DejaVuSans-61" d="M 2194 1759 
Q 1497 1759 1228 1600 
Q 959 1441 959 1056 
Q 959 750 1161 570 
Q 1363 391 1709 391 
Q 2188 391 2477 730 
Q 2766 1069 2766 1631 
L 2766 1759 
L 2194 1759 
z
M 3341 1997 
L 3341 0 
L 2766 0 
L 2766 531 
Q 2569 213 2275 61 
Q 1981 -91 1556 -91 
Q 1019 -91 701 211 
Q 384 513 384 1019 
Q 384 1609 779 1909 
Q 1175 2209 1959 2209 
L 2766 2209 
L 2766 2266 
Q 2766 2663 2505 2880 
Q 2244 3097 1772 3097 
Q 1472 3097 1187 3025 
Q 903 2953 641 2809 
L 641 3341 
Q 956 3463 1253 3523 
Q 1550 3584 1831 3584 
Q 2591 3584 2966 3190 
Q 3341 2797 3341 1997 
z
" transform="scale(0.015625)"/>
       <path id="DejaVuSans-75" d="M 544 1381 
L 544 3500 
L 1119 3500 
L 1119 1403 
Q 1119 906 1312 657 
Q 1506 409 1894 409 
Q 2359 409 2629 706 
Q 2900 1003 2900 1516 
L 2900 3500 
L 3475 3500 
L 3475 0 
L 2900 0 
L 2900 538 
Q 2691 219 2414 64 
Q 2138 -91 1772 -91 
Q 1169 -91 856 284 
Q 544 659 544 1381 
z
M 1991 3584 
L 1991 3584 
z
" transform="scale(0.015625)"/>
       <path id="DejaVuSans-43" d="M 4122 4306 
L 4122 3641 
Q 3803 3938 3442 4084 
Q 3081 4231 2675 4231 
Q 1875 4231 1450 3742 
Q 1025 3253 1025 2328 
Q 1025 1406 1450 917 
Q 1875 428 2675 428 
Q 3081 428 3442 575 
Q 3803 722 4122 1019 
L 4122 359 
Q 3791 134 3420 21 
Q 3050 -91 2638 -91 
Q 1578 -91 968 557 
Q 359 1206 359 2328 
Q 359 3453 968 4101 
Q 1578 4750 2638 4750 
Q 3056 4750 3426 4639 
Q 3797 4528 4122 4306 
z
" transform="scale(0.015625)"/>
      </defs>
      <use xlink:href="#DejaVuSans-54"/>
      <use xlink:href="#DejaVuSans-65" x="44.083984"/>
      <use xlink:href="#DejaVuSans-6d" x="105.607422"/>
      <use xlink:href="#DejaVuSans-70" x="203.019531"/>
      <use xlink:href="#DejaVuSans-65" x="266.496094"/>
      <use xlink:href="#DejaVuSans-72" x="328.019531"/>
      <use xlink:href="#DejaVuSans-61" x="369.132812"/>
      <use xlink:href="#DejaVuSans-74" x="430.412109"/>
      <use xlink:href="#DejaVuSans-75" x="469.621094"/>
      <use xlink:href="#DejaVuSans-72" x="533"/>
      <use xlink:href="#DejaVuSans-65" x="571.863281"/>
      <use xlink:href="#DejaVuSans-2c" x="633.386719"/>
      <use xlink:href="#DejaVuSans-20" x="665.173828"/>
      <use xlink:href="#DejaVuSans-54" x="696.960938"/>
      <use xlink:href="#DejaVuSans-20" x="758.044922"/>
      <use xlink:href="#DejaVuSans-5b" x="789.832031"/>
      <use xlink:href="#DejaVuSans-6f" x="828.845703"/>
      <use xlink:href="#DejaVuSans-43" x="890.027344"/>
      <use xlink:href="#DejaVuSans-5d" x="959.851562"/>
     </g>
    </g>
   </g>
   <g id="line2d_12">
    <path d="M -1 700.211239 
L 60.74369 663.339751 
L 148.924474 610.449136 
L 229.510865 562.05024 
L 303.059437 517.96252 
L 360.073956 483.954343 
L 360.296486 483.954343 
L 361.748586 483.954343 
L 363.238095 483.954343 
L 364.765977 483.954343 
L 366.333219 483.954343 
L 367.940837 483.954343 
L 369.58987 483.954343 
L 371.281386 483.954343 
L 373.016477 483.954343 
L 374.796268 483.954343 
L 376.62191 483.954343 
L 378.494584 483.954343 
L 380.415502 483.954343 
L 382.385905 483.954343 
L 384.407071 483.954343 
L 386.480305 483.954343 
L 388.60695 483.954343 
L 390.788381 483.954343 
L 393.026009 483.954343 
L 395.321284 483.954343 
L 397.675689 483.954343 
L 400.090747 483.954343 
L 402.568023 483.954343 
L 405.109117 483.954343 
L 407.715675 483.954343 
L 410.389383 483.954343 
L 413.131971 483.954343 
L 415.945212 483.954343 
L 418.830929 483.954343 
L 421.790986 483.954343 
L 424.827301 483.954343 
L 427.941836 483.954343 
L 431.136608 483.954343 
L 434.413683 483.954343 
L 437.775182 483.954343 
L 441.223279 483.954343 
L 444.760206 483.954343 
L 448.388251 483.954343 
L 452.109761 483.954343 
L 455.927144 483.954343 
L 459.84287 483.954343 
L 463.859473 483.954343 
L 467.97955 483.954343 
L 472.205769 483.954343 
L 476.540863 483.954343 
L 480.987638 483.954343 
L 485.548969 483.954343 
L 490.227809 483.954343 
L 495.027185 483.954343 
L 499.950202 483.954343 
L 505.000045 483.954343 
L 510.179982 483.954343 
L 515.493363 483.954343 
L 520.943627 483.954343 
L 526.5343 483.954343 
L 532.269 483.954343 
L 538.151436 483.954343 
L 544.185415 483.954343 
L 550.37484 483.954343 
L 556.723717 483.954343 
L 563.236152 483.954343 
L 569.916361 483.954343 
L 576.768664 483.954343 
L 583.797495 483.954343 
L 591.007403 483.954343 
L 598.403051 483.954343 
L 605.989224 483.954343 
L 613.770832 483.954343 
L 621.752909 483.954343 
L 629.94062 483.954343 
L 638.339261 483.954343 
L 646.954267 483.954343 
L 655.791211 483.954343 
L 664.855812 483.954343 
L 674.153935 483.954343 
L 683.691594 483.954343 
L 693.474962 483.954343 
L 703.510367 483.954343 
L 713.804303 483.954343 
L 724.363431 483.954343 
L 735.194582 483.954343 
L 746.304763 483.954343 
L 757.701164 483.954343 
L 769.391157 483.954343 
L 781.382307 483.954343 
L 793.682371 483.954343 
L 806.299308 483.954343 
L 819.241282 483.954343 
L 832.516664 483.954343 
L 846.134046 483.954343 
L 860.102237 483.954343 
L 886.529376 483.954343 
L 914.212229 483.954343 
L 943.210465 483.954343 
L 973.586584 483.954343 
L 1005.406059 483.954343 
L 1038.737472 483.954343 
L 1073.652665 483.954343 
L 1110.226893 483.954343 
L 1148.538986 483.954343 
L 1188.671522 483.954343 
L 1230.711 483.954343 
L 1274.748032 483.954343 
L 1320.877533 483.954343 
L 1331.831654 483.954343 
L 1372.040148 453.177559 
L 1427.911504 408.796212 
L 1441 397.993347 
" clip-path="url(#pcff4090afa)" style="fill: none; stroke-dasharray: 3.2,0.8,0.5,0.8; stroke-dashoffset: 0; stroke: #363636; stroke-width: 0.5"/>
   </g>
   <g id="line2d_13">
    <path d="M -1 696.980917 
L 72.564689 652.734175 
L 161.772169 598.777314 
L 243.469708 549.22571 
L 318.22109 503.895098 
L 386.546584 462.604868 
L 448.895927 425.200448 
L 505.645043 391.552602 
L 557.120437 361.536706 
L 603.630945 335.010881 
L 645.487261 311.80664 
L 677.780773 294.478622 
L 678.19146 294.478622 
L 681.043228 294.478622 
L 683.968462 294.478622 
L 686.969055 294.478622 
L 690.04695 294.478622 
L 693.204137 294.478622 
L 696.442659 294.478622 
L 699.764612 294.478622 
L 703.172144 294.478622 
L 706.667461 294.478622 
L 710.252824 294.478622 
L 713.930552 294.478622 
L 717.703026 294.478622 
L 721.572685 294.478622 
L 725.542035 294.478622 
L 729.613642 294.478622 
L 733.790141 294.478622 
L 738.074235 294.478622 
L 742.468696 294.478622 
L 746.976366 294.478622 
L 751.600162 294.478622 
L 756.343076 294.478622 
L 761.208176 294.478622 
L 766.19861 294.478622 
L 771.317607 294.478622 
L 776.56848 294.478622 
L 781.954624 294.478622 
L 787.479526 294.478622 
L 793.14676 294.478622 
L 798.959992 294.478622 
L 804.922984 294.478622 
L 811.039595 294.478622 
L 817.31378 294.478622 
L 823.7496 294.478622 
L 830.35122 294.478622 
L 837.122909 294.478622 
L 844.06905 294.478622 
L 851.194136 294.478622 
L 858.502779 294.478622 
L 865.999705 294.478622 
L 873.689767 294.478622 
L 881.577939 294.478622 
L 889.669325 294.478622 
L 897.96916 294.478622 
L 906.482815 294.478622 
L 915.215798 294.478622 
L 924.173759 294.478622 
L 933.362494 294.478622 
L 942.787948 294.478622 
L 952.456219 294.478622 
L 962.373563 294.478622 
L 972.546397 294.478622 
L 982.981302 294.478622 
L 993.68503 294.478622 
L 1004.664506 294.478622 
L 1015.926834 294.478622 
L 1027.479301 294.478622 
L 1039.329381 294.478622 
L 1051.484741 294.478622 
L 1063.953247 294.478622 
L 1076.742965 294.478622 
L 1089.86217 294.478622 
L 1103.31935 294.478622 
L 1117.123213 294.478622 
L 1131.282689 294.478622 
L 1145.80694 294.478622 
L 1160.705363 294.478622 
L 1175.987598 294.478622 
L 1191.663532 294.478622 
L 1207.743307 294.478622 
L 1224.237328 294.478622 
L 1241.156265 294.478622 
L 1258.511067 294.478622 
L 1276.31296 294.478622 
L 1294.573464 294.478622 
L 1313.304394 294.478622 
L 1331.50701 294.478622 
L 1332.441136 293.94789 
L 1350.873303 283.180163 
L 1370.204154 271.32618 
L 1390.462742 258.348453 
L 1411.678208 244.208952 
L 1433.879816 228.868841 
" clip-path="url(#pcff4090afa)" style="fill: none; stroke-dasharray: 3.2,0.8,0.5,0.8; stroke-dashoffset: 0; stroke: #363636; stroke-width: 0.5"/>
   </g>
   <g id="line2d_14">
    <path d="M -1 693.8297 
L 84.338139 642.139476 
L 174.561147 587.119935 
L 257.356093 536.420646 
L 333.291861 489.854853 
L 402.88812 447.243037 
L 466.594589 408.429435 
L 524.796635 373.275342 
L 577.842964 341.638026 
L 626.073336 313.353761 
L 669.831421 288.234137 
L 709.462966 266.072922 
L 745.306804 246.656607 
L 777.685511 229.773582 
L 806.899127 215.219958 
L 833.222591 202.802093 
L 856.906195 192.33678 
L 878.177957 183.650134 
L 897.246968 176.575967 
L 914.307131 170.954118 
L 921.692228 168.766716 
L 924.277828 168.766716 
L 929.257482 168.766716 
L 934.365421 168.766716 
L 939.604949 168.766716 
L 944.979458 168.766716 
L 950.492425 168.766716 
L 956.147416 168.766716 
L 961.94809 168.766716 
L 967.8982 168.766716 
L 974.001597 168.766716 
L 980.262228 168.766716 
L 986.684145 168.766716 
L 993.271503 168.766716 
L 1000.028563 168.766716 
L 1006.959698 168.766716 
L 1014.069393 168.766716 
L 1021.362246 168.766716 
L 1028.842977 168.766716 
L 1036.516426 168.766716 
L 1044.387557 168.766716 
L 1052.461463 168.766716 
L 1060.743369 168.766716 
L 1069.238631 168.766716 
L 1077.952748 168.766716 
L 1086.891357 168.766716 
L 1096.060242 168.766716 
L 1105.465334 168.766716 
L 1115.112719 168.766716 
L 1125.008638 168.766716 
L 1135.159496 168.766716 
L 1145.571858 168.766716 
L 1156.252463 168.766716 
L 1167.20822 168.766716 
L 1178.446218 168.766716 
L 1189.973728 168.766716 
L 1201.798209 168.766716 
L 1213.92731 168.766716 
L 1226.36888 168.766716 
L 1239.130968 168.766716 
L 1252.221832 168.766716 
L 1265.649941 168.766716 
L 1271.99162 168.766716 
L 1277.883539 167.421321 
L 1289.165386 164.55775 
L 1300.859863 161.202285 
L 1312.996263 157.320132 
L 1325.604401 152.87607 
L 1338.714596 147.834411 
L 1352.357645 142.158939 
L 1366.564815 135.812822 
L 1381.367817 128.75852 
L 1396.7988 120.957663 
L 1412.890323 112.370945 
L 1429.675334 102.958008 
" clip-path="url(#pcff4090afa)" style="fill: none; stroke-dasharray: 3.2,0.8,0.5,0.8; stroke-dashoffset: 0; stroke: #363636; stroke-width: 0.5"/>
   </g>
   <g id="line2d_15">
    <path d="M -1 690.755369 
L 96.06603 631.554495 
L 187.29417 575.475437 
L 271.173712 523.632966 
L 348.276993 475.83868 
L 419.122473 431.913974 
L 484.160733 391.700881 
L 543.786891 355.051374 
L 598.36847 321.808069 
L 648.267354 291.792765 
L 693.84617 264.807524 
L 735.463026 240.643244 
L 773.462625 219.089116 
L 808.169304 199.939283 
L 839.883841 182.996051 
L 868.883522 168.070554 
L 895.42412 154.982187 
L 919.742545 143.557806 
L 942.05934 133.631235 
L 962.580663 125.043236 
L 981.499706 117.641862 
L 998.997601 111.283056 
L 1015.243949 105.831355 
L 1030.397049 101.160582 
L 1044.603918 97.154472 
L 1058.000141 93.707157 
L 1070.70966 90.723494 
L 1082.844553 88.119152 
L 1094.504925 85.82045 
L 1105.779004 83.7639 
L 1116.743495 81.895463 
L 1127.464249 80.169571 
L 1137.997195 78.54795 
L 1148.389504 76.998364 
L 1158.680884 75.493342 
L 1168.904912 74.00898 
L 1179.090329 72.523863 
L 1189.26222 71.018149 
L 1199.443056 69.472826 
L 1209.653558 67.869125 
L 1219.913408 66.188087 
L 1230.241799 64.41025 
L 1240.657859 62.515433 
L 1251.180955 60.482602 
L 1261.830914 58.289785 
L 1272.628177 55.91403 
L 1283.593891 53.331384 
L 1294.74997 50.51689 
L 1306.119128 47.444584 
L 1317.724888 44.087504 
L 1329.591584 40.417681 
L 1341.744352 36.406136 
L 1354.209117 32.022863 
" clip-path="url(#pcff4090afa)" style="fill: none; stroke-dasharray: 3.2,0.8,0.5,0.8; stroke-dashoffset: 0; stroke: #363636; stroke-width: 0.5"/>
   </g>
   <g id="line2d_16">
    <path d="M 34.671332 680.945737 
L 71.009831 659.116984 
L 107.252195 637.28823 
L 143.4083 615.459477 
L 179.488526 593.630724 
L 215.504001 571.80197 
L 251.467027 549.973217 
L 287.391753 528.144463 
L 323.295078 506.31571 
L 359.197747 484.486956 
L 395.125541 462.658203 
L 431.1104 440.829449 
L 467.19142 419.000696 
L 503.415733 397.171942 
L 539.839473 375.343189 
L 576.529268 353.514435 
L 613.564904 331.685682 
L 651.044225 309.856928 
L 689.092033 288.028175 
L 727.876367 266.199421 
L 767.639308 244.370668 
L 808.758849 222.541914 
L 851.886479 200.713161 
L 855.576748 198.9073 
L 859.289739 197.10144 
L 863.026543 195.295579 
L 866.78833 193.489719 
L 870.576363 191.683858 
L 874.392005 189.877998 
L 878.236729 188.072137 
L 882.112136 186.266277 
L 886.019963 184.460416 
L 889.962106 182.654556 
L 893.940639 180.848695 
L 897.957834 179.042835 
L 902.016195 177.236974 
L 906.118484 175.431113 
L 910.267765 173.625253 
L 914.467449 171.819392 
L 918.721353 170.013532 
L 923.033765 168.207671 
L 927.409534 166.401811 
L 931.85417 164.59595 
L 936.373984 162.79009 
L 940.976249 160.984229 
L 945.669421 159.178369 
L 950.46342 157.372508 
L 955.370002 155.566648 
L 960.403267 153.760787 
L 965.580352 151.954926 
L 970.922413 150.149066 
L 976.456049 148.343205 
L 982.215432 146.537345 
L 988.245629 144.731484 
L 994.608012 142.925624 
L 1001.389634 141.119763 
L 1008.720677 139.313903 
L 1016.810379 137.508042 
L 1026.03205 135.702182 
L 1037.172516 133.896321 
L 1052.517835 132.090461 
L 1106.617387 130.2846 
" clip-path="url(#pcff4090afa)" style="fill: none; stroke: #363636; stroke-width: 0.5; stroke-linecap: square"/>
   </g>
   <g id="line2d_17">
    <path d="M 1313.72888 680.945737 
L 1315.560249 659.116984 
L 1317.523125 637.28823 
L 1319.581299 615.459477 
L 1321.697811 593.630724 
L 1323.834893 571.80197 
L 1325.953787 549.973217 
L 1328.014381 528.144463 
L 1329.974608 506.31571 
L 1331.789587 484.486956 
L 1333.410483 462.658203 
L 1334.783044 440.829449 
L 1335.845737 419.000696 
L 1336.527353 397.171942 
L 1336.743809 375.343189 
L 1336.393721 353.514435 
L 1335.351977 331.685682 
L 1333.460022 309.856928 
L 1330.51041 288.028175 
L 1326.220894 266.199421 
L 1320.187981 244.370668 
L 1311.796034 222.541914 
L 1300.01632 200.713161 
L 1298.839933 198.9073 
L 1297.626565 197.10144 
L 1296.374566 195.295579 
L 1295.082165 193.489719 
L 1293.747459 191.683858 
L 1292.368395 189.877998 
L 1290.942757 188.072137 
L 1289.468147 186.266277 
L 1287.941962 184.460416 
L 1286.361367 182.654556 
L 1284.723271 180.848695 
L 1283.02429 179.042835 
L 1281.260705 177.236974 
L 1279.42842 175.431113 
L 1277.5229 173.625253 
L 1275.539109 171.819392 
L 1273.471427 170.013532 
L 1271.31355 168.207671 
L 1269.058372 166.401811 
L 1266.697834 164.59595 
L 1264.22274 162.79009 
L 1261.622519 160.984229 
L 1258.884921 159.178369 
L 1255.995633 157.372508 
L 1252.93775 155.566648 
L 1249.691091 153.760787 
L 1246.231238 151.954926 
L 1242.528206 150.149066 
L 1238.544512 148.343205 
L 1234.232312 146.537345 
L 1229.528971 144.731484 
L 1224.3499 142.925624 
L 1218.576273 141.119763 
L 1212.032401 139.313903 
L 1204.43974 137.508042 
L 1195.309737 135.702182 
L 1183.635652 133.896321 
L 1166.589967 132.090461 
L 1106.617387 130.2846 
" clip-path="url(#pcff4090afa)" style="fill: none; stroke: #363636; stroke-width: 0.5; stroke-linecap: square"/>
   </g>
   <g id="line2d_18">
    <path d="M 211.923841 573.973436 
L 211.979314 573.840228 
L 212.034787 573.706991 
L 212.09026 573.573726 
L 212.145734 573.440432 
L 212.201207 573.307109 
L 212.25668 573.173757 
L 212.312153 573.040376 
L 212.367626 572.906967 
L 212.423099 572.773529 
L 212.478572 572.640062 
L 212.534045 572.506566 
L 212.589518 572.373041 
L 212.644991 572.239488 
L 212.700464 572.105906 
L 212.755938 571.972295 
L 212.811411 571.838655 
L 212.866884 571.704987 
L 212.922357 571.57129 
L 212.97783 571.437564 
L 213.033303 571.303809 
L 213.088776 571.170026 
L 213.144249 571.036214 
L 213.199722 570.902373 
L 213.255195 570.768503 
L 213.310669 570.634605 
L 213.366142 570.500677 
L 213.421615 570.366722 
L 213.477088 570.232737 
L 213.532561 570.098724 
L 213.588034 569.964682 
L 213.643507 569.830611 
L 213.69898 569.696512 
L 213.754453 569.562383 
L 213.809926 569.428227 
L 213.865399 569.294041 
L 213.920873 569.159827 
L 213.976346 569.025584 
L 214.031819 568.891313 
L 214.087292 568.757012 
L 214.142765 568.622683 
L 214.198238 568.488326 
L 214.253711 568.35394 
L 214.309184 568.219525 
L 214.364657 568.085081 
L 214.42013 567.950609 
L 214.475603 567.816108 
L 214.531077 567.681579 
L 214.58655 567.547021 
L 214.642023 567.412434 
L 214.697496 567.277819 
L 214.752969 567.143174 
L 214.808442 567.008502 
L 214.863915 566.873801 
L 214.919388 566.739071 
L 214.974861 566.604312 
L 215.030334 566.469525 
L 215.085808 566.334709 
L 215.141281 566.199865 
L 215.196754 566.064992 
L 215.252227 565.930091 
L 215.3077 565.795161 
L 215.363173 565.660202 
L 215.418646 565.525215 
L 215.474119 565.390199 
L 215.529592 565.255154 
L 215.585065 565.120081 
L 215.640538 564.98498 
L 215.696012 564.84985 
L 215.751485 564.714691 
L 215.806958 564.579504 
L 215.862431 564.444288 
L 215.917904 564.309044 
L 215.973377 564.173771 
L 216.02885 564.03847 
L 216.084323 563.90314 
L 216.139796 563.767781 
L 216.195269 563.632394 
L 216.250743 563.496979 
L 216.306216 563.361535 
L 216.361689 563.226062 
L 216.417162 563.090561 
L 216.472635 562.955032 
L 216.528108 562.819474 
L 216.583581 562.683887 
L 216.639054 562.548272 
L 216.694527 562.412628 
L 216.75 562.276956 
L 216.805473 562.141256 
L 216.860947 562.005527 
L 216.91642 561.869769 
L 216.971893 561.733983 
L 217.027366 561.598169 
L 217.082839 561.462326 
L 217.138312 561.326455 
L 217.193785 561.190555 
L 217.249258 561.054627 
L 217.304731 560.91867 
L 217.360204 560.782685 
L 217.415678 560.646671 
" clip-path="url(#pcff4090afa)" style="fill: none; stroke: #ff0000; stroke-width: 2; stroke-linecap: square"/>
   </g>
   <g id="line2d_19">
    <path d="M 217.415678 560.646671 
L 266.93929 530.279201 
L 313.905104 501.458824 
L 358.434813 474.14339 
L 400.640309 448.294146 
L 440.622894 423.876107 
L 478.474307 400.856998 
L 514.279136 379.205321 
L 548.117737 358.888286 
L 580.068805 339.870248 
L 610.211088 322.111938 
L 638.624107 305.570479 
L 665.388054 290.199965 
L 690.583163 275.952355 
L 714.288833 262.778441 
L 736.582735 250.628742 
L 757.540049 239.454221 
L 777.232892 229.206807 
L 795.729961 219.839727 
L 813.096374 211.307673 
L 829.393677 203.56684 
L 844.679969 196.574882 
L 859.010126 190.290804 
L 872.436065 184.674837 
L 885.007057 179.688289 
L 896.770033 175.293411 
L 907.769912 171.453266 
L 918.049913 168.131609 
L 927.651876 165.292781 
L 935.161524 163.271427 
L 935.663708 163.278587 
L 938.696777 163.321806 
L 941.776762 163.365711 
L 944.904374 163.410311 
L 948.080338 163.45562 
L 951.305388 163.501647 
L 954.580268 163.548405 
L 957.905734 163.595905 
L 961.282551 163.644158 
L 964.711498 163.693178 
L 968.193364 163.742976 
L 971.728949 163.793564 
L 975.319065 163.844956 
L 978.964536 163.897164 
L 982.666197 163.950202 
L 986.424895 164.004082 
L 990.241491 164.058819 
L 994.116857 164.114425 
L 998.051878 164.170916 
L 1002.04745 164.228304 
L 1006.104485 164.286605 
L 1010.223904 164.345833 
L 1014.406646 164.406004 
L 1018.653658 164.467131 
L 1022.965905 164.529231 
L 1027.344364 164.59232 
L 1031.790024 164.656412 
L 1036.303891 164.721525 
L 1040.886983 164.787675 
L 1045.540334 164.854878 
L 1050.264992 164.923152 
L 1055.062017 164.992514 
L 1059.932489 165.062981 
L 1064.877499 165.134571 
L 1069.898155 165.207302 
L 1074.995579 165.281193 
L 1080.17091 165.356263 
L 1085.425303 165.43253 
L 1090.759927 165.510013 
L 1096.175969 165.588734 
L 1101.674631 165.668711 
L 1107.257132 165.749965 
L 1112.924709 165.832516 
L 1118.678614 165.916386 
L 1124.520116 166.001596 
L 1130.450502 166.088168 
L 1136.471077 166.176124 
L 1142.583163 166.265486 
L 1148.788099 166.356277 
L 1155.087243 166.448521 
L 1161.481971 166.54224 
L 1167.973677 166.63746 
L 1174.563774 166.734204 
L 1181.253694 166.832497 
L 1188.044886 166.932365 
L 1194.93882 167.033832 
L 1201.936985 167.136927 
L 1209.040889 167.241673 
L 1216.252061 167.3481 
L 1223.572048 167.456234 
L 1231.002417 167.566103 
L 1238.544757 167.677736 
L 1246.200676 167.791161 
L 1253.971803 167.906408 
L 1261.859789 168.023506 
L 1269.866302 168.142486 
L 1271.259164 168.16316 
L 1276.619468 167.084698 
L 1283.217199 165.637442 
L 1289.952361 164.025771 
L 1296.831039 162.242399 
L 1303.859374 160.28 
" clip-path="url(#pcff4090afa)" style="fill: none; stroke: #ff0000; stroke-width: 2; stroke-linecap: square"/>
   </g>
   <g id="line2d_20">
    <path d="M 1303.859374 160.28 
L 1304.037849 165.132013 
L 1304.216325 169.971502 
L 1304.3948 174.798428 
L 1304.573275 179.612734 
L 1304.751751 184.414345 
L 1304.930226 189.203177 
L 1305.108701 193.979134 
L 1305.287176 198.74211 
L 1305.465652 203.491992 
L 1305.644127 208.228664 
L 1305.822602 212.462674 
L 1306.001078 216.311347 
L 1306.179553 220.176516 
L 1306.358028 224.057432 
L 1306.536503 227.953387 
L 1306.714979 231.863714 
L 1306.893454 235.787781 
L 1307.071929 239.724986 
L 1307.250405 243.674758 
L 1307.42888 247.636549 
L 1307.607355 251.609836 
L 1307.78583 255.594115 
L 1307.964306 259.588901 
L 1308.142781 263.593729 
L 1308.321256 267.608148 
L 1308.499731 271.63172 
L 1308.678207 275.664023 
L 1308.856682 279.704646 
L 1309.035157 283.753191 
L 1309.213633 287.809267 
L 1309.392108 291.872497 
L 1309.570583 295.94251 
L 1309.749058 300.018945 
L 1309.927534 304.101448 
L 1310.106009 308.189672 
L 1310.284484 312.28328 
L 1310.46296 316.381937 
L 1310.641435 320.485318 
L 1310.81991 324.593101 
L 1310.998385 328.704972 
L 1311.176861 332.82062 
L 1311.355336 336.939739 
L 1311.533811 341.062031 
L 1311.712287 345.187199 
L 1311.890762 349.314951 
L 1312.069237 353.445001 
L 1312.247712 357.577065 
L 1312.426188 361.710864 
L 1312.604663 365.846124 
L 1312.783138 369.982572 
L 1312.961614 374.11994 
L 1313.140089 378.257965 
L 1313.318564 382.396385 
L 1313.497039 386.534943 
L 1313.675515 390.673385 
L 1313.85399 394.81146 
L 1314.032465 398.948921 
L 1314.210941 403.085523 
L 1314.389416 407.221025 
L 1314.567891 411.355191 
L 1314.746366 415.487784 
L 1314.924842 419.618575 
L 1315.103317 423.747334 
L 1315.281792 427.873836 
L 1315.460268 431.99786 
L 1315.638743 436.119186 
L 1315.817218 440.2376 
L 1315.995693 444.352888 
L 1316.174169 448.464841 
L 1316.352644 452.573253 
L 1316.531119 456.67792 
L 1316.709595 460.778643 
L 1316.88807 464.875225 
L 1317.066545 468.967471 
L 1317.24502 473.055192 
L 1317.423496 477.138199 
L 1317.601971 481.21631 
L 1317.780446 485.289341 
L 1317.958922 489.357116 
L 1318.137397 493.419458 
L 1318.315872 497.476198 
L 1318.494347 501.527164 
L 1318.672823 505.572193 
L 1318.851298 509.611122 
L 1319.029773 513.64379 
L 1319.208249 517.670042 
L 1319.386724 521.689724 
L 1319.565199 525.702687 
L 1319.743674 529.708782 
L 1319.92215 533.707865 
L 1320.100625 537.699796 
L 1320.2791 541.684435 
L 1320.457576 545.661648 
L 1320.636051 549.631302 
L 1320.814526 553.593267 
L 1320.993001 557.547417 
L 1321.171477 561.493627 
L 1321.349952 565.431777 
L 1321.528427 569.361749 
" clip-path="url(#pcff4090afa)" style="fill: none; stroke: #ff0000; stroke-width: 2; stroke-linecap: square"/>
   </g>
   <g id="line2d_21">
    <path d="M 1321.528427 569.361749 
L 1282.904883 569.51886 
L 1245.596159 569.670848 
L 1209.556364 569.81788 
L 1174.74128 569.960113 
L 1141.108298 570.097703 
L 1108.61635 570.230798 
L 1077.225857 570.359545 
L 1046.898666 570.484083 
L 1017.597998 570.604548 
L 989.288393 570.721073 
L 961.935662 570.833783 
L 935.506837 570.942804 
L 909.970126 571.048254 
L 885.294868 571.150249 
L 861.45149 571.248902 
L 838.411468 571.344321 
L 816.147286 571.43661 
L 794.632398 571.525872 
L 773.841194 571.612206 
L 753.748965 571.695705 
L 734.331867 571.776464 
L 715.566893 571.85457 
L 697.431841 571.930111 
L 679.905282 572.00317 
L 662.966536 572.073828 
L 646.595642 572.142164 
L 630.773333 572.208252 
L 615.481009 572.272168 
L 600.700717 572.333981 
L 586.415123 572.393761 
L 572.607492 572.451574 
L 559.261668 572.507484 
L 546.362051 572.561554 
L 533.893576 572.613844 
L 521.8417 572.664411 
L 510.192375 572.713314 
L 498.932038 572.760606 
L 488.047588 572.80634 
L 477.526375 572.850567 
L 467.35618 572.893337 
L 457.525201 572.934697 
L 448.022038 572.974694 
L 438.835682 573.013372 
L 429.955498 573.050775 
L 421.37121 573.086945 
L 413.072896 573.121922 
L 405.050967 573.155746 
L 397.296161 573.188453 
L 389.79953 573.220082 
L 382.55243 573.250667 
L 375.546508 573.280244 
L 368.773694 573.308844 
L 362.226192 573.3365 
L 355.896468 573.363244 
L 349.777244 573.389104 
L 343.861485 573.414112 
L 338.142396 573.438293 
L 332.613408 573.461676 
L 327.268177 573.484288 
L 322.100568 573.506152 
L 317.104657 573.527295 
L 312.274717 573.547739 
L 307.605212 573.567508 
L 303.090794 573.586624 
L 298.726294 573.605109 
L 294.506716 573.622983 
L 290.427234 573.640267 
L 286.483179 573.65698 
L 282.670044 573.67314 
L 278.983468 573.688767 
L 275.419239 573.703877 
L 271.973286 573.718488 
L 268.641673 573.732616 
L 265.420597 573.746277 
L 262.306379 573.759487 
L 259.295468 573.77226 
L 256.384427 573.784611 
L 253.569937 573.796554 
L 250.848789 573.808102 
L 248.217879 573.819269 
L 245.674209 573.830066 
L 243.214881 573.840506 
L 240.837092 573.850601 
L 238.538134 573.860363 
L 236.31539 573.869801 
L 234.166327 573.878928 
L 232.088499 573.887753 
L 230.079541 573.896286 
L 228.137168 573.904537 
L 226.259167 573.912515 
L 224.443404 573.92023 
L 222.687812 573.927689 
L 220.990395 573.934902 
L 219.349223 573.941876 
L 217.762428 573.948619 
L 216.228208 573.95514 
L 214.744818 573.961445 
L 213.310573 573.967541 
L 211.923841 573.973436 
" clip-path="url(#pcff4090afa)" style="fill: none; stroke: #ff0000; stroke-width: 2; stroke-linecap: square"/>
   </g>
   <g id="patch_3">
    <path d="M 58.97 670.84 
L 58.97 32.64 
" style="fill: none; stroke: #000000; stroke-width: 0.8; stroke-linejoin: miter; stroke-linecap: square"/>
   </g>
   <g id="patch_4">
    <path d="M 1429.2 670.84 
L 1429.2 32.64 
" style="fill: none; stroke: #000000; stroke-width: 0.8; stroke-linejoin: miter; stroke-linecap: square"/>
   </g>
   <g id="patch_5">
    <path d="M 58.97 670.84 
L 1429.2 670.84 
" style="fill: none; stroke: #000000; stroke-width: 0.8; stroke-linejoin: miter; stroke-linecap: square"/>
   </g>
   <g id="patch_6">
    <path d="M 58.97 32.64 
L 1429.2 32.64 
" style="fill: none; stroke: #000000; stroke-width: 0.8; stroke-linejoin: miter; stroke-linecap: square"/>
   </g>
   <g id="text_14">
    <g id="patch_7">
     <path d="M 825.118421 488.793405 
L 867.149671 488.793405 
L 867.149671 479.11528 
L 825.118421 479.11528 
z
" style="fill: #ffffff; stroke: #ffffff; stroke-linejoin: miter"/>
    </g>
    <!-- 10.0 bar -->
    <g transform="translate(825.118421 486.713718) scale(0.1 -0.1)">
     <defs>
      <path id="DejaVuSans-62" d="M 3116 1747 
Q 3116 2381 2855 2742 
Q 2594 3103 2138 3103 
Q 1681 3103 1420 2742 
Q 1159 2381 1159 1747 
Q 1159 1113 1420 752 
Q 1681 391 2138 391 
Q 2594 391 2855 752 
Q 3116 1113 3116 1747 
z
M 1159 2969 
Q 1341 3281 1617 3432 
Q 1894 3584 2278 3584 
Q 2916 3584 3314 3078 
Q 3713 2572 3713 1747 
Q 3713 922 3314 415 
Q 2916 -91 2278 -91 
Q 1894 -91 1617 61 
Q 1341 213 1159 525 
L 1159 0 
L 581 0 
L 581 4863 
L 1159 4863 
L 1159 2969 
z
" transform="scale(0.015625)"/>
     </defs>
     <use xlink:href="#DejaVuSans-31"/>
     <use xlink:href="#DejaVuSans-30" x="63.623047"/>
     <use xlink:href="#DejaVuSans-2e" x="127.246094"/>
     <use xlink:href="#DejaVuSans-30" x="159.033203"/>
     <use xlink:href="#DejaVuSans-20" x="222.65625"/>
     <use xlink:href="#DejaVuSans-62" x="254.443359"/>
     <use xlink:href="#DejaVuSans-61" x="317.919922"/>
     <use xlink:href="#DejaVuSans-72" x="379.199219"/>
    </g>
   </g>
   <g id="text_15">
    <g id="patch_8">
     <path d="M 1154.971973 299.317685 
L 1197.003223 299.317685 
L 1197.003223 289.63956 
L 1154.971973 289.63956 
z
" style="fill: #ffffff; stroke: #ffffff; stroke-linejoin: miter"/>
    </g>
    <!-- 20.0 bar -->
    <g transform="translate(1154.971973 297.237997) scale(0.1 -0.1)">
     <use xlink:href="#DejaVuSans-32"/>
     <use xlink:href="#DejaVuSans-30" x="63.623047"/>
     <use xlink:href="#DejaVuSans-2e" x="127.246094"/>
     <use xlink:href="#DejaVuSans-30" x="159.033203"/>
     <use xlink:href="#DejaVuSans-20" x="222.65625"/>
     <use xlink:href="#DejaVuSans-62" x="254.443359"/>
     <use xlink:href="#DejaVuSans-61" x="317.919922"/>
     <use xlink:href="#DejaVuSans-72" x="379.199219"/>
    </g>
   </g>
   <g id="text_16">
    <g id="patch_9">
     <path d="M 1250.975995 173.605779 
L 1293.007245 173.605779 
L 1293.007245 163.927654 
L 1250.975995 163.927654 
z
" style="fill: #ffffff; stroke: #ffffff; stroke-linejoin: miter"/>
    </g>
    <!-- 30.0 bar -->
    <g transform="translate(1250.975995 171.526091) scale(0.1 -0.1)">
     <use xlink:href="#DejaVuSans-33"/>
     <use xlink:href="#DejaVuSans-30" x="63.623047"/>
     <use xlink:href="#DejaVuSans-2e" x="127.246094"/>
     <use xlink:href="#DejaVuSans-30" x="159.033203"/>
     <use xlink:href="#DejaVuSans-20" x="222.65625"/>
     <use xlink:href="#DejaVuSans-62" x="254.443359"/>
     <use xlink:href="#DejaVuSans-61" x="317.919922"/>
     <use xlink:href="#DejaVuSans-72" x="379.199219"/>
    </g>
   </g>
   <g id="text_17">
    <g id="patch_10">
     <path d="M 1242.342404 67.524015 
L 1283.395358 58.508418 
L 1281.319425 49.055556 
L 1240.266471 58.071152 
z
" style="fill: #ffffff; stroke: #ffffff; stroke-linejoin: miter"/>
    </g>
    <!-- 40.0 bar -->
    <g transform="translate(1241.896317 65.492733) rotate(-12.386047) scale(0.1 -0.1)">
     <use xlink:href="#DejaVuSans-34"/>
     <use xlink:href="#DejaVuSans-30" x="63.623047"/>
     <use xlink:href="#DejaVuSans-2e" x="127.246094"/>
     <use xlink:href="#DejaVuSans-30" x="159.033203"/>
     <use xlink:href="#DejaVuSans-20" x="222.65625"/>
     <use xlink:href="#DejaVuSans-62" x="254.443359"/>
     <use xlink:href="#DejaVuSans-61" x="317.919922"/>
     <use xlink:href="#DejaVuSans-72" x="379.199219"/>
    </g>
   </g>
   <g id="text_18">
    <g id="patch_11">
     <path d="M 460.282865 429.217681 
L 479.347408 416.91578 
L 474.099976 408.783711 
L 455.035433 421.085611 
z
" style="fill: #ffffff; stroke: #ffffff; stroke-linejoin: miter"/>
    </g>
    <!-- 0.0 - -->
    <g transform="translate(459.155269 427.470218) rotate(-32.833201) scale(0.1 -0.1)">
     <defs>
      <path id="DejaVuSans-2d" d="M 313 2009 
L 1997 2009 
L 1997 1497 
L 313 1497 
L 313 2009 
z
" transform="scale(0.015625)"/>
     </defs>
     <use xlink:href="#DejaVuSans-30"/>
     <use xlink:href="#DejaVuSans-2e" x="63.623047"/>
     <use xlink:href="#DejaVuSans-30" x="95.410156"/>
     <use xlink:href="#DejaVuSans-20" x="159.033203"/>
     <use xlink:href="#DejaVuSans-2d" x="190.820312"/>
    </g>
   </g>
   <g id="text_19">
    <g id="patch_12">
     <path d="M 1340.162496 430.554072 
L 1341.197037 407.888608 
L 1331.528978 407.447319 
L 1330.494436 430.112784 
z
" style="fill: #ffffff; stroke: #ffffff; stroke-linejoin: miter"/>
    </g>
    <!-- 1.0 - -->
    <g transform="translate(1338.084971 430.459246) rotate(-87.386609) scale(0.1 -0.1)">
     <use xlink:href="#DejaVuSans-31"/>
     <use xlink:href="#DejaVuSans-2e" x="63.623047"/>
     <use xlink:href="#DejaVuSans-30" x="95.410156"/>
     <use xlink:href="#DejaVuSans-20" x="159.033203"/>
     <use xlink:href="#DejaVuSans-2d" x="190.820312"/>
    </g>
   </g>
   <g id="text_20">
    <!-- T-s Diagram for ORC System -->
    <g transform="translate(602.081875 26.64) scale(0.2 -0.2)">
     <defs>
      <path id="DejaVuSans-44" d="M 1259 4147 
L 1259 519 
L 2022 519 
Q 2988 519 3436 956 
Q 3884 1394 3884 2338 
Q 3884 3275 3436 3711 
Q 2988 4147 2022 4147 
L 1259 4147 
z
M 628 4666 
L 1925 4666 
Q 3281 4666 3915 4102 
Q 4550 3538 4550 2338 
Q 4550 1131 3912 565 
Q 3275 0 1925 0 
L 628 0 
L 628 4666 
z
" transform="scale(0.015625)"/>
      <path id="DejaVuSans-69" d="M 603 3500 
L 1178 3500 
L 1178 0 
L 603 0 
L 603 3500 
z
M 603 4863 
L 1178 4863 
L 1178 4134 
L 603 4134 
L 603 4863 
z
" transform="scale(0.015625)"/>
      <path id="DejaVuSans-66" d="M 2375 4863 
L 2375 4384 
L 1825 4384 
Q 1516 4384 1395 4259 
Q 1275 4134 1275 3809 
L 1275 3500 
L 2222 3500 
L 2222 3053 
L 1275 3053 
L 1275 0 
L 697 0 
L 697 3053 
L 147 3053 
L 147 3500 
L 697 3500 
L 697 3744 
Q 697 4328 969 4595 
Q 1241 4863 1831 4863 
L 2375 4863 
z
" transform="scale(0.015625)"/>
      <path id="DejaVuSans-4f" d="M 2522 4238 
Q 1834 4238 1429 3725 
Q 1025 3213 1025 2328 
Q 1025 1447 1429 934 
Q 1834 422 2522 422 
Q 3209 422 3611 934 
Q 4013 1447 4013 2328 
Q 4013 3213 3611 3725 
Q 3209 4238 2522 4238 
z
M 2522 4750 
Q 3503 4750 4090 4092 
Q 4678 3434 4678 2328 
Q 4678 1225 4090 567 
Q 3503 -91 2522 -91 
Q 1538 -91 948 565 
Q 359 1222 359 2328 
Q 359 3434 948 4092 
Q 1538 4750 2522 4750 
z
" transform="scale(0.015625)"/>
      <path id="DejaVuSans-52" d="M 2841 2188 
Q 3044 2119 3236 1894 
Q 3428 1669 3622 1275 
L 4263 0 
L 3584 0 
L 2988 1197 
Q 2756 1666 2539 1819 
Q 2322 1972 1947 1972 
L 1259 1972 
L 1259 0 
L 628 0 
L 628 4666 
L 2053 4666 
Q 2853 4666 3247 4331 
Q 3641 3997 3641 3322 
Q 3641 2881 3436 2590 
Q 3231 2300 2841 2188 
z
M 1259 4147 
L 1259 2491 
L 2053 2491 
Q 2509 2491 2742 2702 
Q 2975 2913 2975 3322 
Q 2975 3731 2742 3939 
Q 2509 4147 2053 4147 
L 1259 4147 
z
" transform="scale(0.015625)"/>
      <path id="DejaVuSans-53" d="M 3425 4513 
L 3425 3897 
Q 3066 4069 2747 4153 
Q 2428 4238 2131 4238 
Q 1616 4238 1336 4038 
Q 1056 3838 1056 3469 
Q 1056 3159 1242 3001 
Q 1428 2844 1947 2747 
L 2328 2669 
Q 3034 2534 3370 2195 
Q 3706 1856 3706 1288 
Q 3706 609 3251 259 
Q 2797 -91 1919 -91 
Q 1588 -91 1214 -16 
Q 841 59 441 206 
L 441 856 
Q 825 641 1194 531 
Q 1563 422 1919 422 
Q 2459 422 2753 634 
Q 3047 847 3047 1241 
Q 3047 1584 2836 1778 
Q 2625 1972 2144 2069 
L 1759 2144 
Q 1053 2284 737 2584 
Q 422 2884 422 3419 
Q 422 4038 858 4394 
Q 1294 4750 2059 4750 
Q 2388 4750 2728 4690 
Q 3069 4631 3425 4513 
z
" transform="scale(0.015625)"/>
     </defs>
     <use xlink:href="#DejaVuSans-54"/>
     <use xlink:href="#DejaVuSans-2d" x="51.958984"/>
     <use xlink:href="#DejaVuSans-73" x="88.042969"/>
     <use xlink:href="#DejaVuSans-20" x="140.142578"/>
     <use xlink:href="#DejaVuSans-44" x="171.929688"/>
     <use xlink:href="#DejaVuSans-69" x="248.931641"/>
     <use xlink:href="#DejaVuSans-61" x="276.714844"/>
     <use xlink:href="#DejaVuSans-67" x="337.994141"/>
     <use xlink:href="#DejaVuSans-72" x="401.470703"/>
     <use xlink:href="#DejaVuSans-61" x="442.583984"/>
     <use xlink:href="#DejaVuSans-6d" x="503.863281"/>
     <use xlink:href="#DejaVuSans-20" x="601.275391"/>
     <use xlink:href="#DejaVuSans-66" x="633.0625"/>
     <use xlink:href="#DejaVuSans-6f" x="668.267578"/>
     <use xlink:href="#DejaVuSans-72" x="729.449219"/>
     <use xlink:href="#DejaVuSans-20" x="770.5625"/>
     <use xlink:href="#DejaVuSans-4f" x="802.349609"/>
     <use xlink:href="#DejaVuSans-52" x="881.060547"/>
     <use xlink:href="#DejaVuSans-43" x="945.542969"/>
     <use xlink:href="#DejaVuSans-20" x="1015.367188"/>
     <use xlink:href="#DejaVuSans-53" x="1047.154297"/>
     <use xlink:href="#DejaVuSans-79" x="1110.630859"/>
     <use xlink:href="#DejaVuSans-73" x="1169.810547"/>
     <use xlink:href="#DejaVuSans-74" x="1221.910156"/>
     <use xlink:href="#DejaVuSans-65" x="1261.119141"/>
     <use xlink:href="#DejaVuSans-6d" x="1322.642578"/>
    </g>
   </g>
  </g>
 </g>
 <defs>
  <clipPath id="pcff4090afa">
   <rect x="58.97" y="32.64" width="1370.23" height="638.2"/>
  </clipPath>
 </defs>
</svg>
