<?xml version="1.0" encoding="utf-8" standalone="no"?>
<!DOCTYPE svg PUBLIC "-//W3C//DTD SVG 1.1//EN"
  "http://www.w3.org/Graphics/SVG/1.1/DTD/svg11.dtd">
<svg xmlns:xlink="http://www.w3.org/1999/xlink" width="1440pt" height="720pt" viewBox="0 0 1440 720" xmlns="http://www.w3.org/2000/svg" version="1.1">
 <metadata>
  <rdf:RDF xmlns:dc="http://purl.org/dc/elements/1.1/" xmlns:cc="http://creativecommons.org/ns#" xmlns:rdf="http://www.w3.org/1999/02/22-rdf-syntax-ns#">
   <cc:Work>
    <dc:type rdf:resource="http://purl.org/dc/dcmitype/StillImage"/>
    <dc:date>2024-05-13T10:39:36.187111</dc:date>
    <dc:format>image/svg+xml</dc:format>
    <dc:creator>
     <cc:Agent>
      <dc:title>Matplotlib v3.8.1, https://matplotlib.org/</dc:title>
     </cc:Agent>
    </dc:creator>
   </cc:Work>
  </rdf:RDF>
 </metadata>
 <defs>
  <style type="text/css">*{stroke-linejoin: round; stroke-linecap: butt}</style>
 </defs>
 <g id="figure_1">
  <g id="patch_1">
   <path d="M 0 720 
L 1440 720 
L 1440 0 
L 0 0 
z
" style="fill: #ffffff"/>
  </g>
  <g id="axes_1">
   <g id="patch_2">
    <path d="M 59.06 670.84 
L 1429.2 670.84 
L 1429.2 32.64 
L 59.06 32.64 
z
" style="fill: #ffffff"/>
   </g>
   <g id="PathCollection_1">
    <defs>
     <path id="mea36fc474e" d="M 0 3 
C 0.795609 3 1.55874 2.683901 2.12132 2.12132 
C 2.683901 1.55874 3 0.795609 3 0 
C 3 -0.795609 2.683901 -1.55874 2.12132 -2.12132 
C 1.55874 -2.683901 0.795609 -3 0 -3 
C -0.795609 -3 -1.55874 -2.683901 -2.12132 -2.12132 
C -2.683901 -1.55874 -3 -0.795609 -3 0 
C -3 0.795609 -2.683901 1.55874 -2.12132 2.12132 
C -1.55874 2.683901 -0.795609 3 0 3 
z
" style="stroke: #ff0000"/>
    </defs>
    <g clip-path="url(#p10f244d229)">
     <use xlink:href="#mea36fc474e" x="212.003795" y="634.121595" style="fill: #ff0000; stroke: #ff0000"/>
    </g>
   </g>
   <g id="PathCollection_2">
    <g clip-path="url(#p10f244d229)">
     <use xlink:href="#mea36fc474e" x="217.49527" y="619.314079" style="fill: #ff0000; stroke: #ff0000"/>
    </g>
   </g>
   <g id="PathCollection_3">
    <g clip-path="url(#p10f244d229)">
     <use xlink:href="#mea36fc474e" x="1303.867607" y="174.462222" style="fill: #ff0000; stroke: #ff0000"/>
    </g>
   </g>
   <g id="PathCollection_4">
    <g clip-path="url(#p10f244d229)">
     <use xlink:href="#mea36fc474e" x="1321.535499" y="628.997499" style="fill: #ff0000; stroke: #ff0000"/>
    </g>
   </g>
   <g id="matplotlib.axis_1">
    <g id="xtick_1">
     <g id="line2d_1">
      <defs>
       <path id="mbb0aaff73a" d="M 0 0 
L 0 3.5 
" style="stroke: #000000; stroke-width: 0.8"/>
      </defs>
      <g>
       <use xlink:href="#mbb0aaff73a" x="173.238333" y="670.84" style="stroke: #000000; stroke-width: 0.8"/>
      </g>
     </g>
     <g id="text_1">
      <!-- 1100 -->
      <g transform="translate(157.968333 686.958125) scale(0.12 -0.12)">
       <defs>
        <path id="DejaVuSans-31" d="M 794 531 
L 1825 531 
L 1825 4091 
L 703 3866 
L 703 4441 
L 1819 4666 
L 2450 4666 
L 2450 531 
L 3481 531 
L 3481 0 
L 794 0 
L 794 531 
z
" transform="scale(0.015625)"/>
        <path id="DejaVuSans-30" d="M 2034 4250 
Q 1547 4250 1301 3770 
Q 1056 3291 1056 2328 
Q 1056 1369 1301 889 
Q 1547 409 2034 409 
Q 2525 409 2770 889 
Q 3016 1369 3016 2328 
Q 3016 3291 2770 3770 
Q 2525 4250 2034 4250 
z
M 2034 4750 
Q 2819 4750 3233 4129 
Q 3647 3509 3647 2328 
Q 3647 1150 3233 529 
Q 2819 -91 2034 -91 
Q 1250 -91 836 529 
Q 422 1150 422 2328 
Q 422 3509 836 4129 
Q 1250 4750 2034 4750 
z
" transform="scale(0.015625)"/>
       </defs>
       <use xlink:href="#DejaVuSans-31"/>
       <use xlink:href="#DejaVuSans-31" x="63.623047"/>
       <use xlink:href="#DejaVuSans-30" x="127.246094"/>
       <use xlink:href="#DejaVuSans-30" x="190.869141"/>
      </g>
     </g>
    </g>
    <g id="xtick_2">
     <g id="line2d_2">
      <g>
       <use xlink:href="#mbb0aaff73a" x="401.595" y="670.84" style="stroke: #000000; stroke-width: 0.8"/>
      </g>
     </g>
     <g id="text_2">
      <!-- 1200 -->
      <g transform="translate(386.325 686.958125) scale(0.12 -0.12)">
       <defs>
        <path id="DejaVuSans-32" d="M 1228 531 
L 3431 531 
L 3431 0 
L 469 0 
L 469 531 
Q 828 903 1448 1529 
Q 2069 2156 2228 2338 
Q 2531 2678 2651 2914 
Q 2772 3150 2772 3378 
Q 2772 3750 2511 3984 
Q 2250 4219 1831 4219 
Q 1534 4219 1204 4116 
Q 875 4013 500 3803 
L 500 4441 
Q 881 4594 1212 4672 
Q 1544 4750 1819 4750 
Q 2544 4750 2975 4387 
Q 3406 4025 3406 3419 
Q 3406 3131 3298 2873 
Q 3191 2616 2906 2266 
Q 2828 2175 2409 1742 
Q 1991 1309 1228 531 
z
" transform="scale(0.015625)"/>
       </defs>
       <use xlink:href="#DejaVuSans-31"/>
       <use xlink:href="#DejaVuSans-32" x="63.623047"/>
       <use xlink:href="#DejaVuSans-30" x="127.246094"/>
       <use xlink:href="#DejaVuSans-30" x="190.869141"/>
      </g>
     </g>
    </g>
    <g id="xtick_3">
     <g id="line2d_3">
      <g>
       <use xlink:href="#mbb0aaff73a" x="629.951667" y="670.84" style="stroke: #000000; stroke-width: 0.8"/>
      </g>
     </g>
     <g id="text_3">
      <!-- 1300 -->
      <g transform="translate(614.681667 686.958125) scale(0.12 -0.12)">
       <defs>
        <path id="DejaVuSans-33" d="M 2597 2516 
Q 3050 2419 3304 2112 
Q 3559 1806 3559 1356 
Q 3559 666 3084 287 
Q 2609 -91 1734 -91 
Q 1441 -91 1130 -33 
Q 819 25 488 141 
L 488 750 
Q 750 597 1062 519 
Q 1375 441 1716 441 
Q 2309 441 2620 675 
Q 2931 909 2931 1356 
Q 2931 1769 2642 2001 
Q 2353 2234 1838 2234 
L 1294 2234 
L 1294 2753 
L 1863 2753 
Q 2328 2753 2575 2939 
Q 2822 3125 2822 3475 
Q 2822 3834 2567 4026 
Q 2313 4219 1838 4219 
Q 1578 4219 1281 4162 
Q 984 4106 628 3988 
L 628 4550 
Q 988 4650 1302 4700 
Q 1616 4750 1894 4750 
Q 2613 4750 3031 4423 
Q 3450 4097 3450 3541 
Q 3450 3153 3228 2886 
Q 3006 2619 2597 2516 
z
" transform="scale(0.015625)"/>
       </defs>
       <use xlink:href="#DejaVuSans-31"/>
       <use xlink:href="#DejaVuSans-33" x="63.623047"/>
       <use xlink:href="#DejaVuSans-30" x="127.246094"/>
       <use xlink:href="#DejaVuSans-30" x="190.869141"/>
      </g>
     </g>
    </g>
    <g id="xtick_4">
     <g id="line2d_4">
      <g>
       <use xlink:href="#mbb0aaff73a" x="858.308333" y="670.84" style="stroke: #000000; stroke-width: 0.8"/>
      </g>
     </g>
     <g id="text_4">
      <!-- 1400 -->
      <g transform="translate(843.038333 686.958125) scale(0.12 -0.12)">
       <defs>
        <path id="DejaVuSans-34" d="M 2419 4116 
L 825 1625 
L 2419 1625 
L 2419 4116 
z
M 2253 4666 
L 3047 4666 
L 3047 1625 
L 3713 1625 
L 3713 1100 
L 3047 1100 
L 3047 0 
L 2419 0 
L 2419 1100 
L 313 1100 
L 313 1709 
L 2253 4666 
z
" transform="scale(0.015625)"/>
       </defs>
       <use xlink:href="#DejaVuSans-31"/>
       <use xlink:href="#DejaVuSans-34" x="63.623047"/>
       <use xlink:href="#DejaVuSans-30" x="127.246094"/>
       <use xlink:href="#DejaVuSans-30" x="190.869141"/>
      </g>
     </g>
    </g>
    <g id="xtick_5">
     <g id="line2d_5">
      <g>
       <use xlink:href="#mbb0aaff73a" x="1086.665" y="670.84" style="stroke: #000000; stroke-width: 0.8"/>
      </g>
     </g>
     <g id="text_5">
      <!-- 1500 -->
      <g transform="translate(1071.395 686.958125) scale(0.12 -0.12)">
       <defs>
        <path id="DejaVuSans-35" d="M 691 4666 
L 3169 4666 
L 3169 4134 
L 1269 4134 
L 1269 2991 
Q 1406 3038 1543 3061 
Q 1681 3084 1819 3084 
Q 2600 3084 3056 2656 
Q 3513 2228 3513 1497 
Q 3513 744 3044 326 
Q 2575 -91 1722 -91 
Q 1428 -91 1123 -41 
Q 819 9 494 109 
L 494 744 
Q 775 591 1075 516 
Q 1375 441 1709 441 
Q 2250 441 2565 725 
Q 2881 1009 2881 1497 
Q 2881 1984 2565 2268 
Q 2250 2553 1709 2553 
Q 1456 2553 1204 2497 
Q 953 2441 691 2322 
L 691 4666 
z
" transform="scale(0.015625)"/>
       </defs>
       <use xlink:href="#DejaVuSans-31"/>
       <use xlink:href="#DejaVuSans-35" x="63.623047"/>
       <use xlink:href="#DejaVuSans-30" x="127.246094"/>
       <use xlink:href="#DejaVuSans-30" x="190.869141"/>
      </g>
     </g>
    </g>
    <g id="xtick_6">
     <g id="line2d_6">
      <g>
       <use xlink:href="#mbb0aaff73a" x="1315.021667" y="670.84" style="stroke: #000000; stroke-width: 0.8"/>
      </g>
     </g>
     <g id="text_6">
      <!-- 1600 -->
      <g transform="translate(1299.751667 686.958125) scale(0.12 -0.12)">
       <defs>
        <path id="DejaVuSans-36" d="M 2113 2584 
Q 1688 2584 1439 2293 
Q 1191 2003 1191 1497 
Q 1191 994 1439 701 
Q 1688 409 2113 409 
Q 2538 409 2786 701 
Q 3034 994 3034 1497 
Q 3034 2003 2786 2293 
Q 2538 2584 2113 2584 
z
M 3366 4563 
L 3366 3988 
Q 3128 4100 2886 4159 
Q 2644 4219 2406 4219 
Q 1781 4219 1451 3797 
Q 1122 3375 1075 2522 
Q 1259 2794 1537 2939 
Q 1816 3084 2150 3084 
Q 2853 3084 3261 2657 
Q 3669 2231 3669 1497 
Q 3669 778 3244 343 
Q 2819 -91 2113 -91 
Q 1303 -91 875 529 
Q 447 1150 447 2328 
Q 447 3434 972 4092 
Q 1497 4750 2381 4750 
Q 2619 4750 2861 4703 
Q 3103 4656 3366 4563 
z
" transform="scale(0.015625)"/>
       </defs>
       <use xlink:href="#DejaVuSans-31"/>
       <use xlink:href="#DejaVuSans-36" x="63.623047"/>
       <use xlink:href="#DejaVuSans-30" x="127.246094"/>
       <use xlink:href="#DejaVuSans-30" x="190.869141"/>
      </g>
     </g>
    </g>
    <g id="text_7">
     <!-- Entropy, s [J/kg.K] -->
     <g transform="translate(672.45875 705.61125) scale(0.16 -0.16)">
      <defs>
       <path id="DejaVuSans-45" d="M 628 4666 
L 3578 4666 
L 3578 4134 
L 1259 4134 
L 1259 2753 
L 3481 2753 
L 3481 2222 
L 1259 2222 
L 1259 531 
L 3634 531 
L 3634 0 
L 628 0 
L 628 4666 
z
" transform="scale(0.015625)"/>
       <path id="DejaVuSans-6e" d="M 3513 2113 
L 3513 0 
L 2938 0 
L 2938 2094 
Q 2938 2591 2744 2837 
Q 2550 3084 2163 3084 
Q 1697 3084 1428 2787 
Q 1159 2491 1159 1978 
L 1159 0 
L 581 0 
L 581 3500 
L 1159 3500 
L 1159 2956 
Q 1366 3272 1645 3428 
Q 1925 3584 2291 3584 
Q 2894 3584 3203 3211 
Q 3513 2838 3513 2113 
z
" transform="scale(0.015625)"/>
       <path id="DejaVuSans-74" d="M 1172 4494 
L 1172 3500 
L 2356 3500 
L 2356 3053 
L 1172 3053 
L 1172 1153 
Q 1172 725 1289 603 
Q 1406 481 1766 481 
L 2356 481 
L 2356 0 
L 1766 0 
Q 1100 0 847 248 
Q 594 497 594 1153 
L 594 3053 
L 172 3053 
L 172 3500 
L 594 3500 
L 594 4494 
L 1172 4494 
z
" transform="scale(0.015625)"/>
       <path id="DejaVuSans-72" d="M 2631 2963 
Q 2534 3019 2420 3045 
Q 2306 3072 2169 3072 
Q 1681 3072 1420 2755 
Q 1159 2438 1159 1844 
L 1159 0 
L 581 0 
L 581 3500 
L 1159 3500 
L 1159 2956 
Q 1341 3275 1631 3429 
Q 1922 3584 2338 3584 
Q 2397 3584 2469 3576 
Q 2541 3569 2628 3553 
L 2631 2963 
z
" transform="scale(0.015625)"/>
       <path id="DejaVuSans-6f" d="M 1959 3097 
Q 1497 3097 1228 2736 
Q 959 2375 959 1747 
Q 959 1119 1226 758 
Q 1494 397 1959 397 
Q 2419 397 2687 759 
Q 2956 1122 2956 1747 
Q 2956 2369 2687 2733 
Q 2419 3097 1959 3097 
z
M 1959 3584 
Q 2709 3584 3137 3096 
Q 3566 2609 3566 1747 
Q 3566 888 3137 398 
Q 2709 -91 1959 -91 
Q 1206 -91 779 398 
Q 353 888 353 1747 
Q 353 2609 779 3096 
Q 1206 3584 1959 3584 
z
" transform="scale(0.015625)"/>
       <path id="DejaVuSans-70" d="M 1159 525 
L 1159 -1331 
L 581 -1331 
L 581 3500 
L 1159 3500 
L 1159 2969 
Q 1341 3281 1617 3432 
Q 1894 3584 2278 3584 
Q 2916 3584 3314 3078 
Q 3713 2572 3713 1747 
Q 3713 922 3314 415 
Q 2916 -91 2278 -91 
Q 1894 -91 1617 61 
Q 1341 213 1159 525 
z
M 3116 1747 
Q 3116 2381 2855 2742 
Q 2594 3103 2138 3103 
Q 1681 3103 1420 2742 
Q 1159 2381 1159 1747 
Q 1159 1113 1420 752 
Q 1681 391 2138 391 
Q 2594 391 2855 752 
Q 3116 1113 3116 1747 
z
" transform="scale(0.015625)"/>
       <path id="DejaVuSans-79" d="M 2059 -325 
Q 1816 -950 1584 -1140 
Q 1353 -1331 966 -1331 
L 506 -1331 
L 506 -850 
L 844 -850 
Q 1081 -850 1212 -737 
Q 1344 -625 1503 -206 
L 1606 56 
L 191 3500 
L 800 3500 
L 1894 763 
L 2988 3500 
L 3597 3500 
L 2059 -325 
z
" transform="scale(0.015625)"/>
       <path id="DejaVuSans-2c" d="M 750 794 
L 1409 794 
L 1409 256 
L 897 -744 
L 494 -744 
L 750 256 
L 750 794 
z
" transform="scale(0.015625)"/>
       <path id="DejaVuSans-20" transform="scale(0.015625)"/>
       <path id="DejaVuSans-73" d="M 2834 3397 
L 2834 2853 
Q 2591 2978 2328 3040 
Q 2066 3103 1784 3103 
Q 1356 3103 1142 2972 
Q 928 2841 928 2578 
Q 928 2378 1081 2264 
Q 1234 2150 1697 2047 
L 1894 2003 
Q 2506 1872 2764 1633 
Q 3022 1394 3022 966 
Q 3022 478 2636 193 
Q 2250 -91 1575 -91 
Q 1294 -91 989 -36 
Q 684 19 347 128 
L 347 722 
Q 666 556 975 473 
Q 1284 391 1588 391 
Q 1994 391 2212 530 
Q 2431 669 2431 922 
Q 2431 1156 2273 1281 
Q 2116 1406 1581 1522 
L 1381 1569 
Q 847 1681 609 1914 
Q 372 2147 372 2553 
Q 372 3047 722 3315 
Q 1072 3584 1716 3584 
Q 2034 3584 2315 3537 
Q 2597 3491 2834 3397 
z
" transform="scale(0.015625)"/>
       <path id="DejaVuSans-5b" d="M 550 4863 
L 1875 4863 
L 1875 4416 
L 1125 4416 
L 1125 -397 
L 1875 -397 
L 1875 -844 
L 550 -844 
L 550 4863 
z
" transform="scale(0.015625)"/>
       <path id="DejaVuSans-4a" d="M 628 4666 
L 1259 4666 
L 1259 325 
Q 1259 -519 939 -900 
Q 619 -1281 -91 -1281 
L -331 -1281 
L -331 -750 
L -134 -750 
Q 284 -750 456 -515 
Q 628 -281 628 325 
L 628 4666 
z
" transform="scale(0.015625)"/>
       <path id="DejaVuSans-2f" d="M 1625 4666 
L 2156 4666 
L 531 -594 
L 0 -594 
L 1625 4666 
z
" transform="scale(0.015625)"/>
       <path id="DejaVuSans-6b" d="M 581 4863 
L 1159 4863 
L 1159 1991 
L 2875 3500 
L 3609 3500 
L 1753 1863 
L 3688 0 
L 2938 0 
L 1159 1709 
L 1159 0 
L 581 0 
L 581 4863 
z
" transform="scale(0.015625)"/>
       <path id="DejaVuSans-67" d="M 2906 1791 
Q 2906 2416 2648 2759 
Q 2391 3103 1925 3103 
Q 1463 3103 1205 2759 
Q 947 2416 947 1791 
Q 947 1169 1205 825 
Q 1463 481 1925 481 
Q 2391 481 2648 825 
Q 2906 1169 2906 1791 
z
M 3481 434 
Q 3481 -459 3084 -895 
Q 2688 -1331 1869 -1331 
Q 1566 -1331 1297 -1286 
Q 1028 -1241 775 -1147 
L 775 -588 
Q 1028 -725 1275 -790 
Q 1522 -856 1778 -856 
Q 2344 -856 2625 -561 
Q 2906 -266 2906 331 
L 2906 616 
Q 2728 306 2450 153 
Q 2172 0 1784 0 
Q 1141 0 747 490 
Q 353 981 353 1791 
Q 353 2603 747 3093 
Q 1141 3584 1784 3584 
Q 2172 3584 2450 3431 
Q 2728 3278 2906 2969 
L 2906 3500 
L 3481 3500 
L 3481 434 
z
" transform="scale(0.015625)"/>
       <path id="DejaVuSans-2e" d="M 684 794 
L 1344 794 
L 1344 0 
L 684 0 
L 684 794 
z
" transform="scale(0.015625)"/>
       <path id="DejaVuSans-4b" d="M 628 4666 
L 1259 4666 
L 1259 2694 
L 3353 4666 
L 4166 4666 
L 1850 2491 
L 4331 0 
L 3500 0 
L 1259 2247 
L 1259 0 
L 628 0 
L 628 4666 
z
" transform="scale(0.015625)"/>
       <path id="DejaVuSans-5d" d="M 1947 4863 
L 1947 -844 
L 622 -844 
L 622 -397 
L 1369 -397 
L 1369 4416 
L 622 4416 
L 622 4863 
L 1947 4863 
z
" transform="scale(0.015625)"/>
      </defs>
      <use xlink:href="#DejaVuSans-45"/>
      <use xlink:href="#DejaVuSans-6e" x="63.183594"/>
      <use xlink:href="#DejaVuSans-74" x="126.5625"/>
      <use xlink:href="#DejaVuSans-72" x="165.771484"/>
      <use xlink:href="#DejaVuSans-6f" x="204.634766"/>
      <use xlink:href="#DejaVuSans-70" x="265.816406"/>
      <use xlink:href="#DejaVuSans-79" x="329.292969"/>
      <use xlink:href="#DejaVuSans-2c" x="388.472656"/>
      <use xlink:href="#DejaVuSans-20" x="420.259766"/>
      <use xlink:href="#DejaVuSans-73" x="452.046875"/>
      <use xlink:href="#DejaVuSans-20" x="504.146484"/>
      <use xlink:href="#DejaVuSans-5b" x="535.933594"/>
      <use xlink:href="#DejaVuSans-4a" x="574.947266"/>
      <use xlink:href="#DejaVuSans-2f" x="604.439453"/>
      <use xlink:href="#DejaVuSans-6b" x="638.130859"/>
      <use xlink:href="#DejaVuSans-67" x="696.041016"/>
      <use xlink:href="#DejaVuSans-2e" x="759.517578"/>
      <use xlink:href="#DejaVuSans-4b" x="791.304688"/>
      <use xlink:href="#DejaVuSans-5d" x="856.880859"/>
     </g>
    </g>
   </g>
   <g id="matplotlib.axis_2">
    <g id="ytick_1">
     <g id="line2d_7">
      <defs>
       <path id="m6b29fe8f49" d="M 0 0 
L -3.5 0 
" style="stroke: #000000; stroke-width: 0.8"/>
      </defs>
      <g>
       <use xlink:href="#m6b29fe8f49" x="59.06" y="670.84" style="stroke: #000000; stroke-width: 0.8"/>
      </g>
     </g>
     <g id="text_8">
      <!-- 20 -->
      <g transform="translate(36.79 675.399063) scale(0.12 -0.12)">
       <use xlink:href="#DejaVuSans-32"/>
       <use xlink:href="#DejaVuSans-30" x="63.623047"/>
      </g>
     </g>
    </g>
    <g id="ytick_2">
     <g id="line2d_8">
      <g>
       <use xlink:href="#m6b29fe8f49" x="59.06" y="599.928889" style="stroke: #000000; stroke-width: 0.8"/>
      </g>
     </g>
     <g id="text_9">
      <!-- 30 -->
      <g transform="translate(36.79 604.487951) scale(0.12 -0.12)">
       <use xlink:href="#DejaVuSans-33"/>
       <use xlink:href="#DejaVuSans-30" x="63.623047"/>
      </g>
     </g>
    </g>
    <g id="ytick_3">
     <g id="line2d_9">
      <g>
       <use xlink:href="#m6b29fe8f49" x="59.06" y="529.017778" style="stroke: #000000; stroke-width: 0.8"/>
      </g>
     </g>
     <g id="text_10">
      <!-- 40 -->
      <g transform="translate(36.79 533.57684) scale(0.12 -0.12)">
       <use xlink:href="#DejaVuSans-34"/>
       <use xlink:href="#DejaVuSans-30" x="63.623047"/>
      </g>
     </g>
    </g>
    <g id="ytick_4">
     <g id="line2d_10">
      <g>
       <use xlink:href="#m6b29fe8f49" x="59.06" y="458.106667" style="stroke: #000000; stroke-width: 0.8"/>
      </g>
     </g>
     <g id="text_11">
      <!-- 50 -->
      <g transform="translate(36.79 462.665729) scale(0.12 -0.12)">
       <use xlink:href="#DejaVuSans-35"/>
       <use xlink:href="#DejaVuSans-30" x="63.623047"/>
      </g>
     </g>
    </g>
    <g id="ytick_5">
     <g id="line2d_11">
      <g>
       <use xlink:href="#m6b29fe8f49" x="59.06" y="387.195556" style="stroke: #000000; stroke-width: 0.8"/>
      </g>
     </g>
     <g id="text_12">
      <!-- 60 -->
      <g transform="translate(36.79 391.754618) scale(0.12 -0.12)">
       <use xlink:href="#DejaVuSans-36"/>
       <use xlink:href="#DejaVuSans-30" x="63.623047"/>
      </g>
     </g>
    </g>
    <g id="ytick_6">
     <g id="line2d_12">
      <g>
       <use xlink:href="#m6b29fe8f49" x="59.06" y="316.284444" style="stroke: #000000; stroke-width: 0.8"/>
      </g>
     </g>
     <g id="text_13">
      <!-- 70 -->
      <g transform="translate(36.79 320.843507) scale(0.12 -0.12)">
       <defs>
        <path id="DejaVuSans-37" d="M 525 4666 
L 3525 4666 
L 3525 4397 
L 1831 0 
L 1172 0 
L 2766 4134 
L 525 4134 
L 525 4666 
z
" transform="scale(0.015625)"/>
       </defs>
       <use xlink:href="#DejaVuSans-37"/>
       <use xlink:href="#DejaVuSans-30" x="63.623047"/>
      </g>
     </g>
    </g>
    <g id="ytick_7">
     <g id="line2d_13">
      <g>
       <use xlink:href="#m6b29fe8f49" x="59.06" y="245.373333" style="stroke: #000000; stroke-width: 0.8"/>
      </g>
     </g>
     <g id="text_14">
      <!-- 80 -->
      <g transform="translate(36.79 249.932396) scale(0.12 -0.12)">
       <defs>
        <path id="DejaVuSans-38" d="M 2034 2216 
Q 1584 2216 1326 1975 
Q 1069 1734 1069 1313 
Q 1069 891 1326 650 
Q 1584 409 2034 409 
Q 2484 409 2743 651 
Q 3003 894 3003 1313 
Q 3003 1734 2745 1975 
Q 2488 2216 2034 2216 
z
M 1403 2484 
Q 997 2584 770 2862 
Q 544 3141 544 3541 
Q 544 4100 942 4425 
Q 1341 4750 2034 4750 
Q 2731 4750 3128 4425 
Q 3525 4100 3525 3541 
Q 3525 3141 3298 2862 
Q 3072 2584 2669 2484 
Q 3125 2378 3379 2068 
Q 3634 1759 3634 1313 
Q 3634 634 3220 271 
Q 2806 -91 2034 -91 
Q 1263 -91 848 271 
Q 434 634 434 1313 
Q 434 1759 690 2068 
Q 947 2378 1403 2484 
z
M 1172 3481 
Q 1172 3119 1398 2916 
Q 1625 2713 2034 2713 
Q 2441 2713 2670 2916 
Q 2900 3119 2900 3481 
Q 2900 3844 2670 4047 
Q 2441 4250 2034 4250 
Q 1625 4250 1398 4047 
Q 1172 3844 1172 3481 
z
" transform="scale(0.015625)"/>
       </defs>
       <use xlink:href="#DejaVuSans-38"/>
       <use xlink:href="#DejaVuSans-30" x="63.623047"/>
      </g>
     </g>
    </g>
    <g id="ytick_8">
     <g id="line2d_14">
      <g>
       <use xlink:href="#m6b29fe8f49" x="59.06" y="174.462222" style="stroke: #000000; stroke-width: 0.8"/>
      </g>
     </g>
     <g id="text_15">
      <!-- 90 -->
      <g transform="translate(36.79 179.021285) scale(0.12 -0.12)">
       <defs>
        <path id="DejaVuSans-39" d="M 703 97 
L 703 672 
Q 941 559 1184 500 
Q 1428 441 1663 441 
Q 2288 441 2617 861 
Q 2947 1281 2994 2138 
Q 2813 1869 2534 1725 
Q 2256 1581 1919 1581 
Q 1219 1581 811 2004 
Q 403 2428 403 3163 
Q 403 3881 828 4315 
Q 1253 4750 1959 4750 
Q 2769 4750 3195 4129 
Q 3622 3509 3622 2328 
Q 3622 1225 3098 567 
Q 2575 -91 1691 -91 
Q 1453 -91 1209 -44 
Q 966 3 703 97 
z
M 1959 2075 
Q 2384 2075 2632 2365 
Q 2881 2656 2881 3163 
Q 2881 3666 2632 3958 
Q 2384 4250 1959 4250 
Q 1534 4250 1286 3958 
Q 1038 3666 1038 3163 
Q 1038 2656 1286 2365 
Q 1534 2075 1959 2075 
z
" transform="scale(0.015625)"/>
       </defs>
       <use xlink:href="#DejaVuSans-39"/>
       <use xlink:href="#DejaVuSans-30" x="63.623047"/>
      </g>
     </g>
    </g>
    <g id="ytick_9">
     <g id="line2d_15">
      <g>
       <use xlink:href="#m6b29fe8f49" x="59.06" y="103.551111" style="stroke: #000000; stroke-width: 0.8"/>
      </g>
     </g>
     <g id="text_16">
      <!-- 100 -->
      <g transform="translate(29.155 108.110174) scale(0.12 -0.12)">
       <use xlink:href="#DejaVuSans-31"/>
       <use xlink:href="#DejaVuSans-30" x="63.623047"/>
       <use xlink:href="#DejaVuSans-30" x="127.246094"/>
      </g>
     </g>
    </g>
    <g id="ytick_10">
     <g id="line2d_16">
      <g>
       <use xlink:href="#m6b29fe8f49" x="59.06" y="32.64" style="stroke: #000000; stroke-width: 0.8"/>
      </g>
     </g>
     <g id="text_17">
      <!-- 110 -->
      <g transform="translate(29.155 37.199062) scale(0.12 -0.12)">
       <use xlink:href="#DejaVuSans-31"/>
       <use xlink:href="#DejaVuSans-31" x="63.623047"/>
       <use xlink:href="#DejaVuSans-30" x="127.246094"/>
      </g>
     </g>
    </g>
    <g id="text_18">
     <!-- Temperature, T [oC] -->
     <g transform="translate(21.8275 431.64875) rotate(-90) scale(0.16 -0.16)">
      <defs>
       <path id="DejaVuSans-54" d="M -19 4666 
L 3928 4666 
L 3928 4134 
L 2272 4134 
L 2272 0 
L 1638 0 
L 1638 4134 
L -19 4134 
L -19 4666 
z
" transform="scale(0.015625)"/>
       <path id="DejaVuSans-65" d="M 3597 1894 
L 3597 1613 
L 953 1613 
Q 991 1019 1311 708 
Q 1631 397 2203 397 
Q 2534 397 2845 478 
Q 3156 559 3463 722 
L 3463 178 
Q 3153 47 2828 -22 
Q 2503 -91 2169 -91 
Q 1331 -91 842 396 
Q 353 884 353 1716 
Q 353 2575 817 3079 
Q 1281 3584 2069 3584 
Q 2775 3584 3186 3129 
Q 3597 2675 3597 1894 
z
M 3022 2063 
Q 3016 2534 2758 2815 
Q 2500 3097 2075 3097 
Q 1594 3097 1305 2825 
Q 1016 2553 972 2059 
L 3022 2063 
z
" transform="scale(0.015625)"/>
       <path id="DejaVuSans-6d" d="M 3328 2828 
Q 3544 3216 3844 3400 
Q 4144 3584 4550 3584 
Q 5097 3584 5394 3201 
Q 5691 2819 5691 2113 
L 5691 0 
L 5113 0 
L 5113 2094 
Q 5113 2597 4934 2840 
Q 4756 3084 4391 3084 
Q 3944 3084 3684 2787 
Q 3425 2491 3425 1978 
L 3425 0 
L 2847 0 
L 2847 2094 
Q 2847 2600 2669 2842 
Q 2491 3084 2119 3084 
Q 1678 3084 1418 2786 
Q 1159 2488 1159 1978 
L 1159 0 
L 581 0 
L 581 3500 
L 1159 3500 
L 1159 2956 
Q 1356 3278 1631 3431 
Q 1906 3584 2284 3584 
Q 2666 3584 2933 3390 
Q 3200 3197 3328 2828 
z
" transform="scale(0.015625)"/>
       <path id="DejaVuSans-61" d="M 2194 1759 
Q 1497 1759 1228 1600 
Q 959 1441 959 1056 
Q 959 750 1161 570 
Q 1363 391 1709 391 
Q 2188 391 2477 730 
Q 2766 1069 2766 1631 
L 2766 1759 
L 2194 1759 
z
M 3341 1997 
L 3341 0 
L 2766 0 
L 2766 531 
Q 2569 213 2275 61 
Q 1981 -91 1556 -91 
Q 1019 -91 701 211 
Q 384 513 384 1019 
Q 384 1609 779 1909 
Q 1175 2209 1959 2209 
L 2766 2209 
L 2766 2266 
Q 2766 2663 2505 2880 
Q 2244 3097 1772 3097 
Q 1472 3097 1187 3025 
Q 903 2953 641 2809 
L 641 3341 
Q 956 3463 1253 3523 
Q 1550 3584 1831 3584 
Q 2591 3584 2966 3190 
Q 3341 2797 3341 1997 
z
" transform="scale(0.015625)"/>
       <path id="DejaVuSans-75" d="M 544 1381 
L 544 3500 
L 1119 3500 
L 1119 1403 
Q 1119 906 1312 657 
Q 1506 409 1894 409 
Q 2359 409 2629 706 
Q 2900 1003 2900 1516 
L 2900 3500 
L 3475 3500 
L 3475 0 
L 2900 0 
L 2900 538 
Q 2691 219 2414 64 
Q 2138 -91 1772 -91 
Q 1169 -91 856 284 
Q 544 659 544 1381 
z
M 1991 3584 
L 1991 3584 
z
" transform="scale(0.015625)"/>
       <path id="DejaVuSans-43" d="M 4122 4306 
L 4122 3641 
Q 3803 3938 3442 4084 
Q 3081 4231 2675 4231 
Q 1875 4231 1450 3742 
Q 1025 3253 1025 2328 
Q 1025 1406 1450 917 
Q 1875 428 2675 428 
Q 3081 428 3442 575 
Q 3803 722 4122 1019 
L 4122 359 
Q 3791 134 3420 21 
Q 3050 -91 2638 -91 
Q 1578 -91 968 557 
Q 359 1206 359 2328 
Q 359 3453 968 4101 
Q 1578 4750 2638 4750 
Q 3056 4750 3426 4639 
Q 3797 4528 4122 4306 
z
" transform="scale(0.015625)"/>
      </defs>
      <use xlink:href="#DejaVuSans-54"/>
      <use xlink:href="#DejaVuSans-65" x="44.083984"/>
      <use xlink:href="#DejaVuSans-6d" x="105.607422"/>
      <use xlink:href="#DejaVuSans-70" x="203.019531"/>
      <use xlink:href="#DejaVuSans-65" x="266.496094"/>
      <use xlink:href="#DejaVuSans-72" x="328.019531"/>
      <use xlink:href="#DejaVuSans-61" x="369.132812"/>
      <use xlink:href="#DejaVuSans-74" x="430.412109"/>
      <use xlink:href="#DejaVuSans-75" x="469.621094"/>
      <use xlink:href="#DejaVuSans-72" x="533"/>
      <use xlink:href="#DejaVuSans-65" x="571.863281"/>
      <use xlink:href="#DejaVuSans-2c" x="633.386719"/>
      <use xlink:href="#DejaVuSans-20" x="665.173828"/>
      <use xlink:href="#DejaVuSans-54" x="696.960938"/>
      <use xlink:href="#DejaVuSans-20" x="758.044922"/>
      <use xlink:href="#DejaVuSans-5b" x="789.832031"/>
      <use xlink:href="#DejaVuSans-6f" x="828.845703"/>
      <use xlink:href="#DejaVuSans-43" x="890.027344"/>
      <use xlink:href="#DejaVuSans-5d" x="959.851562"/>
     </g>
    </g>
   </g>
   <g id="line2d_17">
    <path d="M 149.008566 674.650151 
L 229.589663 620.8736 
L 303.133405 571.887245 
L 360.144179 534.100381 
L 360.366694 534.100381 
L 361.818699 534.100381 
L 363.30811 534.100381 
L 364.835891 534.100381 
L 366.403031 534.100381 
L 368.010543 534.100381 
L 369.659468 534.100381 
L 371.350872 534.100381 
L 373.08585 534.100381 
L 374.865524 534.100381 
L 376.691046 534.100381 
L 378.563597 534.100381 
L 380.484388 534.100381 
L 382.454663 534.100381 
L 384.475695 534.100381 
L 386.548793 534.100381 
L 388.675298 534.100381 
L 390.856586 534.100381 
L 393.094068 534.100381 
L 395.389191 534.100381 
L 397.743442 534.100381 
L 400.158342 534.100381 
L 402.635454 534.100381 
L 405.176382 534.100381 
L 407.782769 534.100381 
L 410.456301 534.100381 
L 413.198708 534.100381 
L 416.011765 534.100381 
L 418.897292 534.100381 
L 421.857155 534.100381 
L 424.89327 534.100381 
L 428.007601 534.100381 
L 431.202163 534.100381 
L 434.479023 534.100381 
L 437.840301 534.100381 
L 441.288172 534.100381 
L 444.824867 534.100381 
L 448.452673 534.100381 
L 452.173939 534.100381 
L 455.991071 534.100381 
L 459.90654 534.100381 
L 463.922878 534.100381 
L 468.042686 534.100381 
L 472.268627 534.100381 
L 476.603436 534.100381 
L 481.049919 534.100381 
L 485.610951 534.100381 
L 490.289483 534.100381 
L 495.088544 534.100381 
L 500.011237 534.100381 
L 505.060749 534.100381 
L 510.240345 534.100381 
L 515.553377 534.100381 
L 521.003284 534.100381 
L 526.59359 534.100381 
L 532.327912 534.100381 
L 538.209962 534.100381 
L 544.243545 534.100381 
L 550.432563 534.100381 
L 556.781023 534.100381 
L 563.293031 534.100381 
L 569.972801 534.100381 
L 576.824654 534.100381 
L 583.853023 534.100381 
L 591.062457 534.100381 
L 598.457619 534.100381 
L 606.043295 534.100381 
L 613.824392 534.100381 
L 621.805944 534.100381 
L 629.993117 534.100381 
L 638.391206 534.100381 
L 647.005646 534.100381 
L 655.842011 534.100381 
L 664.906016 534.100381 
L 674.203528 534.100381 
L 683.740561 534.100381 
L 693.523286 534.100381 
L 703.558032 534.100381 
L 713.851292 534.100381 
L 724.409726 534.100381 
L 735.240166 534.100381 
L 746.349617 534.100381 
L 757.745269 534.100381 
L 769.434495 534.100381 
L 781.424857 534.100381 
L 793.724114 534.100381 
L 806.340222 534.100381 
L 819.281345 534.100381 
L 832.555856 534.100381 
L 846.172343 534.100381 
L 860.139617 534.100381 
L 886.565019 534.100381 
L 914.246055 534.100381 
L 943.242386 534.100381 
L 973.61651 534.100381 
L 1005.433895 534.100381 
L 1038.763119 534.100381 
L 1073.676019 534.100381 
L 1110.247844 534.100381 
L 1148.557421 534.100381 
L 1188.687321 534.100381 
L 1230.724038 534.100381 
L 1274.758177 534.100381 
L 1320.884647 534.100381 
L 1331.838049 534.100381 
L 1372.043902 499.903955 
L 1427.911589 450.591347 
L 1441 438.587453 
" clip-path="url(#p10f244d229)" style="fill: none; stroke-dasharray: 3.2,0.8,0.5,0.8; stroke-dashoffset: 0; stroke: #363636; stroke-width: 0.5"/>
   </g>
   <g id="line2d_18">
    <path d="M 73.59641 721 
L 161.855417 661.681461 
L 243.54759 606.624122 
L 318.294062 556.256776 
L 386.615068 510.378742 
L 448.960316 468.818276 
L 505.705705 431.43178 
L 557.177717 398.080785 
L 603.685171 368.607645 
L 645.538737 342.825156 
L 677.830128 323.571802 
L 678.240788 323.571802 
L 681.092368 323.571802 
L 684.01741 323.571802 
L 687.017807 323.571802 
L 690.095499 323.571802 
L 693.252479 323.571802 
L 696.490789 323.571802 
L 699.812523 323.571802 
L 703.219831 323.571802 
L 706.714919 323.571802 
L 710.300046 323.571802 
L 713.977533 323.571802 
L 717.749758 323.571802 
L 721.619164 323.571802 
L 725.588253 323.571802 
L 729.659592 323.571802 
L 733.835818 323.571802 
L 738.11963 323.571802 
L 742.513802 323.571802 
L 747.021176 323.571802 
L 751.644668 323.571802 
L 756.38727 323.571802 
L 761.252051 323.571802 
L 766.242158 323.571802 
L 771.360819 323.571802 
L 776.611346 323.571802 
L 781.997137 323.571802 
L 787.521676 323.571802 
L 793.188537 323.571802 
L 799.001388 323.571802 
L 804.963988 323.571802 
L 811.080197 323.571802 
L 817.35397 323.571802 
L 823.789368 323.571802 
L 830.390554 323.571802 
L 837.161798 323.571802 
L 844.107483 323.571802 
L 851.232101 323.571802 
L 858.540263 323.571802 
L 866.036698 323.571802 
L 873.726254 323.571802 
L 881.613908 323.571802 
L 889.704763 323.571802 
L 898.004053 323.571802 
L 906.517149 323.571802 
L 915.249558 323.571802 
L 924.20693 323.571802 
L 933.395061 323.571802 
L 942.819896 323.571802 
L 952.487533 323.571802 
L 962.404225 323.571802 
L 972.576391 323.571802 
L 983.010611 323.571802 
L 993.713635 323.571802 
L 1004.69239 323.571802 
L 1015.953979 323.571802 
L 1027.505687 323.571802 
L 1039.354989 323.571802 
L 1051.509551 323.571802 
L 1063.977237 323.571802 
L 1076.766115 323.571802 
L 1089.884458 323.571802 
L 1103.340755 323.571802 
L 1117.143711 323.571802 
L 1131.302257 323.571802 
L 1145.825554 323.571802 
L 1160.722999 323.571802 
L 1176.004229 323.571802 
L 1191.679134 323.571802 
L 1207.757853 323.571802 
L 1224.25079 323.571802 
L 1241.168616 323.571802 
L 1258.522278 323.571802 
L 1276.323002 323.571802 
L 1294.582307 323.571802 
L 1313.312006 323.571802 
L 1331.513427 323.571802 
L 1332.447491 322.9821 
L 1350.878448 311.017959 
L 1370.208029 297.846867 
L 1390.465286 283.42717 
L 1411.679359 267.716614 
L 1433.879508 250.672045 
" clip-path="url(#p10f244d229)" style="fill: none; stroke-dasharray: 3.2,0.8,0.5,0.8; stroke-dashoffset: 0; stroke: #363636; stroke-width: 0.5"/>
   </g>
   <g id="line2d_19">
    <path d="M 84.426473 709.86164 
L 174.643554 648.728816 
L 257.433062 592.396273 
L 333.363843 540.656504 
L 402.955531 493.310041 
L 466.657815 450.183816 
L 524.856039 411.123713 
L 577.898883 375.97114 
L 626.126087 344.544179 
L 669.881299 316.633486 
L 709.51024 292.009914 
L 745.351723 270.43623 
L 777.728304 251.677314 
L 806.940001 235.50662 
L 833.261736 221.708993 
L 856.943785 210.080867 
L 878.214149 200.429038 
L 897.281908 192.568852 
L 914.340951 186.322354 
L 921.725562 183.891907 
L 924.310993 183.891907 
L 929.290319 183.891907 
L 934.397923 183.891907 
L 939.637107 183.891907 
L 945.011263 183.891907 
L 950.523868 183.891907 
L 956.178487 183.891907 
L 961.97878 183.891907 
L 967.9285 183.891907 
L 974.031495 183.891907 
L 980.291715 183.891907 
L 986.713211 183.891907 
L 993.300136 183.891907 
L 1000.056752 183.891907 
L 1006.987432 183.891907 
L 1014.096659 183.891907 
L 1021.389034 183.891907 
L 1028.869273 183.891907 
L 1036.542218 183.891907 
L 1044.412832 183.891907 
L 1052.486208 183.891907 
L 1060.76757 183.891907 
L 1069.262275 183.891907 
L 1077.975819 183.891907 
L 1086.913841 183.891907 
L 1096.082123 183.891907 
L 1105.486597 183.891907 
L 1115.133349 183.891907 
L 1125.028618 183.891907 
L 1135.178809 183.891907 
L 1145.590488 183.891907 
L 1156.270391 183.891907 
L 1167.225428 183.891907 
L 1178.462688 183.891907 
L 1189.989441 183.891907 
L 1201.813145 183.891907 
L 1213.94145 183.891907 
L 1226.382202 183.891907 
L 1239.143452 183.891907 
L 1252.233456 183.891907 
L 1265.660683 183.891907 
L 1272.001946 183.891907 
L 1277.893478 182.397023 
L 1289.174583 179.215277 
L 1300.868293 175.486983 
L 1313.003895 171.17348 
L 1325.611206 166.235633 
L 1338.720539 160.63379 
L 1352.362693 154.327709 
L 1366.568929 147.276469 
L 1381.370959 139.438356 
L 1396.800929 130.770737 
L 1412.891395 121.229939 
L 1429.675303 110.77112 
" clip-path="url(#p10f244d229)" style="fill: none; stroke-dasharray: 3.2,0.8,0.5,0.8; stroke-dashoffset: 0; stroke: #363636; stroke-width: 0.5"/>
   </g>
   <g id="line2d_20">
    <path d="M 96.153594 698.10055 
L 187.375742 635.790485 
L 271.249774 578.187739 
L 348.347991 525.082977 
L 419.188817 476.277748 
L 484.222806 431.596534 
L 543.845047 390.87486 
L 598.423041 353.937855 
L 648.318647 320.587516 
L 693.89447 290.603915 
L 735.508593 263.754716 
L 773.505695 239.805684 
L 808.210094 218.528092 
L 839.922549 199.702279 
L 868.920325 183.118394 
L 895.45918 168.575764 
L 919.776008 155.882007 
L 942.091336 144.852484 
L 962.611312 135.310263 
L 981.529112 127.086513 
L 999.025858 120.021173 
L 1015.271138 113.963727 
L 1030.423244 108.77398 
L 1044.629179 104.322746 
L 1058.024522 100.492397 
L 1070.733207 97.177215 
L 1082.867302 94.283502 
L 1094.526909 91.729389 
L 1105.800247 89.444333 
L 1116.764018 87.368293 
L 1127.484068 85.450634 
L 1138.016322 83.648833 
L 1148.407948 81.927071 
L 1158.698652 80.254824 
L 1168.922009 78.605533 
L 1179.106756 76.955403 
L 1189.27798 75.282388 
L 1199.458147 73.565362 
L 1209.667978 71.783472 
L 1219.927154 69.915652 
L 1230.254867 67.940277 
L 1240.670243 65.834925 
L 1251.192648 63.576224 
L 1261.841908 61.139761 
L 1272.638461 58.500034 
L 1283.603455 55.630427 
L 1294.758801 52.503211 
L 1306.127212 49.089538 
L 1317.73221 45.359449 
L 1329.598127 41.281868 
L 1341.750096 36.824595 
L 1354.214043 31.954292 
" clip-path="url(#p10f244d229)" style="fill: none; stroke-dasharray: 3.2,0.8,0.5,0.8; stroke-dashoffset: 0; stroke: #363636; stroke-width: 0.5"/>
   </g>
   <g id="line2d_21">
    <path d="M 143.492754 680.217197 
L 179.57061 655.963026 
L 215.583719 631.708856 
L 251.544384 607.454685 
L 287.46675 583.200515 
L 323.367716 558.946344 
L 359.268027 534.692174 
L 395.193461 510.438003 
L 431.175956 486.183832 
L 467.254608 461.929662 
L 503.476541 437.675491 
L 539.897889 413.421321 
L 576.585273 389.16715 
L 613.618476 364.91298 
L 651.095336 340.658809 
L 689.140645 316.404639 
L 727.922432 292.150468 
L 767.68276 267.896298 
L 808.799601 243.642127 
L 851.924399 219.387957 
L 855.614425 217.381445 
L 859.327172 215.374933 
L 863.063731 213.368422 
L 866.825271 211.36191 
L 870.613055 209.355398 
L 874.428446 207.348886 
L 878.272918 205.342375 
L 882.14807 203.335863 
L 886.05564 201.329351 
L 889.997525 199.32284 
L 893.975796 197.316328 
L 897.992728 195.309816 
L 902.050822 193.303304 
L 906.152841 191.296793 
L 910.30185 189.290281 
L 914.501258 187.283769 
L 918.754883 185.277258 
L 923.067012 183.270746 
L 927.442492 181.264234 
L 931.886837 179.257722 
L 936.406354 177.251211 
L 941.008317 175.244699 
L 945.701181 173.238187 
L 950.494865 171.231676 
L 955.401125 169.225164 
L 960.434059 167.218652 
L 965.610804 165.212141 
L 970.952514 163.205629 
L 976.485786 161.199117 
L 982.244791 159.192605 
L 988.274592 157.186094 
L 994.636557 155.179582 
L 1001.417734 153.17307 
L 1008.748295 151.166559 
L 1016.837466 149.160047 
L 1026.058531 147.153535 
L 1037.198265 145.147023 
L 1052.542576 143.140512 
L 1106.638575 141.134 
" clip-path="url(#p10f244d229)" style="fill: none; stroke: #363636; stroke-width: 0.5; stroke-linecap: square"/>
   </g>
   <g id="line2d_22">
    <path d="M 1319.588499 680.217197 
L 1321.704872 655.963026 
L 1323.841813 631.708856 
L 1325.960569 607.454685 
L 1328.021028 583.200515 
L 1329.981125 558.946344 
L 1331.795985 534.692174 
L 1333.416775 510.438003 
L 1334.789245 486.183832 
L 1335.851868 461.929662 
L 1336.533439 437.675491 
L 1336.749882 413.421321 
L 1336.399816 389.16715 
L 1335.358141 364.91298 
L 1333.46631 340.658809 
L 1330.516892 316.404639 
L 1326.227658 292.150468 
L 1320.195141 267.896298 
L 1311.803745 243.642127 
L 1300.024805 219.387957 
L 1298.848496 217.381445 
L 1297.635207 215.374933 
L 1296.38329 213.368422 
L 1295.090974 211.36191 
L 1293.756356 209.355398 
L 1292.377382 207.348886 
L 1290.951838 205.342375 
L 1289.477325 203.335863 
L 1287.95124 201.329351 
L 1286.370749 199.32284 
L 1284.732761 197.316328 
L 1283.033891 195.309816 
L 1281.270422 193.303304 
L 1279.438257 191.296793 
L 1277.532862 189.290281 
L 1275.549202 187.283769 
L 1273.481656 185.277258 
L 1271.323921 183.270746 
L 1269.06889 181.264234 
L 1266.708508 179.257722 
L 1264.233576 177.251211 
L 1261.633526 175.244699 
L 1258.896108 173.238187 
L 1256.007009 171.231676 
L 1252.949328 169.225164 
L 1249.702882 167.218652 
L 1246.243256 165.212141 
L 1242.540467 163.205629 
L 1238.557035 161.199117 
L 1234.245118 159.192605 
L 1229.542086 157.186094 
L 1224.363355 155.179582 
L 1218.590108 153.17307 
L 1212.046665 151.166559 
L 1204.454503 149.160047 
L 1195.3251 147.153535 
L 1183.651781 145.147023 
L 1166.607216 143.140512 
L 1106.638575 141.134 
" clip-path="url(#p10f244d229)" style="fill: none; stroke: #363636; stroke-width: 0.5; stroke-linecap: square"/>
   </g>
   <g id="line2d_23">
    <path d="M 212.003795 634.121595 
L 212.059264 633.973587 
L 212.114734 633.825546 
L 212.170203 633.677473 
L 212.225673 633.529369 
L 212.281142 633.381232 
L 212.336611 633.233063 
L 212.392081 633.084863 
L 212.44755 632.93663 
L 212.50302 632.788365 
L 212.558489 632.640069 
L 212.613959 632.49174 
L 212.669428 632.343379 
L 212.724898 632.194987 
L 212.780367 632.046562 
L 212.835837 631.898106 
L 212.891306 631.749617 
L 212.946775 631.601097 
L 213.002245 631.452544 
L 213.057714 631.30396 
L 213.113184 631.155344 
L 213.168653 631.006695 
L 213.224123 630.858015 
L 213.279592 630.709303 
L 213.335062 630.560559 
L 213.390531 630.411783 
L 213.446 630.262975 
L 213.50147 630.114135 
L 213.556939 629.965263 
L 213.612409 629.81636 
L 213.667878 629.667424 
L 213.723348 629.518457 
L 213.778817 629.369457 
L 213.834287 629.220426 
L 213.889756 629.071363 
L 213.945226 628.922268 
L 214.000695 628.773141 
L 214.056164 628.623982 
L 214.111634 628.474792 
L 214.167103 628.325569 
L 214.222573 628.176315 
L 214.278042 628.027029 
L 214.333512 627.877711 
L 214.388981 627.728361 
L 214.444451 627.578979 
L 214.49992 627.429566 
L 214.55539 627.28012 
L 214.610859 627.130643 
L 214.666328 626.981134 
L 214.721798 626.831593 
L 214.777267 626.682021 
L 214.832737 626.532416 
L 214.888206 626.38278 
L 214.943676 626.233112 
L 214.999145 626.083412 
L 215.054615 625.93368 
L 215.110084 625.783917 
L 215.165553 625.634122 
L 215.221023 625.484295 
L 215.276492 625.334436 
L 215.331962 625.184545 
L 215.387431 625.034623 
L 215.442901 624.884669 
L 215.49837 624.734683 
L 215.55384 624.584665 
L 215.609309 624.434616 
L 215.664779 624.284535 
L 215.720248 624.134422 
L 215.775717 623.984278 
L 215.831187 623.834101 
L 215.886656 623.683893 
L 215.942126 623.533654 
L 215.997595 623.383382 
L 216.053065 623.233079 
L 216.108534 623.082744 
L 216.164004 622.932377 
L 216.219473 622.781979 
L 216.274942 622.631549 
L 216.330412 622.481088 
L 216.385881 622.330594 
L 216.441351 622.180069 
L 216.49682 622.029512 
L 216.55229 621.878924 
L 216.607759 621.728304 
L 216.663229 621.577652 
L 216.718698 621.426969 
L 216.774168 621.276254 
L 216.829637 621.125507 
L 216.885106 620.974729 
L 216.940576 620.823919 
L 216.996045 620.673077 
L 217.051515 620.522204 
L 217.106984 620.371299 
L 217.162454 620.220362 
L 217.217923 620.069394 
L 217.273393 619.918394 
L 217.328862 619.767363 
L 217.384332 619.6163 
L 217.439801 619.465205 
L 217.49527 619.314079 
" clip-path="url(#p10f244d229)" style="fill: none; stroke: #ff0000; stroke-width: 2; stroke-linecap: square"/>
   </g>
   <g id="line2d_24">
    <path d="M 217.49527 619.314079 
L 267.01563 585.572445 
L 313.978359 553.549804 
L 358.505143 523.199322 
L 400.707867 494.47794 
L 440.687826 467.346785 
L 478.536753 441.769998 
L 514.339231 417.712579 
L 548.175608 395.138096 
L 580.124578 374.006942 
L 610.264881 354.275487 
L 638.676034 335.896088 
L 665.438223 318.817739 
L 690.631677 302.987061 
L 714.33579 288.349379 
L 736.628228 274.849714 
L 757.584165 262.433579 
L 777.275715 251.047563 
L 795.771569 240.639696 
L 813.136842 231.159636 
L 829.433074 222.558711 
L 844.718362 214.789869 
L 859.047577 207.80756 
L 872.472635 201.567596 
L 885.042801 196.026987 
L 896.805005 191.14379 
L 907.80416 186.876963 
L 918.083486 183.186233 
L 927.684819 180.031979 
L 935.193973 177.78603 
L 935.696124 177.793985 
L 938.728994 177.842007 
L 941.808777 177.890789 
L 944.936184 177.940346 
L 948.11194 177.990689 
L 951.336778 178.04183 
L 954.611442 178.093783 
L 957.936689 178.146561 
L 961.313285 178.200176 
L 964.742007 178.254642 
L 968.223644 178.309973 
L 971.758997 178.366182 
L 975.348877 178.423285 
L 978.994108 178.481294 
L 982.695526 178.540225 
L 986.453978 178.600092 
L 990.270323 178.66091 
L 994.145435 178.722695 
L 998.080197 178.785462 
L 1002.075507 178.849227 
L 1006.132275 178.914006 
L 1010.251424 178.979815 
L 1014.43389 179.046671 
L 1018.680624 179.11459 
L 1022.992588 179.18359 
L 1027.370759 179.253689 
L 1031.816127 179.324903 
L 1036.329697 179.39725 
L 1040.912489 179.47075 
L 1045.565534 179.54542 
L 1050.289881 179.62128 
L 1055.086592 179.698349 
L 1059.956744 179.776645 
L 1064.901429 179.85619 
L 1069.921755 179.937002 
L 1075.018844 180.019103 
L 1080.193836 180.102514 
L 1085.447883 180.187255 
L 1090.782157 180.273348 
L 1096.197843 180.360815 
L 1101.696144 180.449679 
L 1107.278278 180.539961 
L 1112.945483 180.631685 
L 1118.69901 180.724874 
L 1124.540128 180.819551 
L 1130.470125 180.915742 
L 1136.490305 181.013471 
L 1142.601989 181.112762 
L 1148.806517 181.213641 
L 1155.105248 181.316134 
L 1161.499556 181.420267 
L 1167.990835 181.526066 
L 1174.5805 181.63356 
L 1181.269979 181.742774 
L 1188.060725 181.853738 
L 1194.954207 181.96648 
L 1201.951912 182.081029 
L 1209.05535 182.197415 
L 1216.266048 182.315667 
L 1223.585554 182.435816 
L 1231.015435 182.557892 
L 1238.55728 182.681929 
L 1246.212696 182.807956 
L 1253.983313 182.936008 
L 1261.87078 183.066118 
L 1269.876768 183.198318 
L 1271.269538 183.221289 
L 1276.62949 182.022998 
L 1283.226787 180.414935 
L 1289.961507 178.62419 
L 1296.839733 176.642666 
L 1303.867607 174.462222 
" clip-path="url(#p10f244d229)" style="fill: none; stroke: #ff0000; stroke-width: 2; stroke-linecap: square"/>
   </g>
   <g id="line2d_25">
    <path d="M 1303.867607 174.462222 
L 1304.04607 179.853347 
L 1304.224534 185.230558 
L 1304.402997 190.593809 
L 1304.581461 195.943037 
L 1304.759925 201.278161 
L 1304.938388 206.599086 
L 1305.116852 211.905704 
L 1305.295315 217.1979 
L 1305.473779 222.475547 
L 1305.652242 227.738515 
L 1305.830706 232.442971 
L 1306.00917 236.719274 
L 1306.187633 241.013907 
L 1306.366097 245.326036 
L 1306.54456 249.654875 
L 1306.723024 253.999682 
L 1306.901487 258.359756 
L 1307.079951 262.734429 
L 1307.258414 267.123064 
L 1307.436878 271.525055 
L 1307.615342 275.939818 
L 1307.793805 280.366794 
L 1307.972269 284.805446 
L 1308.150732 289.255255 
L 1308.329196 293.71572 
L 1308.507659 298.186355 
L 1308.686123 302.666692 
L 1308.864586 307.156274 
L 1309.04305 311.654656 
L 1309.221514 316.161408 
L 1309.399977 320.676108 
L 1309.578441 325.198344 
L 1309.756904 329.727716 
L 1309.935368 334.263831 
L 1310.113831 338.806303 
L 1310.292295 343.354755 
L 1310.470759 347.908819 
L 1310.649222 352.468131 
L 1310.827686 357.032335 
L 1311.006149 361.60108 
L 1311.184613 366.174022 
L 1311.363076 370.750822 
L 1311.54154 375.331146 
L 1311.720003 379.914665 
L 1311.898467 384.501056 
L 1312.076931 389.090001 
L 1312.255394 393.681183 
L 1312.433858 398.274294 
L 1312.612321 402.869026 
L 1312.790785 407.46508 
L 1312.969248 412.062156 
L 1313.147712 416.659961 
L 1313.326176 421.258206 
L 1313.504639 425.856603 
L 1313.683103 430.454872 
L 1313.861566 435.052733 
L 1314.04003 439.649912 
L 1314.218493 444.246136 
L 1314.396957 448.841139 
L 1314.57542 453.434656 
L 1314.753884 458.026427 
L 1314.932348 462.616194 
L 1315.110811 467.203704 
L 1315.289275 471.788707 
L 1315.467738 476.370955 
L 1315.646202 480.950207 
L 1315.824665 485.526222 
L 1316.003129 490.098764 
L 1316.181593 494.667601 
L 1316.360056 499.232503 
L 1316.53852 503.793244 
L 1316.716983 508.349603 
L 1316.895447 512.901361 
L 1317.07391 517.448301 
L 1317.252374 521.990213 
L 1317.430837 526.526888 
L 1317.609301 531.058122 
L 1317.787765 535.583712 
L 1317.966228 540.103462 
L 1318.144692 544.617176 
L 1318.323155 549.124664 
L 1318.501619 553.625738 
L 1318.680082 558.120215 
L 1318.858546 562.607913 
L 1319.03701 567.088656 
L 1319.215473 571.562269 
L 1319.393937 576.028583 
L 1319.5724 580.48743 
L 1319.750864 584.938646 
L 1319.929327 589.382072 
L 1320.107791 593.817551 
L 1320.286254 598.244928 
L 1320.464718 602.664053 
L 1320.643182 607.07478 
L 1320.821645 611.476963 
L 1321.000109 615.870463 
L 1321.178572 620.255141 
L 1321.357036 624.630864 
L 1321.535499 628.997499 
" clip-path="url(#p10f244d229)" style="fill: none; stroke: #ff0000; stroke-width: 2; stroke-linecap: square"/>
   </g>
   <g id="line2d_26">
    <path d="M 1321.535499 628.997499 
L 1282.914492 629.172066 
L 1245.608218 629.340943 
L 1209.570791 629.504311 
L 1174.757994 629.662348 
L 1141.12722 629.815225 
L 1108.637407 629.963109 
L 1077.248976 630.106161 
L 1046.923777 630.244537 
L 1017.625033 630.378387 
L 989.317287 630.507858 
L 961.966353 630.633092 
L 935.539264 630.754227 
L 910.00423 630.871393 
L 885.330593 630.984721 
L 861.488781 631.094336 
L 838.450273 631.200356 
L 816.187553 631.3029 
L 794.674078 631.40208 
L 773.88424 631.498006 
L 753.79333 631.590784 
L 734.377507 631.680515 
L 715.613766 631.7673 
L 697.479905 631.851234 
L 679.954497 631.932411 
L 663.016864 632.01092 
L 646.647046 632.086848 
L 630.825776 632.16028 
L 615.534456 632.231298 
L 600.755135 632.299979 
L 586.470479 632.366401 
L 572.663755 632.430638 
L 559.318808 632.49276 
L 546.420037 632.552838 
L 533.952382 632.610937 
L 521.901297 632.667124 
L 510.252738 632.72146 
L 498.99314 632.774007 
L 488.109405 632.824822 
L 477.588883 632.873963 
L 467.419356 632.921485 
L 457.589022 632.967441 
L 448.086484 633.011882 
L 438.900732 633.054858 
L 430.021131 633.096417 
L 421.437407 633.136606 
L 413.139637 633.175469 
L 405.118235 633.213051 
L 397.363939 633.249393 
L 389.8678 633.284536 
L 382.621176 633.318519 
L 375.615714 633.351382 
L 368.843345 633.38316 
L 362.296274 633.413889 
L 355.966966 633.443604 
L 349.848143 633.472338 
L 343.932773 633.500124 
L 338.214059 633.526992 
L 332.685435 633.552974 
L 327.340554 633.578097 
L 322.173285 633.602391 
L 317.177702 633.625883 
L 312.348079 633.648599 
L 307.678881 633.670565 
L 303.164759 633.691805 
L 298.800546 633.712344 
L 294.581246 633.732204 
L 290.502031 633.751408 
L 286.558236 633.769977 
L 282.74535 633.787934 
L 279.059017 633.805296 
L 275.495022 633.822086 
L 272.049296 633.83832 
L 268.717902 633.854018 
L 265.497036 633.869197 
L 262.383024 633.883875 
L 259.37231 633.898067 
L 256.461461 633.91179 
L 253.647156 633.92506 
L 250.926185 633.937891 
L 248.295448 633.950298 
L 245.751946 633.962295 
L 243.292779 633.973896 
L 240.915147 633.985113 
L 238.61634 633.995959 
L 236.393741 634.006446 
L 234.244819 634.016587 
L 232.167128 634.026392 
L 230.158303 634.035874 
L 228.216056 634.045041 
L 226.338179 634.053906 
L 224.522535 634.062477 
L 222.767059 634.070766 
L 221.069753 634.07878 
L 219.428688 634.086529 
L 217.841998 634.094021 
L 216.307879 634.101266 
L 214.824587 634.108272 
L 213.390435 634.115046 
L 212.003795 634.121595 
" clip-path="url(#p10f244d229)" style="fill: none; stroke: #ff0000; stroke-width: 2; stroke-linecap: square"/>
   </g>
   <g id="patch_3">
    <path d="M 59.06 670.84 
L 59.06 32.64 
" style="fill: none; stroke: #000000; stroke-width: 0.8; stroke-linejoin: miter; stroke-linecap: square"/>
   </g>
   <g id="patch_4">
    <path d="M 1429.2 670.84 
L 1429.2 32.64 
" style="fill: none; stroke: #000000; stroke-width: 0.8; stroke-linejoin: miter; stroke-linecap: square"/>
   </g>
   <g id="patch_5">
    <path d="M 59.06 670.84 
L 1429.2 670.84 
" style="fill: none; stroke: #000000; stroke-width: 0.8; stroke-linejoin: miter; stroke-linecap: square"/>
   </g>
   <g id="patch_6">
    <path d="M 59.06 32.64 
L 1429.2 32.64 
" style="fill: none; stroke: #000000; stroke-width: 0.8; stroke-linejoin: miter; stroke-linecap: square"/>
   </g>
   <g id="text_19">
    <g id="patch_7">
     <path d="M 839.123992 538.939443 
L 881.155242 538.939443 
L 881.155242 529.261318 
L 839.123992 529.261318 
z
" style="fill: #ffffff; stroke: #ffffff; stroke-linejoin: miter"/>
    </g>
    <!-- 10.0 bar -->
    <g transform="translate(839.123992 536.859756) scale(0.1 -0.1)">
     <defs>
      <path id="DejaVuSans-62" d="M 3116 1747 
Q 3116 2381 2855 2742 
Q 2594 3103 2138 3103 
Q 1681 3103 1420 2742 
Q 1159 2381 1159 1747 
Q 1159 1113 1420 752 
Q 1681 391 2138 391 
Q 2594 391 2855 752 
Q 3116 1113 3116 1747 
z
M 1159 2969 
Q 1341 3281 1617 3432 
Q 1894 3584 2278 3584 
Q 2916 3584 3314 3078 
Q 3713 2572 3713 1747 
Q 3713 922 3314 415 
Q 2916 -91 2278 -91 
Q 1894 -91 1617 61 
Q 1341 213 1159 525 
L 1159 0 
L 581 0 
L 581 4863 
L 1159 4863 
L 1159 2969 
z
" transform="scale(0.015625)"/>
     </defs>
     <use xlink:href="#DejaVuSans-31"/>
     <use xlink:href="#DejaVuSans-30" x="63.623047"/>
     <use xlink:href="#DejaVuSans-2e" x="127.246094"/>
     <use xlink:href="#DejaVuSans-30" x="159.033203"/>
     <use xlink:href="#DejaVuSans-20" x="222.65625"/>
     <use xlink:href="#DejaVuSans-62" x="254.443359"/>
     <use xlink:href="#DejaVuSans-61" x="317.919922"/>
     <use xlink:href="#DejaVuSans-72" x="379.199219"/>
    </g>
   </g>
   <g id="text_20">
    <g id="patch_8">
     <path d="M 1154.988604 328.410865 
L 1197.019854 328.410865 
L 1197.019854 318.73274 
L 1154.988604 318.73274 
z
" style="fill: #ffffff; stroke: #ffffff; stroke-linejoin: miter"/>
    </g>
    <!-- 20.0 bar -->
    <g transform="translate(1154.988604 326.331177) scale(0.1 -0.1)">
     <use xlink:href="#DejaVuSans-32"/>
     <use xlink:href="#DejaVuSans-30" x="63.623047"/>
     <use xlink:href="#DejaVuSans-2e" x="127.246094"/>
     <use xlink:href="#DejaVuSans-30" x="159.033203"/>
     <use xlink:href="#DejaVuSans-20" x="222.65625"/>
     <use xlink:href="#DejaVuSans-62" x="254.443359"/>
     <use xlink:href="#DejaVuSans-61" x="317.919922"/>
     <use xlink:href="#DejaVuSans-72" x="379.199219"/>
    </g>
   </g>
   <g id="text_21">
    <g id="patch_9">
     <path d="M 1250.986321 188.73097 
L 1293.017571 188.73097 
L 1293.017571 179.052845 
L 1250.986321 179.052845 
z
" style="fill: #ffffff; stroke: #ffffff; stroke-linejoin: miter"/>
    </g>
    <!-- 30.0 bar -->
    <g transform="translate(1250.986321 186.651282) scale(0.1 -0.1)">
     <use xlink:href="#DejaVuSans-33"/>
     <use xlink:href="#DejaVuSans-30" x="63.623047"/>
     <use xlink:href="#DejaVuSans-2e" x="127.246094"/>
     <use xlink:href="#DejaVuSans-30" x="159.033203"/>
     <use xlink:href="#DejaVuSans-20" x="222.65625"/>
     <use xlink:href="#DejaVuSans-62" x="254.443359"/>
     <use xlink:href="#DejaVuSans-61" x="317.919922"/>
     <use xlink:href="#DejaVuSans-72" x="379.199219"/>
    </g>
   </g>
   <g id="text_22">
    <g id="patch_10">
     <path d="M 1242.572429 70.822747 
L 1283.405632 60.859038 
L 1281.111386 51.456776 
L 1240.278183 61.420484 
z
" style="fill: #ffffff; stroke: #ffffff; stroke-linejoin: miter"/>
    </g>
    <!-- 40.0 bar -->
    <g transform="translate(1242.079429 68.802338) rotate(-13.712776) scale(0.1 -0.1)">
     <use xlink:href="#DejaVuSans-34"/>
     <use xlink:href="#DejaVuSans-30" x="63.623047"/>
     <use xlink:href="#DejaVuSans-2e" x="127.246094"/>
     <use xlink:href="#DejaVuSans-30" x="159.033203"/>
     <use xlink:href="#DejaVuSans-20" x="222.65625"/>
     <use xlink:href="#DejaVuSans-62" x="254.443359"/>
     <use xlink:href="#DejaVuSans-61" x="317.919922"/>
     <use xlink:href="#DejaVuSans-72" x="379.199219"/>
    </g>
   </g>
   <g id="text_23">
    <g id="patch_11">
     <path d="M 570.102122 399.659227 
L 588.645386 386.584789 
L 583.068424 378.675074 
L 564.52516 391.749512 
z
" style="fill: #ffffff; stroke: #ffffff; stroke-linejoin: miter"/>
    </g>
    <!-- 0.0 - -->
    <g transform="translate(568.903715 397.959545) rotate(-35.186802) scale(0.1 -0.1)">
     <defs>
      <path id="DejaVuSans-2d" d="M 313 2009 
L 1997 2009 
L 1997 1497 
L 313 1497 
L 313 2009 
z
" transform="scale(0.015625)"/>
     </defs>
     <use xlink:href="#DejaVuSans-30"/>
     <use xlink:href="#DejaVuSans-2e" x="63.623047"/>
     <use xlink:href="#DejaVuSans-30" x="95.410156"/>
     <use xlink:href="#DejaVuSans-20" x="159.033203"/>
     <use xlink:href="#DejaVuSans-2d" x="190.820312"/>
    </g>
   </g>
   <g id="text_24">
    <g id="patch_12">
     <path d="M 1331.407685 377.889139 
L 1331.714709 400.576124 
L 1341.391948 400.445162 
L 1341.084924 377.758176 
z
" style="fill: #ffffff; stroke: #ffffff; stroke-linejoin: miter"/>
    </g>
    <!-- 1.0 - -->
    <g transform="translate(1333.487182 377.860997) rotate(-270.77534) scale(0.1 -0.1)">
     <use xlink:href="#DejaVuSans-31"/>
     <use xlink:href="#DejaVuSans-2e" x="63.623047"/>
     <use xlink:href="#DejaVuSans-30" x="95.410156"/>
     <use xlink:href="#DejaVuSans-20" x="159.033203"/>
     <use xlink:href="#DejaVuSans-2d" x="190.820312"/>
    </g>
   </g>
   <g id="text_25">
    <!-- T-s Diagram for ORC System -->
    <g transform="translate(602.126875 26.64) scale(0.2 -0.2)">
     <defs>
      <path id="DejaVuSans-44" d="M 1259 4147 
L 1259 519 
L 2022 519 
Q 2988 519 3436 956 
Q 3884 1394 3884 2338 
Q 3884 3275 3436 3711 
Q 2988 4147 2022 4147 
L 1259 4147 
z
M 628 4666 
L 1925 4666 
Q 3281 4666 3915 4102 
Q 4550 3538 4550 2338 
Q 4550 1131 3912 565 
Q 3275 0 1925 0 
L 628 0 
L 628 4666 
z
" transform="scale(0.015625)"/>
      <path id="DejaVuSans-69" d="M 603 3500 
L 1178 3500 
L 1178 0 
L 603 0 
L 603 3500 
z
M 603 4863 
L 1178 4863 
L 1178 4134 
L 603 4134 
L 603 4863 
z
" transform="scale(0.015625)"/>
      <path id="DejaVuSans-66" d="M 2375 4863 
L 2375 4384 
L 1825 4384 
Q 1516 4384 1395 4259 
Q 1275 4134 1275 3809 
L 1275 3500 
L 2222 3500 
L 2222 3053 
L 1275 3053 
L 1275 0 
L 697 0 
L 697 3053 
L 147 3053 
L 147 3500 
L 697 3500 
L 697 3744 
Q 697 4328 969 4595 
Q 1241 4863 1831 4863 
L 2375 4863 
z
" transform="scale(0.015625)"/>
      <path id="DejaVuSans-4f" d="M 2522 4238 
Q 1834 4238 1429 3725 
Q 1025 3213 1025 2328 
Q 1025 1447 1429 934 
Q 1834 422 2522 422 
Q 3209 422 3611 934 
Q 4013 1447 4013 2328 
Q 4013 3213 3611 3725 
Q 3209 4238 2522 4238 
z
M 2522 4750 
Q 3503 4750 4090 4092 
Q 4678 3434 4678 2328 
Q 4678 1225 4090 567 
Q 3503 -91 2522 -91 
Q 1538 -91 948 565 
Q 359 1222 359 2328 
Q 359 3434 948 4092 
Q 1538 4750 2522 4750 
z
" transform="scale(0.015625)"/>
      <path id="DejaVuSans-52" d="M 2841 2188 
Q 3044 2119 3236 1894 
Q 3428 1669 3622 1275 
L 4263 0 
L 3584 0 
L 2988 1197 
Q 2756 1666 2539 1819 
Q 2322 1972 1947 1972 
L 1259 1972 
L 1259 0 
L 628 0 
L 628 4666 
L 2053 4666 
Q 2853 4666 3247 4331 
Q 3641 3997 3641 3322 
Q 3641 2881 3436 2590 
Q 3231 2300 2841 2188 
z
M 1259 4147 
L 1259 2491 
L 2053 2491 
Q 2509 2491 2742 2702 
Q 2975 2913 2975 3322 
Q 2975 3731 2742 3939 
Q 2509 4147 2053 4147 
L 1259 4147 
z
" transform="scale(0.015625)"/>
      <path id="DejaVuSans-53" d="M 3425 4513 
L 3425 3897 
Q 3066 4069 2747 4153 
Q 2428 4238 2131 4238 
Q 1616 4238 1336 4038 
Q 1056 3838 1056 3469 
Q 1056 3159 1242 3001 
Q 1428 2844 1947 2747 
L 2328 2669 
Q 3034 2534 3370 2195 
Q 3706 1856 3706 1288 
Q 3706 609 3251 259 
Q 2797 -91 1919 -91 
Q 1588 -91 1214 -16 
Q 841 59 441 206 
L 441 856 
Q 825 641 1194 531 
Q 1563 422 1919 422 
Q 2459 422 2753 634 
Q 3047 847 3047 1241 
Q 3047 1584 2836 1778 
Q 2625 1972 2144 2069 
L 1759 2144 
Q 1053 2284 737 2584 
Q 422 2884 422 3419 
Q 422 4038 858 4394 
Q 1294 4750 2059 4750 
Q 2388 4750 2728 4690 
Q 3069 4631 3425 4513 
z
" transform="scale(0.015625)"/>
     </defs>
     <use xlink:href="#DejaVuSans-54"/>
     <use xlink:href="#DejaVuSans-2d" x="51.958984"/>
     <use xlink:href="#DejaVuSans-73" x="88.042969"/>
     <use xlink:href="#DejaVuSans-20" x="140.142578"/>
     <use xlink:href="#DejaVuSans-44" x="171.929688"/>
     <use xlink:href="#DejaVuSans-69" x="248.931641"/>
     <use xlink:href="#DejaVuSans-61" x="276.714844"/>
     <use xlink:href="#DejaVuSans-67" x="337.994141"/>
     <use xlink:href="#DejaVuSans-72" x="401.470703"/>
     <use xlink:href="#DejaVuSans-61" x="442.583984"/>
     <use xlink:href="#DejaVuSans-6d" x="503.863281"/>
     <use xlink:href="#DejaVuSans-20" x="601.275391"/>
     <use xlink:href="#DejaVuSans-66" x="633.0625"/>
     <use xlink:href="#DejaVuSans-6f" x="668.267578"/>
     <use xlink:href="#DejaVuSans-72" x="729.449219"/>
     <use xlink:href="#DejaVuSans-20" x="770.5625"/>
     <use xlink:href="#DejaVuSans-4f" x="802.349609"/>
     <use xlink:href="#DejaVuSans-52" x="881.060547"/>
     <use xlink:href="#DejaVuSans-43" x="945.542969"/>
     <use xlink:href="#DejaVuSans-20" x="1015.367188"/>
     <use xlink:href="#DejaVuSans-53" x="1047.154297"/>
     <use xlink:href="#DejaVuSans-79" x="1110.630859"/>
     <use xlink:href="#DejaVuSans-73" x="1169.810547"/>
     <use xlink:href="#DejaVuSans-74" x="1221.910156"/>
     <use xlink:href="#DejaVuSans-65" x="1261.119141"/>
     <use xlink:href="#DejaVuSans-6d" x="1322.642578"/>
    </g>
   </g>
  </g>
 </g>
 <defs>
  <clipPath id="p10f244d229">
   <rect x="59.06" y="32.64" width="1370.14" height="638.2"/>
  </clipPath>
 </defs>
</svg>
