<?xml version="1.0" encoding="utf-8" standalone="no"?>
<!DOCTYPE svg PUBLIC "-//W3C//DTD SVG 1.1//EN"
  "http://www.w3.org/Graphics/SVG/1.1/DTD/svg11.dtd">
<svg xmlns:xlink="http://www.w3.org/1999/xlink" width="1440pt" height="720pt" viewBox="0 0 1440 720" xmlns="http://www.w3.org/2000/svg" version="1.1">
 <metadata>
  <rdf:RDF xmlns:dc="http://purl.org/dc/elements/1.1/" xmlns:cc="http://creativecommons.org/ns#" xmlns:rdf="http://www.w3.org/1999/02/22-rdf-syntax-ns#">
   <cc:Work>
    <dc:type rdf:resource="http://purl.org/dc/dcmitype/StillImage"/>
    <dc:date>2024-05-21T08:40:52.943247</dc:date>
    <dc:format>image/svg+xml</dc:format>
    <dc:creator>
     <cc:Agent>
      <dc:title>Matplotlib v3.8.1, https://matplotlib.org/</dc:title>
     </cc:Agent>
    </dc:creator>
   </cc:Work>
  </rdf:RDF>
 </metadata>
 <defs>
  <style type="text/css">*{stroke-linejoin: round; stroke-linecap: butt}</style>
 </defs>
 <g id="figure_1">
  <g id="patch_1">
   <path d="M 0 720 
L 1440 720 
L 1440 0 
L 0 0 
z
" style="fill: #ffffff"/>
  </g>
  <g id="axes_1">
   <g id="patch_2">
    <path d="M 58.97 670.84 
L 1429.2 670.84 
L 1429.2 32.64 
L 58.97 32.64 
z
" style="fill: #ffffff"/>
   </g>
   <g id="PathCollection_1">
    <defs>
     <path id="m6e9ff38aad" d="M 0 3 
C 0.795609 3 1.55874 2.683901 2.12132 2.12132 
C 2.683901 1.55874 3 0.795609 3 0 
C 3 -0.795609 2.683901 -1.55874 2.12132 -2.12132 
C 1.55874 -2.683901 0.795609 -3 0 -3 
C -0.795609 -3 -1.55874 -2.683901 -2.12132 -2.12132 
C -2.683901 -1.55874 -3 -0.795609 -3 0 
C -3 0.795609 -2.683901 1.55874 -2.12132 2.12132 
C -1.55874 2.683901 -0.795609 3 0 3 
z
" style="stroke: #ff0000"/>
    </defs>
    <g clip-path="url(#p2c8df391b2)">
     <use xlink:href="#m6e9ff38aad" x="135.446921" y="659.824479" style="fill: #ff0000; stroke: #ff0000"/>
    </g>
   </g>
   <g id="PathCollection_2">
    <g clip-path="url(#p2c8df391b2)">
     <use xlink:href="#m6e9ff38aad" x="138.192839" y="655.382224" style="fill: #ff0000; stroke: #ff0000"/>
    </g>
   </g>
   <g id="PathCollection_3">
    <g clip-path="url(#p2c8df391b2)">
     <use xlink:href="#m6e9ff38aad" x="1397.676136" y="75.186667" style="fill: #ff0000; stroke: #ff0000"/>
    </g>
   </g>
   <g id="PathCollection_4">
    <g clip-path="url(#p2c8df391b2)">
     <use xlink:href="#m6e9ff38aad" x="1074.011321" y="422.35617" style="fill: #ff0000; stroke: #ff0000"/>
    </g>
   </g>
   <g id="matplotlib.axis_1">
    <g id="xtick_1">
     <g id="line2d_1">
      <defs>
       <path id="me70571d441" d="M 0 0 
L 0 3.5 
" style="stroke: #000000; stroke-width: 0.8"/>
      </defs>
      <g>
       <use xlink:href="#me70571d441" x="230.24875" y="670.84" style="stroke: #000000; stroke-width: 0.8"/>
      </g>
     </g>
     <g id="text_1">
      <!-- 1200 -->
      <g transform="translate(214.97875 686.958125) scale(0.12 -0.12)">
       <defs>
        <path id="DejaVuSans-31" d="M 794 531 
L 1825 531 
L 1825 4091 
L 703 3866 
L 703 4441 
L 1819 4666 
L 2450 4666 
L 2450 531 
L 3481 531 
L 3481 0 
L 794 0 
L 794 531 
z
" transform="scale(0.015625)"/>
        <path id="DejaVuSans-32" d="M 1228 531 
L 3431 531 
L 3431 0 
L 469 0 
L 469 531 
Q 828 903 1448 1529 
Q 2069 2156 2228 2338 
Q 2531 2678 2651 2914 
Q 2772 3150 2772 3378 
Q 2772 3750 2511 3984 
Q 2250 4219 1831 4219 
Q 1534 4219 1204 4116 
Q 875 4013 500 3803 
L 500 4441 
Q 881 4594 1212 4672 
Q 1544 4750 1819 4750 
Q 2544 4750 2975 4387 
Q 3406 4025 3406 3419 
Q 3406 3131 3298 2873 
Q 3191 2616 2906 2266 
Q 2828 2175 2409 1742 
Q 1991 1309 1228 531 
z
" transform="scale(0.015625)"/>
        <path id="DejaVuSans-30" d="M 2034 4250 
Q 1547 4250 1301 3770 
Q 1056 3291 1056 2328 
Q 1056 1369 1301 889 
Q 1547 409 2034 409 
Q 2525 409 2770 889 
Q 3016 1369 3016 2328 
Q 3016 3291 2770 3770 
Q 2525 4250 2034 4250 
z
M 2034 4750 
Q 2819 4750 3233 4129 
Q 3647 3509 3647 2328 
Q 3647 1150 3233 529 
Q 2819 -91 2034 -91 
Q 1250 -91 836 529 
Q 422 1150 422 2328 
Q 422 3509 836 4129 
Q 1250 4750 2034 4750 
z
" transform="scale(0.015625)"/>
       </defs>
       <use xlink:href="#DejaVuSans-31"/>
       <use xlink:href="#DejaVuSans-32" x="63.623047"/>
       <use xlink:href="#DejaVuSans-30" x="127.246094"/>
       <use xlink:href="#DejaVuSans-30" x="190.869141"/>
      </g>
     </g>
    </g>
    <g id="xtick_2">
     <g id="line2d_2">
      <g>
       <use xlink:href="#me70571d441" x="458.620417" y="670.84" style="stroke: #000000; stroke-width: 0.8"/>
      </g>
     </g>
     <g id="text_2">
      <!-- 1400 -->
      <g transform="translate(443.350417 686.958125) scale(0.12 -0.12)">
       <defs>
        <path id="DejaVuSans-34" d="M 2419 4116 
L 825 1625 
L 2419 1625 
L 2419 4116 
z
M 2253 4666 
L 3047 4666 
L 3047 1625 
L 3713 1625 
L 3713 1100 
L 3047 1100 
L 3047 0 
L 2419 0 
L 2419 1100 
L 313 1100 
L 313 1709 
L 2253 4666 
z
" transform="scale(0.015625)"/>
       </defs>
       <use xlink:href="#DejaVuSans-31"/>
       <use xlink:href="#DejaVuSans-34" x="63.623047"/>
       <use xlink:href="#DejaVuSans-30" x="127.246094"/>
       <use xlink:href="#DejaVuSans-30" x="190.869141"/>
      </g>
     </g>
    </g>
    <g id="xtick_3">
     <g id="line2d_3">
      <g>
       <use xlink:href="#me70571d441" x="686.992083" y="670.84" style="stroke: #000000; stroke-width: 0.8"/>
      </g>
     </g>
     <g id="text_3">
      <!-- 1600 -->
      <g transform="translate(671.722083 686.958125) scale(0.12 -0.12)">
       <defs>
        <path id="DejaVuSans-36" d="M 2113 2584 
Q 1688 2584 1439 2293 
Q 1191 2003 1191 1497 
Q 1191 994 1439 701 
Q 1688 409 2113 409 
Q 2538 409 2786 701 
Q 3034 994 3034 1497 
Q 3034 2003 2786 2293 
Q 2538 2584 2113 2584 
z
M 3366 4563 
L 3366 3988 
Q 3128 4100 2886 4159 
Q 2644 4219 2406 4219 
Q 1781 4219 1451 3797 
Q 1122 3375 1075 2522 
Q 1259 2794 1537 2939 
Q 1816 3084 2150 3084 
Q 2853 3084 3261 2657 
Q 3669 2231 3669 1497 
Q 3669 778 3244 343 
Q 2819 -91 2113 -91 
Q 1303 -91 875 529 
Q 447 1150 447 2328 
Q 447 3434 972 4092 
Q 1497 4750 2381 4750 
Q 2619 4750 2861 4703 
Q 3103 4656 3366 4563 
z
" transform="scale(0.015625)"/>
       </defs>
       <use xlink:href="#DejaVuSans-31"/>
       <use xlink:href="#DejaVuSans-36" x="63.623047"/>
       <use xlink:href="#DejaVuSans-30" x="127.246094"/>
       <use xlink:href="#DejaVuSans-30" x="190.869141"/>
      </g>
     </g>
    </g>
    <g id="xtick_4">
     <g id="line2d_4">
      <g>
       <use xlink:href="#me70571d441" x="915.36375" y="670.84" style="stroke: #000000; stroke-width: 0.8"/>
      </g>
     </g>
     <g id="text_4">
      <!-- 1800 -->
      <g transform="translate(900.09375 686.958125) scale(0.12 -0.12)">
       <defs>
        <path id="DejaVuSans-38" d="M 2034 2216 
Q 1584 2216 1326 1975 
Q 1069 1734 1069 1313 
Q 1069 891 1326 650 
Q 1584 409 2034 409 
Q 2484 409 2743 651 
Q 3003 894 3003 1313 
Q 3003 1734 2745 1975 
Q 2488 2216 2034 2216 
z
M 1403 2484 
Q 997 2584 770 2862 
Q 544 3141 544 3541 
Q 544 4100 942 4425 
Q 1341 4750 2034 4750 
Q 2731 4750 3128 4425 
Q 3525 4100 3525 3541 
Q 3525 3141 3298 2862 
Q 3072 2584 2669 2484 
Q 3125 2378 3379 2068 
Q 3634 1759 3634 1313 
Q 3634 634 3220 271 
Q 2806 -91 2034 -91 
Q 1263 -91 848 271 
Q 434 634 434 1313 
Q 434 1759 690 2068 
Q 947 2378 1403 2484 
z
M 1172 3481 
Q 1172 3119 1398 2916 
Q 1625 2713 2034 2713 
Q 2441 2713 2670 2916 
Q 2900 3119 2900 3481 
Q 2900 3844 2670 4047 
Q 2441 4250 2034 4250 
Q 1625 4250 1398 4047 
Q 1172 3844 1172 3481 
z
" transform="scale(0.015625)"/>
       </defs>
       <use xlink:href="#DejaVuSans-31"/>
       <use xlink:href="#DejaVuSans-38" x="63.623047"/>
       <use xlink:href="#DejaVuSans-30" x="127.246094"/>
       <use xlink:href="#DejaVuSans-30" x="190.869141"/>
      </g>
     </g>
    </g>
    <g id="xtick_5">
     <g id="line2d_5">
      <g>
       <use xlink:href="#me70571d441" x="1143.735417" y="670.84" style="stroke: #000000; stroke-width: 0.8"/>
      </g>
     </g>
     <g id="text_5">
      <!-- 2000 -->
      <g transform="translate(1128.465417 686.958125) scale(0.12 -0.12)">
       <use xlink:href="#DejaVuSans-32"/>
       <use xlink:href="#DejaVuSans-30" x="63.623047"/>
       <use xlink:href="#DejaVuSans-30" x="127.246094"/>
       <use xlink:href="#DejaVuSans-30" x="190.869141"/>
      </g>
     </g>
    </g>
    <g id="xtick_6">
     <g id="line2d_6">
      <g>
       <use xlink:href="#me70571d441" x="1372.107083" y="670.84" style="stroke: #000000; stroke-width: 0.8"/>
      </g>
     </g>
     <g id="text_6">
      <!-- 2200 -->
      <g transform="translate(1356.837083 686.958125) scale(0.12 -0.12)">
       <use xlink:href="#DejaVuSans-32"/>
       <use xlink:href="#DejaVuSans-32" x="63.623047"/>
       <use xlink:href="#DejaVuSans-30" x="127.246094"/>
       <use xlink:href="#DejaVuSans-30" x="190.869141"/>
      </g>
     </g>
    </g>
    <g id="text_7">
     <!-- Entropy, s [J/kg.K] -->
     <g transform="translate(672.41375 705.61125) scale(0.16 -0.16)">
      <defs>
       <path id="DejaVuSans-45" d="M 628 4666 
L 3578 4666 
L 3578 4134 
L 1259 4134 
L 1259 2753 
L 3481 2753 
L 3481 2222 
L 1259 2222 
L 1259 531 
L 3634 531 
L 3634 0 
L 628 0 
L 628 4666 
z
" transform="scale(0.015625)"/>
       <path id="DejaVuSans-6e" d="M 3513 2113 
L 3513 0 
L 2938 0 
L 2938 2094 
Q 2938 2591 2744 2837 
Q 2550 3084 2163 3084 
Q 1697 3084 1428 2787 
Q 1159 2491 1159 1978 
L 1159 0 
L 581 0 
L 581 3500 
L 1159 3500 
L 1159 2956 
Q 1366 3272 1645 3428 
Q 1925 3584 2291 3584 
Q 2894 3584 3203 3211 
Q 3513 2838 3513 2113 
z
" transform="scale(0.015625)"/>
       <path id="DejaVuSans-74" d="M 1172 4494 
L 1172 3500 
L 2356 3500 
L 2356 3053 
L 1172 3053 
L 1172 1153 
Q 1172 725 1289 603 
Q 1406 481 1766 481 
L 2356 481 
L 2356 0 
L 1766 0 
Q 1100 0 847 248 
Q 594 497 594 1153 
L 594 3053 
L 172 3053 
L 172 3500 
L 594 3500 
L 594 4494 
L 1172 4494 
z
" transform="scale(0.015625)"/>
       <path id="DejaVuSans-72" d="M 2631 2963 
Q 2534 3019 2420 3045 
Q 2306 3072 2169 3072 
Q 1681 3072 1420 2755 
Q 1159 2438 1159 1844 
L 1159 0 
L 581 0 
L 581 3500 
L 1159 3500 
L 1159 2956 
Q 1341 3275 1631 3429 
Q 1922 3584 2338 3584 
Q 2397 3584 2469 3576 
Q 2541 3569 2628 3553 
L 2631 2963 
z
" transform="scale(0.015625)"/>
       <path id="DejaVuSans-6f" d="M 1959 3097 
Q 1497 3097 1228 2736 
Q 959 2375 959 1747 
Q 959 1119 1226 758 
Q 1494 397 1959 397 
Q 2419 397 2687 759 
Q 2956 1122 2956 1747 
Q 2956 2369 2687 2733 
Q 2419 3097 1959 3097 
z
M 1959 3584 
Q 2709 3584 3137 3096 
Q 3566 2609 3566 1747 
Q 3566 888 3137 398 
Q 2709 -91 1959 -91 
Q 1206 -91 779 398 
Q 353 888 353 1747 
Q 353 2609 779 3096 
Q 1206 3584 1959 3584 
z
" transform="scale(0.015625)"/>
       <path id="DejaVuSans-70" d="M 1159 525 
L 1159 -1331 
L 581 -1331 
L 581 3500 
L 1159 3500 
L 1159 2969 
Q 1341 3281 1617 3432 
Q 1894 3584 2278 3584 
Q 2916 3584 3314 3078 
Q 3713 2572 3713 1747 
Q 3713 922 3314 415 
Q 2916 -91 2278 -91 
Q 1894 -91 1617 61 
Q 1341 213 1159 525 
z
M 3116 1747 
Q 3116 2381 2855 2742 
Q 2594 3103 2138 3103 
Q 1681 3103 1420 2742 
Q 1159 2381 1159 1747 
Q 1159 1113 1420 752 
Q 1681 391 2138 391 
Q 2594 391 2855 752 
Q 3116 1113 3116 1747 
z
" transform="scale(0.015625)"/>
       <path id="DejaVuSans-79" d="M 2059 -325 
Q 1816 -950 1584 -1140 
Q 1353 -1331 966 -1331 
L 506 -1331 
L 506 -850 
L 844 -850 
Q 1081 -850 1212 -737 
Q 1344 -625 1503 -206 
L 1606 56 
L 191 3500 
L 800 3500 
L 1894 763 
L 2988 3500 
L 3597 3500 
L 2059 -325 
z
" transform="scale(0.015625)"/>
       <path id="DejaVuSans-2c" d="M 750 794 
L 1409 794 
L 1409 256 
L 897 -744 
L 494 -744 
L 750 256 
L 750 794 
z
" transform="scale(0.015625)"/>
       <path id="DejaVuSans-20" transform="scale(0.015625)"/>
       <path id="DejaVuSans-73" d="M 2834 3397 
L 2834 2853 
Q 2591 2978 2328 3040 
Q 2066 3103 1784 3103 
Q 1356 3103 1142 2972 
Q 928 2841 928 2578 
Q 928 2378 1081 2264 
Q 1234 2150 1697 2047 
L 1894 2003 
Q 2506 1872 2764 1633 
Q 3022 1394 3022 966 
Q 3022 478 2636 193 
Q 2250 -91 1575 -91 
Q 1294 -91 989 -36 
Q 684 19 347 128 
L 347 722 
Q 666 556 975 473 
Q 1284 391 1588 391 
Q 1994 391 2212 530 
Q 2431 669 2431 922 
Q 2431 1156 2273 1281 
Q 2116 1406 1581 1522 
L 1381 1569 
Q 847 1681 609 1914 
Q 372 2147 372 2553 
Q 372 3047 722 3315 
Q 1072 3584 1716 3584 
Q 2034 3584 2315 3537 
Q 2597 3491 2834 3397 
z
" transform="scale(0.015625)"/>
       <path id="DejaVuSans-5b" d="M 550 4863 
L 1875 4863 
L 1875 4416 
L 1125 4416 
L 1125 -397 
L 1875 -397 
L 1875 -844 
L 550 -844 
L 550 4863 
z
" transform="scale(0.015625)"/>
       <path id="DejaVuSans-4a" d="M 628 4666 
L 1259 4666 
L 1259 325 
Q 1259 -519 939 -900 
Q 619 -1281 -91 -1281 
L -331 -1281 
L -331 -750 
L -134 -750 
Q 284 -750 456 -515 
Q 628 -281 628 325 
L 628 4666 
z
" transform="scale(0.015625)"/>
       <path id="DejaVuSans-2f" d="M 1625 4666 
L 2156 4666 
L 531 -594 
L 0 -594 
L 1625 4666 
z
" transform="scale(0.015625)"/>
       <path id="DejaVuSans-6b" d="M 581 4863 
L 1159 4863 
L 1159 1991 
L 2875 3500 
L 3609 3500 
L 1753 1863 
L 3688 0 
L 2938 0 
L 1159 1709 
L 1159 0 
L 581 0 
L 581 4863 
z
" transform="scale(0.015625)"/>
       <path id="DejaVuSans-67" d="M 2906 1791 
Q 2906 2416 2648 2759 
Q 2391 3103 1925 3103 
Q 1463 3103 1205 2759 
Q 947 2416 947 1791 
Q 947 1169 1205 825 
Q 1463 481 1925 481 
Q 2391 481 2648 825 
Q 2906 1169 2906 1791 
z
M 3481 434 
Q 3481 -459 3084 -895 
Q 2688 -1331 1869 -1331 
Q 1566 -1331 1297 -1286 
Q 1028 -1241 775 -1147 
L 775 -588 
Q 1028 -725 1275 -790 
Q 1522 -856 1778 -856 
Q 2344 -856 2625 -561 
Q 2906 -266 2906 331 
L 2906 616 
Q 2728 306 2450 153 
Q 2172 0 1784 0 
Q 1141 0 747 490 
Q 353 981 353 1791 
Q 353 2603 747 3093 
Q 1141 3584 1784 3584 
Q 2172 3584 2450 3431 
Q 2728 3278 2906 2969 
L 2906 3500 
L 3481 3500 
L 3481 434 
z
" transform="scale(0.015625)"/>
       <path id="DejaVuSans-2e" d="M 684 794 
L 1344 794 
L 1344 0 
L 684 0 
L 684 794 
z
" transform="scale(0.015625)"/>
       <path id="DejaVuSans-4b" d="M 628 4666 
L 1259 4666 
L 1259 2694 
L 3353 4666 
L 4166 4666 
L 1850 2491 
L 4331 0 
L 3500 0 
L 1259 2247 
L 1259 0 
L 628 0 
L 628 4666 
z
" transform="scale(0.015625)"/>
       <path id="DejaVuSans-5d" d="M 1947 4863 
L 1947 -844 
L 622 -844 
L 622 -397 
L 1369 -397 
L 1369 4416 
L 622 4416 
L 622 4863 
L 1947 4863 
z
" transform="scale(0.015625)"/>
      </defs>
      <use xlink:href="#DejaVuSans-45"/>
      <use xlink:href="#DejaVuSans-6e" x="63.183594"/>
      <use xlink:href="#DejaVuSans-74" x="126.5625"/>
      <use xlink:href="#DejaVuSans-72" x="165.771484"/>
      <use xlink:href="#DejaVuSans-6f" x="204.634766"/>
      <use xlink:href="#DejaVuSans-70" x="265.816406"/>
      <use xlink:href="#DejaVuSans-79" x="329.292969"/>
      <use xlink:href="#DejaVuSans-2c" x="388.472656"/>
      <use xlink:href="#DejaVuSans-20" x="420.259766"/>
      <use xlink:href="#DejaVuSans-73" x="452.046875"/>
      <use xlink:href="#DejaVuSans-20" x="504.146484"/>
      <use xlink:href="#DejaVuSans-5b" x="535.933594"/>
      <use xlink:href="#DejaVuSans-4a" x="574.947266"/>
      <use xlink:href="#DejaVuSans-2f" x="604.439453"/>
      <use xlink:href="#DejaVuSans-6b" x="638.130859"/>
      <use xlink:href="#DejaVuSans-67" x="696.041016"/>
      <use xlink:href="#DejaVuSans-2e" x="759.517578"/>
      <use xlink:href="#DejaVuSans-4b" x="791.304688"/>
      <use xlink:href="#DejaVuSans-5d" x="856.880859"/>
     </g>
    </g>
   </g>
   <g id="matplotlib.axis_2">
    <g id="ytick_1">
     <g id="line2d_7">
      <defs>
       <path id="mc2168d30f0" d="M 0 0 
L -3.5 0 
" style="stroke: #000000; stroke-width: 0.8"/>
      </defs>
      <g>
       <use xlink:href="#mc2168d30f0" x="58.97" y="607.02" style="stroke: #000000; stroke-width: 0.8"/>
      </g>
     </g>
     <g id="text_8">
      <!-- 50 -->
      <g transform="translate(36.7 611.579062) scale(0.12 -0.12)">
       <defs>
        <path id="DejaVuSans-35" d="M 691 4666 
L 3169 4666 
L 3169 4134 
L 1269 4134 
L 1269 2991 
Q 1406 3038 1543 3061 
Q 1681 3084 1819 3084 
Q 2600 3084 3056 2656 
Q 3513 2228 3513 1497 
Q 3513 744 3044 326 
Q 2575 -91 1722 -91 
Q 1428 -91 1123 -41 
Q 819 9 494 109 
L 494 744 
Q 775 591 1075 516 
Q 1375 441 1709 441 
Q 2250 441 2565 725 
Q 2881 1009 2881 1497 
Q 2881 1984 2565 2268 
Q 2250 2553 1709 2553 
Q 1456 2553 1204 2497 
Q 953 2441 691 2322 
L 691 4666 
z
" transform="scale(0.015625)"/>
       </defs>
       <use xlink:href="#DejaVuSans-35"/>
       <use xlink:href="#DejaVuSans-30" x="63.623047"/>
      </g>
     </g>
    </g>
    <g id="ytick_2">
     <g id="line2d_8">
      <g>
       <use xlink:href="#mc2168d30f0" x="58.97" y="500.653333" style="stroke: #000000; stroke-width: 0.8"/>
      </g>
     </g>
     <g id="text_9">
      <!-- 100 -->
      <g transform="translate(29.065 505.212396) scale(0.12 -0.12)">
       <use xlink:href="#DejaVuSans-31"/>
       <use xlink:href="#DejaVuSans-30" x="63.623047"/>
       <use xlink:href="#DejaVuSans-30" x="127.246094"/>
      </g>
     </g>
    </g>
    <g id="ytick_3">
     <g id="line2d_9">
      <g>
       <use xlink:href="#mc2168d30f0" x="58.97" y="394.286667" style="stroke: #000000; stroke-width: 0.8"/>
      </g>
     </g>
     <g id="text_10">
      <!-- 150 -->
      <g transform="translate(29.065 398.845729) scale(0.12 -0.12)">
       <use xlink:href="#DejaVuSans-31"/>
       <use xlink:href="#DejaVuSans-35" x="63.623047"/>
       <use xlink:href="#DejaVuSans-30" x="127.246094"/>
      </g>
     </g>
    </g>
    <g id="ytick_4">
     <g id="line2d_10">
      <g>
       <use xlink:href="#mc2168d30f0" x="58.97" y="287.92" style="stroke: #000000; stroke-width: 0.8"/>
      </g>
     </g>
     <g id="text_11">
      <!-- 200 -->
      <g transform="translate(29.065 292.479062) scale(0.12 -0.12)">
       <use xlink:href="#DejaVuSans-32"/>
       <use xlink:href="#DejaVuSans-30" x="63.623047"/>
       <use xlink:href="#DejaVuSans-30" x="127.246094"/>
      </g>
     </g>
    </g>
    <g id="ytick_5">
     <g id="line2d_11">
      <g>
       <use xlink:href="#mc2168d30f0" x="58.97" y="181.553333" style="stroke: #000000; stroke-width: 0.8"/>
      </g>
     </g>
     <g id="text_12">
      <!-- 250 -->
      <g transform="translate(29.065 186.112396) scale(0.12 -0.12)">
       <use xlink:href="#DejaVuSans-32"/>
       <use xlink:href="#DejaVuSans-35" x="63.623047"/>
       <use xlink:href="#DejaVuSans-30" x="127.246094"/>
      </g>
     </g>
    </g>
    <g id="ytick_6">
     <g id="line2d_12">
      <g>
       <use xlink:href="#mc2168d30f0" x="58.97" y="75.186667" style="stroke: #000000; stroke-width: 0.8"/>
      </g>
     </g>
     <g id="text_13">
      <!-- 300 -->
      <g transform="translate(29.065 79.745729) scale(0.12 -0.12)">
       <defs>
        <path id="DejaVuSans-33" d="M 2597 2516 
Q 3050 2419 3304 2112 
Q 3559 1806 3559 1356 
Q 3559 666 3084 287 
Q 2609 -91 1734 -91 
Q 1441 -91 1130 -33 
Q 819 25 488 141 
L 488 750 
Q 750 597 1062 519 
Q 1375 441 1716 441 
Q 2309 441 2620 675 
Q 2931 909 2931 1356 
Q 2931 1769 2642 2001 
Q 2353 2234 1838 2234 
L 1294 2234 
L 1294 2753 
L 1863 2753 
Q 2328 2753 2575 2939 
Q 2822 3125 2822 3475 
Q 2822 3834 2567 4026 
Q 2313 4219 1838 4219 
Q 1578 4219 1281 4162 
Q 984 4106 628 3988 
L 628 4550 
Q 988 4650 1302 4700 
Q 1616 4750 1894 4750 
Q 2613 4750 3031 4423 
Q 3450 4097 3450 3541 
Q 3450 3153 3228 2886 
Q 3006 2619 2597 2516 
z
" transform="scale(0.015625)"/>
       </defs>
       <use xlink:href="#DejaVuSans-33"/>
       <use xlink:href="#DejaVuSans-30" x="63.623047"/>
       <use xlink:href="#DejaVuSans-30" x="127.246094"/>
      </g>
     </g>
    </g>
    <g id="text_14">
     <!-- Temperature, T [oC] -->
     <g transform="translate(21.7375 431.64875) rotate(-90) scale(0.16 -0.16)">
      <defs>
       <path id="DejaVuSans-54" d="M -19 4666 
L 3928 4666 
L 3928 4134 
L 2272 4134 
L 2272 0 
L 1638 0 
L 1638 4134 
L -19 4134 
L -19 4666 
z
" transform="scale(0.015625)"/>
       <path id="DejaVuSans-65" d="M 3597 1894 
L 3597 1613 
L 953 1613 
Q 991 1019 1311 708 
Q 1631 397 2203 397 
Q 2534 397 2845 478 
Q 3156 559 3463 722 
L 3463 178 
Q 3153 47 2828 -22 
Q 2503 -91 2169 -91 
Q 1331 -91 842 396 
Q 353 884 353 1716 
Q 353 2575 817 3079 
Q 1281 3584 2069 3584 
Q 2775 3584 3186 3129 
Q 3597 2675 3597 1894 
z
M 3022 2063 
Q 3016 2534 2758 2815 
Q 2500 3097 2075 3097 
Q 1594 3097 1305 2825 
Q 1016 2553 972 2059 
L 3022 2063 
z
" transform="scale(0.015625)"/>
       <path id="DejaVuSans-6d" d="M 3328 2828 
Q 3544 3216 3844 3400 
Q 4144 3584 4550 3584 
Q 5097 3584 5394 3201 
Q 5691 2819 5691 2113 
L 5691 0 
L 5113 0 
L 5113 2094 
Q 5113 2597 4934 2840 
Q 4756 3084 4391 3084 
Q 3944 3084 3684 2787 
Q 3425 2491 3425 1978 
L 3425 0 
L 2847 0 
L 2847 2094 
Q 2847 2600 2669 2842 
Q 2491 3084 2119 3084 
Q 1678 3084 1418 2786 
Q 1159 2488 1159 1978 
L 1159 0 
L 581 0 
L 581 3500 
L 1159 3500 
L 1159 2956 
Q 1356 3278 1631 3431 
Q 1906 3584 2284 3584 
Q 2666 3584 2933 3390 
Q 3200 3197 3328 2828 
z
" transform="scale(0.015625)"/>
       <path id="DejaVuSans-61" d="M 2194 1759 
Q 1497 1759 1228 1600 
Q 959 1441 959 1056 
Q 959 750 1161 570 
Q 1363 391 1709 391 
Q 2188 391 2477 730 
Q 2766 1069 2766 1631 
L 2766 1759 
L 2194 1759 
z
M 3341 1997 
L 3341 0 
L 2766 0 
L 2766 531 
Q 2569 213 2275 61 
Q 1981 -91 1556 -91 
Q 1019 -91 701 211 
Q 384 513 384 1019 
Q 384 1609 779 1909 
Q 1175 2209 1959 2209 
L 2766 2209 
L 2766 2266 
Q 2766 2663 2505 2880 
Q 2244 3097 1772 3097 
Q 1472 3097 1187 3025 
Q 903 2953 641 2809 
L 641 3341 
Q 956 3463 1253 3523 
Q 1550 3584 1831 3584 
Q 2591 3584 2966 3190 
Q 3341 2797 3341 1997 
z
" transform="scale(0.015625)"/>
       <path id="DejaVuSans-75" d="M 544 1381 
L 544 3500 
L 1119 3500 
L 1119 1403 
Q 1119 906 1312 657 
Q 1506 409 1894 409 
Q 2359 409 2629 706 
Q 2900 1003 2900 1516 
L 2900 3500 
L 3475 3500 
L 3475 0 
L 2900 0 
L 2900 538 
Q 2691 219 2414 64 
Q 2138 -91 1772 -91 
Q 1169 -91 856 284 
Q 544 659 544 1381 
z
M 1991 3584 
L 1991 3584 
z
" transform="scale(0.015625)"/>
       <path id="DejaVuSans-43" d="M 4122 4306 
L 4122 3641 
Q 3803 3938 3442 4084 
Q 3081 4231 2675 4231 
Q 1875 4231 1450 3742 
Q 1025 3253 1025 2328 
Q 1025 1406 1450 917 
Q 1875 428 2675 428 
Q 3081 428 3442 575 
Q 3803 722 4122 1019 
L 4122 359 
Q 3791 134 3420 21 
Q 3050 -91 2638 -91 
Q 1578 -91 968 557 
Q 359 1206 359 2328 
Q 359 3453 968 4101 
Q 1578 4750 2638 4750 
Q 3056 4750 3426 4639 
Q 3797 4528 4122 4306 
z
" transform="scale(0.015625)"/>
      </defs>
      <use xlink:href="#DejaVuSans-54"/>
      <use xlink:href="#DejaVuSans-65" x="44.083984"/>
      <use xlink:href="#DejaVuSans-6d" x="105.607422"/>
      <use xlink:href="#DejaVuSans-70" x="203.019531"/>
      <use xlink:href="#DejaVuSans-65" x="266.496094"/>
      <use xlink:href="#DejaVuSans-72" x="328.019531"/>
      <use xlink:href="#DejaVuSans-61" x="369.132812"/>
      <use xlink:href="#DejaVuSans-74" x="430.412109"/>
      <use xlink:href="#DejaVuSans-75" x="469.621094"/>
      <use xlink:href="#DejaVuSans-72" x="533"/>
      <use xlink:href="#DejaVuSans-65" x="571.863281"/>
      <use xlink:href="#DejaVuSans-2c" x="633.386719"/>
      <use xlink:href="#DejaVuSans-20" x="665.173828"/>
      <use xlink:href="#DejaVuSans-54" x="696.960938"/>
      <use xlink:href="#DejaVuSans-20" x="758.044922"/>
      <use xlink:href="#DejaVuSans-5b" x="789.832031"/>
      <use xlink:href="#DejaVuSans-6f" x="828.845703"/>
      <use xlink:href="#DejaVuSans-43" x="890.027344"/>
      <use xlink:href="#DejaVuSans-5d" x="959.851562"/>
     </g>
    </g>
   </g>
   <g id="line2d_13">
    <path d="M 103.947237 671.983045 
L 144.240432 655.85008 
L 181.014719 641.154173 
L 209.521978 629.818114 
L 209.633243 629.818114 
L 210.359293 629.818114 
L 211.104048 629.818114 
L 211.867988 629.818114 
L 212.65161 629.818114 
L 213.455419 629.818114 
L 214.279935 629.818114 
L 215.125693 629.818114 
L 215.993239 629.818114 
L 216.883134 629.818114 
L 217.795955 629.818114 
L 218.732292 629.818114 
L 219.692751 629.818114 
L 220.677953 629.818114 
L 221.688535 629.818114 
L 222.725152 629.818114 
L 223.788475 629.818114 
L 224.87919 629.818114 
L 225.998005 629.818114 
L 227.145642 629.818114 
L 228.322844 629.818114 
L 229.530374 629.818114 
L 230.769011 629.818114 
L 232.039559 629.818114 
L 233.342838 629.818114 
L 234.679692 629.818114 
L 236.050985 629.818114 
L 237.457606 629.818114 
L 238.900464 629.818114 
L 240.380493 629.818114 
L 241.89865 629.818114 
L 243.455918 629.818114 
L 245.053304 629.818114 
L 246.691842 629.818114 
L 248.372591 629.818114 
L 250.09664 629.818114 
L 251.865103 629.818114 
L 253.679125 629.818114 
L 255.53988 629.818114 
L 257.448572 629.818114 
L 259.406435 629.818114 
L 261.414736 629.818114 
L 263.474775 629.818114 
L 265.587885 629.818114 
L 267.755432 629.818114 
L 269.978819 629.818114 
L 272.259485 629.818114 
L 274.598905 629.818114 
L 276.998593 629.818114 
L 279.460101 629.818114 
L 281.985023 629.818114 
L 284.574991 629.818114 
L 287.231681 629.818114 
L 289.956814 629.818114 
L 292.75215 629.818114 
L 295.6195 629.818114 
L 298.560718 629.818114 
L 301.577707 629.818114 
L 304.67242 629.818114 
L 307.846858 629.818114 
L 311.103076 629.818114 
L 314.44318 629.818114 
L 317.869332 629.818114 
L 321.383748 629.818114 
L 324.988701 629.818114 
L 328.686525 629.818114 
L 332.479612 629.818114 
L 336.370416 629.818114 
L 340.361455 629.818114 
L 344.45531 629.818114 
L 348.65463 629.818114 
L 352.962133 629.818114 
L 357.380606 629.818114 
L 361.912906 629.818114 
L 366.561967 629.818114 
L 371.330797 629.818114 
L 376.222481 629.818114 
L 381.240183 629.818114 
L 386.387152 629.818114 
L 391.666715 629.818114 
L 397.082291 629.818114 
L 402.637382 629.818114 
L 408.335582 629.818114 
L 414.180579 629.818114 
L 420.176153 629.818114 
L 426.326186 629.818114 
L 432.634654 629.818114 
L 439.105641 629.818114 
L 445.743332 629.818114 
L 452.552023 629.818114 
L 459.536119 629.818114 
L 472.749688 629.818114 
L 486.591115 629.818114 
L 501.090232 629.818114 
L 516.278292 629.818114 
L 532.18803 629.818114 
L 548.853736 629.818114 
L 566.311333 629.818114 
L 584.598447 629.818114 
L 603.754493 629.818114 
L 623.820761 629.818114 
L 644.8405 629.818114 
L 666.859016 629.818114 
L 689.923766 629.818114 
L 695.400827 629.818114 
L 715.505074 619.559186 
L 743.440752 604.765404 
L 773.443469 588.256489 
L 805.544018 569.967095 
L 839.769427 549.837544 
L 876.141483 527.810954 
L 914.674395 503.832126 
L 955.373467 477.847255 
L 998.235031 449.803395 
L 1043.247057 419.647367 
L 1090.389956 387.324403 
L 1139.637358 352.776809 
L 1190.956816 315.94285 
L 1244.310441 276.755869 
L 1299.655487 235.143651 
L 1356.944908 191.027958 
L 1416.127918 144.324214 
L 1441 124.196328 
" clip-path="url(#p2c8df391b2)" style="fill: none; stroke-dasharray: 3.2,0.8,0.5,0.8; stroke-dashoffset: 0; stroke: #363636; stroke-width: 0.5"/>
   </g>
   <g id="line2d_14">
    <path d="M 65.767344 686.078058 
L 110.371085 668.092438 
L 151.219854 651.575237 
L 188.595545 636.465033 
L 222.758292 622.701623 
L 253.932964 610.233483 
L 282.307522 599.017534 
L 308.045218 589.012235 
L 331.300473 580.170294 
L 352.22863 572.435547 
L 368.375387 566.659541 
L 368.58073 566.659541 
L 370.006614 566.659541 
L 371.469231 566.659541 
L 372.969528 566.659541 
L 374.508475 566.659541 
L 376.087069 566.659541 
L 377.70633 566.659541 
L 379.367306 566.659541 
L 381.071072 566.659541 
L 382.81873 566.659541 
L 384.611412 566.659541 
L 386.450276 566.659541 
L 388.336513 566.659541 
L 390.271343 566.659541 
L 392.256017 566.659541 
L 394.291821 566.659541 
L 396.380071 566.659541 
L 398.522118 566.659541 
L 400.719348 566.659541 
L 402.973183 566.659541 
L 405.285081 566.659541 
L 407.656538 566.659541 
L 410.089088 566.659541 
L 412.584305 566.659541 
L 415.143804 566.659541 
L 417.76924 566.659541 
L 420.462312 566.659541 
L 423.224763 566.659541 
L 426.05838 566.659541 
L 428.964996 566.659541 
L 431.946492 566.659541 
L 435.004797 566.659541 
L 438.14189 566.659541 
L 441.3598 566.659541 
L 444.66061 566.659541 
L 448.046455 566.659541 
L 451.519525 566.659541 
L 455.082068 566.659541 
L 458.736389 566.659541 
L 462.484853 566.659541 
L 466.329883 566.659541 
L 470.273969 566.659541 
L 474.319662 566.659541 
L 478.46958 566.659541 
L 482.726408 566.659541 
L 487.092899 566.659541 
L 491.571879 566.659541 
L 496.166247 566.659541 
L 500.878974 566.659541 
L 505.713109 566.659541 
L 510.671782 566.659541 
L 515.758198 566.659541 
L 520.975651 566.659541 
L 526.327515 566.659541 
L 531.817253 566.659541 
L 537.448417 566.659541 
L 543.22465 566.659541 
L 549.14969 566.659541 
L 555.227371 566.659541 
L 561.461623 566.659541 
L 567.856482 566.659541 
L 574.416085 566.659541 
L 581.144675 566.659541 
L 588.046606 566.659541 
L 595.126345 566.659541 
L 602.38847 566.659541 
L 609.837682 566.659541 
L 617.478799 566.659541 
L 625.316766 566.659541 
L 633.356653 566.659541 
L 641.603664 566.659541 
L 650.063133 566.659541 
L 658.740533 566.659541 
L 667.64148 566.659541 
L 676.771732 566.659541 
L 686.137197 566.659541 
L 695.238505 566.659541 
L 695.705568 566.48263 
L 704.921651 562.893388 
L 714.587077 558.94206 
L 724.716371 554.616151 
L 735.324104 549.902984 
L 746.424908 544.789614 
L 758.033456 539.262755 
L 770.164415 533.308741 
L 782.832364 526.913507 
L 807.383691 514.056633 
L 833.85596 499.591492 
L 862.328147 483.425821 
L 892.871629 465.467275 
L 925.548589 445.625043 
L 960.410847 423.810879 
L 997.499089 399.939464 
L 1036.842447 373.928191 
L 1078.458389 345.696543 
L 1122.352899 315.165204 
L 1168.520899 282.255034 
L 1216.946869 246.886019 
L 1267.60561 208.976236 
L 1320.463113 168.440913 
L 1375.477499 125.191577 
L 1432.599995 79.135324 
" clip-path="url(#p2c8df391b2)" style="fill: none; stroke-dasharray: 3.2,0.8,0.5,0.8; stroke-dashoffset: 0; stroke: #363636; stroke-width: 0.5"/>
   </g>
   <g id="line2d_15">
    <path d="M 71.654069 682.546492 
L 116.765573 664.206645 
L 158.163046 647.306882 
L 196.13093 631.784951 
L 230.92906 617.581012 
L 262.782295 604.643145 
L 291.883318 592.925114 
L 318.406482 582.379342 
L 342.521668 572.951254 
L 364.400711 564.578046 
L 384.216483 557.190974 
L 402.138402 550.718869 
L 418.327756 545.091194 
L 432.934563 540.239986 
L 446.096295 536.100698 
L 457.938098 532.61226 
L 468.573978 529.716711 
L 478.108484 527.358656 
L 486.638566 525.484706 
L 490.331114 524.755572 
L 491.623914 524.755572 
L 494.113741 524.755572 
L 496.66771 524.755572 
L 499.287475 524.755572 
L 501.974729 524.755572 
L 504.731212 524.755572 
L 507.558708 524.755572 
L 510.459045 524.755572 
L 513.4341 524.755572 
L 516.485798 524.755572 
L 519.616114 524.755572 
L 522.827073 524.755572 
L 526.120751 524.755572 
L 529.499282 524.755572 
L 532.964849 524.755572 
L 536.519696 524.755572 
L 540.166123 524.755572 
L 543.906488 524.755572 
L 547.743213 524.755572 
L 551.678778 524.755572 
L 555.715732 524.755572 
L 559.856684 524.755572 
L 564.104316 524.755572 
L 568.461374 524.755572 
L 572.930679 524.755572 
L 577.515121 524.755572 
L 582.217667 524.755572 
L 587.041359 524.755572 
L 591.989319 524.755572 
L 597.064748 524.755572 
L 602.270929 524.755572 
L 607.611231 524.755572 
L 613.08911 524.755572 
L 618.708109 524.755572 
L 624.471864 524.755572 
L 630.384104 524.755572 
L 636.448655 524.755572 
L 642.66944 524.755572 
L 649.050484 524.755572 
L 655.595916 524.755572 
L 662.30997 524.755572 
L 665.48081 524.755572 
L 668.42677 524.307107 
L 674.067693 523.352583 
L 679.914932 522.234095 
L 685.983131 520.940044 
L 692.287201 519.45869 
L 698.842298 517.778137 
L 705.663823 515.886313 
L 712.767407 513.770941 
L 720.168909 511.419507 
L 727.8844 508.819221 
L 735.930162 505.956982 
L 744.322667 502.819336 
L 753.078569 499.392449 
L 762.214674 495.662076 
L 771.747923 491.613546 
L 781.695353 487.231754 
L 792.07406 482.501165 
L 802.901159 477.405828 
L 814.193726 471.929403 
L 825.968749 466.055194 
L 838.243063 459.7662 
L 851.033286 453.045156 
L 864.355749 445.874595 
L 878.226423 438.236897 
L 892.660842 430.114353 
L 907.674032 421.489208 
L 923.280428 412.343722 
L 939.493801 402.660203 
L 956.327183 392.421055 
L 973.792795 381.608803 
L 991.901986 370.206121 
L 1010.665164 358.195849 
L 1030.091749 345.561002 
L 1050.190124 332.28477 
L 1070.967596 318.350519 
L 1110.658217 291.169146 
L 1152.658781 261.642177 
L 1196.984717 229.67161 
L 1243.639021 195.159787 
L 1292.612699 158.008603 
L 1343.885453 118.118662 
L 1397.426554 75.388421 
L 1441 39.701766 
" clip-path="url(#p2c8df391b2)" style="fill: none; stroke-dasharray: 3.2,0.8,0.5,0.8; stroke-dashoffset: 0; stroke: #363636; stroke-width: 0.5"/>
   </g>
   <g id="line2d_16">
    <path d="M 77.518015 679.018165 
L 123.132085 660.325146 
L 165.071856 643.044322 
L 203.623497 627.112893 
L 239.046236 612.471325 
L 271.565367 599.06696 
L 301.378446 586.850458 
L 328.669235 575.769356 
L 353.618677 565.764255 
L 376.408085 556.769175 
L 397.216513 548.714415 
L 416.216312 541.529705 
L 433.569652 535.146428 
L 449.426921 529.498684 
L 463.926761 524.523518 
L 477.19706 520.160729 
L 489.356273 516.352602 
L 500.51467 513.043745 
L 510.775332 510.181079 
L 520.234853 507.713954 
L 528.9838 505.594352 
L 537.106974 503.777118 
L 544.683525 502.220194 
L 551.786959 500.884824 
L 558.485071 499.735719 
L 564.83983 498.741165 
L 570.907276 497.873051 
L 576.737463 497.106817 
L 582.374502 496.4213 
L 587.856748 495.798488 
L 593.217125 495.22319 
L 598.483597 494.68265 
L 603.679752 494.166121 
L 608.825442 493.664447 
L 613.937456 493.16966 
L 619.030164 492.674621 
L 624.11611 492.172716 
L 629.206528 491.657609 
L 634.311779 491.123042 
L 639.441704 490.562696 
L 644.6059 489.970083 
L 649.81393 489.338478 
L 655.075477 488.660867 
L 660.400457 487.929928 
L 665.799089 487.13801 
L 671.281946 486.277128 
L 676.859985 485.338963 
L 682.544564 484.314861 
L 688.347444 483.195835 
L 694.280792 481.97256 
L 700.357176 480.635379 
L 706.589559 479.174288 
L 712.991289 477.578936 
L 719.576094 475.838615 
L 726.358074 473.942241 
L 733.351687 471.878349 
L 740.571746 469.635074 
L 748.033408 467.200136 
L 755.752164 464.560825 
L 763.743827 461.703992 
L 772.02452 458.616032 
L 780.610662 455.28288 
L 789.518949 451.690001 
L 798.766332 447.822397 
L 808.369995 443.664601 
L 818.347323 439.20069 
L 828.715871 434.414298 
L 839.493324 429.288633 
L 850.697452 423.806499 
L 862.346065 417.950321 
L 874.456951 411.702178 
L 887.047824 405.043836 
L 900.136254 397.956784 
L 913.739599 390.422273 
L 927.874929 382.421355 
L 942.558954 373.934922 
L 957.807936 364.943752 
L 973.637615 355.428541 
L 990.063125 345.369943 
L 1007.098913 334.748607 
L 1024.758659 323.545204 
L 1043.055206 311.740457 
L 1062.000482 299.315163 
L 1081.605442 286.250208 
L 1101.880008 272.526582 
L 1122.833016 258.125381 
L 1144.472181 243.02781 
L 1166.804056 227.215174 
L 1189.834019 210.668867 
L 1213.566248 193.370354 
L 1238.003728 175.30115 
L 1263.148248 156.442792 
L 1289.00042 136.776808 
L 1315.559697 116.284685 
L 1342.824406 94.947834 
L 1394.393142 53.767357 
L 1441 15.560339 
" clip-path="url(#p2c8df391b2)" style="fill: none; stroke-dasharray: 3.2,0.8,0.5,0.8; stroke-dashoffset: 0; stroke: #363636; stroke-width: 0.5"/>
   </g>
   <g id="line2d_17">
    <path d="M 101.18915 673.653159 
L 119.229263 666.376908 
L 137.237 659.100657 
L 155.218514 651.824406 
L 173.180877 644.548154 
L 191.132539 637.271903 
L 209.083874 629.995652 
L 227.04777 622.719401 
L 245.0402 615.44315 
L 263.08071 608.166899 
L 281.192867 600.890647 
L 299.404737 593.614396 
L 317.749634 586.338145 
L 336.267452 579.061894 
L 355.007113 571.785643 
L 374.031017 564.509392 
L 393.423184 557.23314 
L 413.304654 549.956889 
L 433.864424 542.680638 
L 455.42824 535.404387 
L 457.273374 534.802433 
L 459.12987 534.20048 
L 460.998271 533.598526 
L 462.879165 532.996573 
L 464.773182 532.394619 
L 466.681003 531.792666 
L 468.603365 531.190712 
L 470.541068 530.588759 
L 472.494981 529.986805 
L 474.466053 529.384852 
L 476.455319 528.782898 
L 478.463917 528.180945 
L 480.493097 527.578991 
L 482.544242 526.977038 
L 484.618882 526.375084 
L 486.718725 525.773131 
L 488.845677 525.171177 
L 491.001883 524.569224 
L 493.189767 523.96727 
L 495.412085 523.365317 
L 497.671992 522.763363 
L 499.973125 522.16141 
L 502.319711 521.559456 
L 504.71671 520.957503 
L 507.170001 520.355549 
L 509.686634 519.753596 
L 512.275176 519.151642 
L 514.946207 518.549689 
L 517.713025 517.947735 
L 520.592716 517.345782 
L 523.607814 516.743828 
L 526.789006 516.141875 
L 530.179817 515.539921 
L 533.845338 514.937968 
L 537.890189 514.336014 
L 542.501025 513.734061 
L 548.071258 513.132107 
L 555.743917 512.530154 
L 582.793693 511.9282 
" clip-path="url(#p2c8df391b2)" style="fill: none; stroke: #363636; stroke-width: 0.5; stroke-linecap: square"/>
   </g>
   <g id="line2d_18">
    <path d="M 689.275649 673.653159 
L 690.333905 666.376908 
L 691.402446 659.100657 
L 692.461894 651.824406 
L 693.492191 644.548154 
L 694.472304 637.271903 
L 695.379793 629.995652 
L 696.190242 622.719401 
L 696.876522 615.44315 
L 697.407868 608.166899 
L 697.748676 600.890647 
L 697.856905 593.614396 
L 697.68186 586.338145 
L 697.160988 579.061894 
L 696.215011 571.785643 
L 694.740205 564.509392 
L 692.595447 557.23314 
L 689.57899 549.956889 
L 685.383017 542.680638 
L 679.49316 535.404387 
L 678.904967 534.802433 
L 678.298283 534.20048 
L 677.672283 533.598526 
L 677.026083 532.996573 
L 676.358729 532.394619 
L 675.669197 531.792666 
L 674.956379 531.190712 
L 674.219074 530.588759 
L 673.455981 529.986805 
L 672.665683 529.384852 
L 671.846636 528.782898 
L 670.997145 528.180945 
L 670.115352 527.578991 
L 669.19921 526.977038 
L 668.24645 526.375084 
L 667.254555 525.773131 
L 666.220714 525.171177 
L 665.141775 524.569224 
L 664.014186 523.96727 
L 662.833917 523.365317 
L 661.59637 522.763363 
L 660.296259 522.16141 
L 658.927461 521.559456 
L 657.482816 520.957503 
L 655.953875 520.355549 
L 654.330546 519.753596 
L 652.600619 519.151642 
L 650.749103 518.549689 
L 648.757256 517.947735 
L 646.601156 517.345782 
L 644.249486 516.743828 
L 641.65995 516.141875 
L 638.773137 515.539921 
L 635.501201 514.937968 
L 631.70487 514.336014 
L 627.139869 513.734061 
L 621.302826 513.132107 
L 612.779984 512.530154 
L 582.793693 511.9282 
" clip-path="url(#p2c8df391b2)" style="fill: none; stroke: #363636; stroke-width: 0.5; stroke-linecap: square"/>
   </g>
   <g id="line2d_19">
    <path d="M 135.446921 659.824479 
L 135.474657 659.780076 
L 135.502394 659.735664 
L 135.53013 659.691242 
L 135.557867 659.646811 
L 135.585603 659.60237 
L 135.61334 659.557919 
L 135.641076 659.513459 
L 135.668813 659.468989 
L 135.69655 659.42451 
L 135.724286 659.380021 
L 135.752023 659.335522 
L 135.779759 659.291014 
L 135.807496 659.246496 
L 135.835232 659.201969 
L 135.862969 659.157432 
L 135.890705 659.112885 
L 135.918442 659.068329 
L 135.946178 659.023763 
L 135.973915 658.979188 
L 136.001652 658.934603 
L 136.029388 658.890009 
L 136.057125 658.845405 
L 136.084861 658.800791 
L 136.112598 658.756168 
L 136.140334 658.711535 
L 136.168071 658.666892 
L 136.195807 658.622241 
L 136.223544 658.577579 
L 136.25128 658.532908 
L 136.279017 658.488227 
L 136.306754 658.443537 
L 136.33449 658.398837 
L 136.362227 658.354128 
L 136.389963 658.309409 
L 136.4177 658.26468 
L 136.445436 658.219942 
L 136.473173 658.175195 
L 136.500909 658.130438 
L 136.528646 658.085671 
L 136.556382 658.040894 
L 136.584119 657.996109 
L 136.611856 657.951313 
L 136.639592 657.906508 
L 136.667329 657.861694 
L 136.695065 657.81687 
L 136.722802 657.772036 
L 136.750538 657.727193 
L 136.778275 657.68234 
L 136.806011 657.637478 
L 136.833748 657.592606 
L 136.861484 657.547725 
L 136.889221 657.502834 
L 136.916958 657.457934 
L 136.944694 657.413024 
L 136.972431 657.368104 
L 137.000167 657.323175 
L 137.027904 657.278236 
L 137.05564 657.233288 
L 137.083377 657.188331 
L 137.111113 657.143364 
L 137.13885 657.098387 
L 137.166587 657.053401 
L 137.194323 657.008405 
L 137.22206 656.9634 
L 137.249796 656.918385 
L 137.277533 656.87336 
L 137.305269 656.828327 
L 137.333006 656.783283 
L 137.360742 656.73823 
L 137.388479 656.693168 
L 137.416215 656.648096 
L 137.443952 656.603015 
L 137.471689 656.557924 
L 137.499425 656.512823 
L 137.527162 656.467713 
L 137.554898 656.422594 
L 137.582635 656.377465 
L 137.610371 656.332326 
L 137.638108 656.287178 
L 137.665844 656.242021 
L 137.693581 656.196854 
L 137.721317 656.151677 
L 137.749054 656.106491 
L 137.776791 656.061296 
L 137.804527 656.016091 
L 137.832264 655.970876 
L 137.86 655.925652 
L 137.887737 655.880419 
L 137.915473 655.835176 
L 137.94321 655.789923 
L 137.970946 655.744661 
L 137.998683 655.69939 
L 138.026419 655.654109 
L 138.054156 655.608818 
L 138.081893 655.563518 
L 138.109629 655.518209 
L 138.137366 655.47289 
L 138.165102 655.427562 
L 138.192839 655.382224 
" clip-path="url(#p2c8df391b2)" style="fill: none; stroke: #ff0000; stroke-width: 2; stroke-linecap: square"/>
   </g>
   <g id="line2d_20">
    <path d="M 138.192839 655.382224 
L 171.858286 641.617289 
L 203.156624 628.814237 
L 232.238268 616.938316 
L 259.235348 605.959036 
L 284.263764 595.848739 
L 307.429273 586.579484 
L 328.833931 578.120283 
L 348.580098 570.435911 
L 366.771373 563.487297 
L 383.511393 557.232838 
L 398.901752 551.62992 
L 413.040004 546.636213 
L 426.018245 542.210548 
L 437.922372 538.313383 
L 448.831965 534.906936 
L 458.820589 531.955119 
L 467.956385 529.423349 
L 476.302781 527.278324 
L 483.919274 525.487804 
L 490.862196 524.020406 
L 497.18549 522.845437 
L 497.684672 522.760016 
L 499.623472 522.769131 
L 501.781512 522.779272 
L 503.985898 522.789632 
L 506.237617 522.800219 
L 508.537675 522.811035 
L 510.8871 522.822087 
L 513.286943 522.833379 
L 515.738274 522.844917 
L 518.242188 522.856706 
L 520.7998 522.868752 
L 523.412252 522.88106 
L 526.080705 522.893636 
L 528.806348 522.906486 
L 531.590393 522.919616 
L 534.434077 522.933031 
L 537.338663 522.946739 
L 540.30544 522.960745 
L 543.335723 522.975057 
L 546.430856 522.98968 
L 549.592209 523.004622 
L 552.82118 523.01989 
L 556.119196 523.03549 
L 559.487715 523.051431 
L 562.928223 523.067719 
L 566.442236 523.084362 
L 570.031302 523.101369 
L 573.697002 523.118746 
L 577.440947 523.136502 
L 581.264781 523.154646 
L 585.170183 523.173186 
L 589.158865 523.19213 
L 593.232573 523.211488 
L 597.39309 523.231269 
L 601.642235 523.251481 
L 605.981861 523.272135 
L 610.413861 523.29324 
L 614.940167 523.314807 
L 619.562746 523.336844 
L 624.283608 523.359363 
L 629.104802 523.382375 
L 634.028417 523.40589 
L 639.056585 523.429919 
L 644.191479 523.454473 
L 649.435318 523.479565 
L 654.790361 523.505206 
L 660.258914 523.531408 
L 663.192895 523.54545 
L 665.293116 523.269383 
L 669.833572 522.612231 
L 674.504123 521.851643 
L 679.312951 520.981091 
L 684.268364 519.993981 
L 689.37879 518.883659 
L 694.65277 517.643402 
L 700.098955 516.266414 
L 705.726098 514.745819 
L 711.543049 513.074652 
L 717.558755 511.245843 
L 723.782251 509.252209 
L 730.222654 507.086437 
L 736.889164 504.741076 
L 743.791049 502.208518 
L 750.937643 499.480994 
L 758.338335 496.550561 
L 766.002555 493.409098 
L 773.939764 490.048302 
L 782.159441 486.459691 
L 790.67106 482.634605 
L 799.484077 478.56422 
L 808.607905 474.23955 
L 818.051895 469.651472 
L 827.82531 464.790735 
L 837.937298 459.647984 
L 848.396868 454.213784 
L 859.212858 448.478634 
L 870.393909 442.433002 
L 881.948433 436.067339 
L 893.884584 429.372106 
L 906.210227 422.337796 
" clip-path="url(#p2c8df391b2)" style="fill: none; stroke: #ff0000; stroke-width: 2; stroke-linecap: square"/>
   </g>
   <g id="line2d_21">
    <path d="M 1397.676136 75.186667 
L 1394.406794 79.026068 
L 1391.137452 82.85769 
L 1387.868111 86.681568 
L 1384.598769 90.497737 
L 1381.329428 94.306233 
L 1378.060086 98.107091 
L 1374.790745 101.900344 
L 1371.521403 105.686027 
L 1368.252061 109.464174 
L 1364.98272 113.234819 
L 1361.713378 116.997997 
L 1358.444037 120.753739 
L 1355.174695 124.502079 
L 1351.905354 128.243051 
L 1348.636012 131.976687 
L 1345.36667 135.703019 
L 1342.097329 139.422081 
L 1338.827987 143.133904 
L 1335.558646 146.838519 
L 1332.289304 150.53596 
L 1329.019963 154.226257 
L 1325.750621 157.909442 
L 1322.48128 161.585545 
L 1319.211938 165.254599 
L 1315.942596 168.916632 
L 1312.673255 172.571678 
L 1309.403913 176.219764 
L 1306.134572 179.860922 
L 1302.86523 183.495182 
L 1299.595889 187.122574 
L 1296.326547 190.743126 
L 1293.057205 194.356869 
L 1289.787864 197.963832 
L 1286.518522 201.564044 
L 1283.249181 205.157534 
L 1279.979839 208.744331 
L 1276.710498 212.324462 
L 1273.441156 215.897957 
L 1270.171814 219.464844 
L 1266.902473 223.025151 
L 1263.633131 226.578905 
L 1260.36379 230.126135 
L 1257.094448 233.666867 
L 1253.825107 237.20113 
L 1250.555765 240.72895 
L 1247.286424 244.250355 
L 1244.017082 247.765371 
L 1240.74774 251.274026 
L 1237.478399 254.776344 
L 1234.209057 258.272354 
L 1230.939716 261.762081 
L 1227.670374 265.245552 
L 1224.401033 268.722791 
L 1221.131691 272.193826 
L 1217.862349 275.658681 
L 1214.593008 279.117382 
L 1211.323666 282.569954 
L 1208.054325 286.016423 
L 1204.784983 289.456813 
L 1201.515642 292.89115 
L 1198.2463 296.319457 
L 1194.976958 299.741759 
L 1191.707617 303.158082 
L 1188.438275 306.568448 
L 1185.168934 309.972882 
L 1181.899592 313.371408 
L 1178.630251 316.76405 
L 1175.360909 320.150831 
L 1172.091568 323.531775 
L 1168.822226 326.906905 
L 1165.552884 330.276244 
L 1162.283543 333.639815 
L 1159.014201 336.997641 
L 1155.74486 340.349746 
L 1152.475518 343.69615 
L 1149.206177 347.036878 
L 1145.936835 350.371951 
L 1142.667493 353.701391 
L 1139.398152 357.02522 
L 1136.12881 360.343461 
L 1132.859469 363.656134 
L 1129.590127 366.963262 
L 1126.320786 370.264866 
L 1123.051444 373.560966 
L 1119.782102 376.851586 
L 1116.512761 380.136744 
L 1113.243419 383.416462 
L 1109.974078 386.690762 
L 1106.704736 389.959662 
L 1103.435395 393.223185 
L 1100.166053 396.48135 
L 1096.896712 399.734177 
L 1093.62737 402.981686 
L 1090.358028 406.223897 
L 1087.088687 409.46083 
L 1083.819345 412.692505 
L 1080.550004 415.91894 
L 1077.280662 419.140155 
L 1074.011321 422.35617 
" clip-path="url(#p2c8df391b2)" style="fill: none; stroke: #ff0000; stroke-width: 2; stroke-linecap: square"/>
   </g>
   <g id="line2d_22">
    <path d="M 1074.011321 422.35617 
L 1033.417439 450.005723 
L 994.281163 476.168822 
L 956.613361 500.87805 
L 920.42252 524.163882 
L 885.714502 546.055232 
L 852.492346 566.579991 
L 820.756263 585.765576 
L 790.503886 603.639686 
L 761.730438 620.231621 
L 734.427955 635.574213 
L 708.58293 649.705685 
L 691.438899 658.8521 
L 684.713754 658.863705 
L 663.131743 658.900951 
L 642.374777 658.936811 
L 622.410798 658.971336 
L 603.209031 659.004576 
L 584.739929 659.036578 
L 566.975125 659.067389 
L 549.887378 659.097051 
L 533.450528 659.125607 
L 517.639453 659.153099 
L 502.430023 659.179566 
L 487.799062 659.205045 
L 473.724307 659.229574 
L 460.184369 659.253187 
L 447.158701 659.275919 
L 434.627561 659.297802 
L 422.571982 659.318868 
L 410.973734 659.339147 
L 399.815304 659.358668 
L 389.079858 659.37746 
L 378.75122 659.39555 
L 368.813842 659.412963 
L 359.252779 659.429726 
L 350.053667 659.445861 
L 341.202698 659.461394 
L 332.6866 659.476345 
L 324.492611 659.490737 
L 316.608465 659.50459 
L 309.022368 659.517925 
L 301.72298 659.530761 
L 294.699398 659.543117 
L 287.94114 659.55501 
L 281.438125 659.566458 
L 275.18066 659.577477 
L 269.159423 659.588084 
L 263.365453 659.598293 
L 257.790127 659.60812 
L 252.425156 659.617579 
L 247.262567 659.626683 
L 242.294693 659.635447 
L 237.514157 659.643882 
L 232.913867 659.652001 
L 228.486999 659.659816 
L 224.226992 659.667338 
L 220.127533 659.674578 
L 216.182549 659.681547 
L 212.386201 659.688254 
L 208.73287 659.69471 
L 205.217151 659.700924 
L 201.833845 659.706905 
L 198.57795 659.712662 
L 195.444655 659.718203 
L 192.429331 659.723536 
L 189.527524 659.728669 
L 186.734951 659.73361 
L 184.047489 659.738366 
L 181.461173 659.742943 
L 178.972188 659.747348 
L 176.576862 659.751588 
L 174.271665 659.755669 
L 172.053198 659.759597 
L 169.918192 659.763378 
L 167.863501 659.767017 
L 165.886099 659.770519 
L 163.983073 659.77389 
L 162.15162 659.777135 
L 160.389046 659.780258 
L 158.692755 659.783263 
L 157.060251 659.786156 
L 155.489133 659.78894 
L 153.977088 659.79162 
L 152.521893 659.794199 
L 151.121407 659.796682 
L 149.773572 659.799071 
L 148.476405 659.801371 
L 147.228 659.803584 
L 146.026521 659.805714 
L 144.870204 659.807765 
L 143.757348 659.809738 
L 142.686318 659.811638 
L 141.655542 659.813466 
L 140.663504 659.815225 
L 139.708748 659.816918 
L 138.789871 659.818548 
L 137.905524 659.820117 
L 137.054409 659.821627 
L 136.235275 659.82308 
L 135.446921 659.824479 
" clip-path="url(#p2c8df391b2)" style="fill: none; stroke: #ff0000; stroke-width: 2; stroke-linecap: square"/>
   </g>
   <g id="patch_3">
    <path d="M 58.97 670.84 
L 58.97 32.64 
" style="fill: none; stroke: #000000; stroke-width: 0.8; stroke-linejoin: miter; stroke-linecap: square"/>
   </g>
   <g id="patch_4">
    <path d="M 1429.2 670.84 
L 1429.2 32.64 
" style="fill: none; stroke: #000000; stroke-width: 0.8; stroke-linejoin: miter; stroke-linecap: square"/>
   </g>
   <g id="patch_5">
    <path d="M 58.97 670.84 
L 1429.2 670.84 
" style="fill: none; stroke: #000000; stroke-width: 0.8; stroke-linejoin: miter; stroke-linecap: square"/>
   </g>
   <g id="patch_6">
    <path d="M 58.97 32.64 
L 1429.2 32.64 
" style="fill: none; stroke: #000000; stroke-width: 0.8; stroke-linejoin: miter; stroke-linecap: square"/>
   </g>
   <g id="text_15">
    <g id="patch_7">
     <path d="M 645.843391 634.657177 
L 687.874641 634.657177 
L 687.874641 624.979052 
L 645.843391 624.979052 
z
" style="fill: #ffffff; stroke: #ffffff; stroke-linejoin: miter"/>
    </g>
    <!-- 10.0 bar -->
    <g transform="translate(645.843391 632.577489) scale(0.1 -0.1)">
     <defs>
      <path id="DejaVuSans-62" d="M 3116 1747 
Q 3116 2381 2855 2742 
Q 2594 3103 2138 3103 
Q 1681 3103 1420 2742 
Q 1159 2381 1159 1747 
Q 1159 1113 1420 752 
Q 1681 391 2138 391 
Q 2594 391 2855 752 
Q 3116 1113 3116 1747 
z
M 1159 2969 
Q 1341 3281 1617 3432 
Q 1894 3584 2278 3584 
Q 2916 3584 3314 3078 
Q 3713 2572 3713 1747 
Q 3713 922 3314 415 
Q 2916 -91 2278 -91 
Q 1894 -91 1617 61 
Q 1341 213 1159 525 
L 1159 0 
L 581 0 
L 581 4863 
L 1159 4863 
L 1159 2969 
z
" transform="scale(0.015625)"/>
     </defs>
     <use xlink:href="#DejaVuSans-31"/>
     <use xlink:href="#DejaVuSans-30" x="63.623047"/>
     <use xlink:href="#DejaVuSans-2e" x="127.246094"/>
     <use xlink:href="#DejaVuSans-30" x="159.033203"/>
     <use xlink:href="#DejaVuSans-20" x="222.65625"/>
     <use xlink:href="#DejaVuSans-62" x="254.443359"/>
     <use xlink:href="#DejaVuSans-61" x="317.919922"/>
     <use xlink:href="#DejaVuSans-72" x="379.199219"/>
    </g>
   </g>
   <g id="text_16">
    <g id="patch_8">
     <path d="M 753.789978 547.342658 
L 791.027437 527.849129 
L 786.538852 519.274823 
L 749.301394 538.768352 
z
" style="fill: #ffffff; stroke: #ffffff; stroke-linejoin: miter"/>
    </g>
    <!-- 20.0 bar -->
    <g transform="translate(752.825447 545.500165) rotate(-27.631719) scale(0.1 -0.1)">
     <use xlink:href="#DejaVuSans-32"/>
     <use xlink:href="#DejaVuSans-30" x="63.623047"/>
     <use xlink:href="#DejaVuSans-2e" x="127.246094"/>
     <use xlink:href="#DejaVuSans-30" x="159.033203"/>
     <use xlink:href="#DejaVuSans-20" x="222.65625"/>
     <use xlink:href="#DejaVuSans-62" x="254.443359"/>
     <use xlink:href="#DejaVuSans-61" x="317.919922"/>
     <use xlink:href="#DejaVuSans-72" x="379.199219"/>
    </g>
   </g>
   <g id="text_17">
    <g id="patch_9">
     <path d="M 908.024226 427.585811 
L 943.666196 405.30856 
L 938.536631 397.101632 
L 902.894661 419.378883 
z
" style="fill: #ffffff; stroke: #ffffff; stroke-linejoin: miter"/>
    </g>
    <!-- 30.0 bar -->
    <g transform="translate(906.921957 425.822263) rotate(-32.006562) scale(0.1 -0.1)">
     <use xlink:href="#DejaVuSans-33"/>
     <use xlink:href="#DejaVuSans-30" x="63.623047"/>
     <use xlink:href="#DejaVuSans-2e" x="127.246094"/>
     <use xlink:href="#DejaVuSans-30" x="159.033203"/>
     <use xlink:href="#DejaVuSans-20" x="222.65625"/>
     <use xlink:href="#DejaVuSans-62" x="254.443359"/>
     <use xlink:href="#DejaVuSans-61" x="317.919922"/>
     <use xlink:href="#DejaVuSans-72" x="379.199219"/>
    </g>
   </g>
   <g id="text_18">
    <g id="patch_10">
     <path d="M 1028.485935 327.640437 
L 1063.110933 303.813237 
L 1057.624477 295.840477 
L 1022.999478 319.667677 
z
" style="fill: #ffffff; stroke: #ffffff; stroke-linejoin: miter"/>
    </g>
    <!-- 40.0 bar -->
    <g transform="translate(1027.306976 325.927208) rotate(-34.533813) scale(0.1 -0.1)">
     <use xlink:href="#DejaVuSans-34"/>
     <use xlink:href="#DejaVuSans-30" x="63.623047"/>
     <use xlink:href="#DejaVuSans-2e" x="127.246094"/>
     <use xlink:href="#DejaVuSans-30" x="159.033203"/>
     <use xlink:href="#DejaVuSans-20" x="222.65625"/>
     <use xlink:href="#DejaVuSans-62" x="254.443359"/>
     <use xlink:href="#DejaVuSans-61" x="317.919922"/>
     <use xlink:href="#DejaVuSans-72" x="379.199219"/>
    </g>
   </g>
   <g id="text_19">
    <g id="patch_11">
     <path d="M 309.186955 595.214825 
L 330.083067 586.374798 
L 326.312313 577.461465 
L 305.416201 586.301492 
z
" style="fill: #ffffff; stroke: #ffffff; stroke-linejoin: miter"/>
    </g>
    <!-- 0.0 - -->
    <g transform="translate(308.376675 593.29948) rotate(-22.930622) scale(0.1 -0.1)">
     <defs>
      <path id="DejaVuSans-2d" d="M 313 2009 
L 1997 2009 
L 1997 1497 
L 313 1497 
L 313 2009 
z
" transform="scale(0.015625)"/>
     </defs>
     <use xlink:href="#DejaVuSans-30"/>
     <use xlink:href="#DejaVuSans-2e" x="63.623047"/>
     <use xlink:href="#DejaVuSans-30" x="95.410156"/>
     <use xlink:href="#DejaVuSans-20" x="159.033203"/>
     <use xlink:href="#DejaVuSans-2d" x="190.820312"/>
    </g>
   </g>
   <g id="text_20">
    <g id="patch_12">
     <path d="M 692.588216 575.105616 
L 693.09984 597.78891 
L 702.775504 597.570674 
L 702.26388 574.887381 
z
" style="fill: #ffffff; stroke: #ffffff; stroke-linejoin: miter"/>
    </g>
    <!-- 1.0 - -->
    <g transform="translate(694.667375 575.058721) rotate(-271.292093) scale(0.1 -0.1)">
     <use xlink:href="#DejaVuSans-31"/>
     <use xlink:href="#DejaVuSans-2e" x="63.623047"/>
     <use xlink:href="#DejaVuSans-30" x="95.410156"/>
     <use xlink:href="#DejaVuSans-20" x="159.033203"/>
     <use xlink:href="#DejaVuSans-2d" x="190.820312"/>
    </g>
   </g>
   <g id="text_21">
    <!-- T-s Diagram for ORC System -->
    <g transform="translate(602.081875 26.64) scale(0.2 -0.2)">
     <defs>
      <path id="DejaVuSans-44" d="M 1259 4147 
L 1259 519 
L 2022 519 
Q 2988 519 3436 956 
Q 3884 1394 3884 2338 
Q 3884 3275 3436 3711 
Q 2988 4147 2022 4147 
L 1259 4147 
z
M 628 4666 
L 1925 4666 
Q 3281 4666 3915 4102 
Q 4550 3538 4550 2338 
Q 4550 1131 3912 565 
Q 3275 0 1925 0 
L 628 0 
L 628 4666 
z
" transform="scale(0.015625)"/>
      <path id="DejaVuSans-69" d="M 603 3500 
L 1178 3500 
L 1178 0 
L 603 0 
L 603 3500 
z
M 603 4863 
L 1178 4863 
L 1178 4134 
L 603 4134 
L 603 4863 
z
" transform="scale(0.015625)"/>
      <path id="DejaVuSans-66" d="M 2375 4863 
L 2375 4384 
L 1825 4384 
Q 1516 4384 1395 4259 
Q 1275 4134 1275 3809 
L 1275 3500 
L 2222 3500 
L 2222 3053 
L 1275 3053 
L 1275 0 
L 697 0 
L 697 3053 
L 147 3053 
L 147 3500 
L 697 3500 
L 697 3744 
Q 697 4328 969 4595 
Q 1241 4863 1831 4863 
L 2375 4863 
z
" transform="scale(0.015625)"/>
      <path id="DejaVuSans-4f" d="M 2522 4238 
Q 1834 4238 1429 3725 
Q 1025 3213 1025 2328 
Q 1025 1447 1429 934 
Q 1834 422 2522 422 
Q 3209 422 3611 934 
Q 4013 1447 4013 2328 
Q 4013 3213 3611 3725 
Q 3209 4238 2522 4238 
z
M 2522 4750 
Q 3503 4750 4090 4092 
Q 4678 3434 4678 2328 
Q 4678 1225 4090 567 
Q 3503 -91 2522 -91 
Q 1538 -91 948 565 
Q 359 1222 359 2328 
Q 359 3434 948 4092 
Q 1538 4750 2522 4750 
z
" transform="scale(0.015625)"/>
      <path id="DejaVuSans-52" d="M 2841 2188 
Q 3044 2119 3236 1894 
Q 3428 1669 3622 1275 
L 4263 0 
L 3584 0 
L 2988 1197 
Q 2756 1666 2539 1819 
Q 2322 1972 1947 1972 
L 1259 1972 
L 1259 0 
L 628 0 
L 628 4666 
L 2053 4666 
Q 2853 4666 3247 4331 
Q 3641 3997 3641 3322 
Q 3641 2881 3436 2590 
Q 3231 2300 2841 2188 
z
M 1259 4147 
L 1259 2491 
L 2053 2491 
Q 2509 2491 2742 2702 
Q 2975 2913 2975 3322 
Q 2975 3731 2742 3939 
Q 2509 4147 2053 4147 
L 1259 4147 
z
" transform="scale(0.015625)"/>
      <path id="DejaVuSans-53" d="M 3425 4513 
L 3425 3897 
Q 3066 4069 2747 4153 
Q 2428 4238 2131 4238 
Q 1616 4238 1336 4038 
Q 1056 3838 1056 3469 
Q 1056 3159 1242 3001 
Q 1428 2844 1947 2747 
L 2328 2669 
Q 3034 2534 3370 2195 
Q 3706 1856 3706 1288 
Q 3706 609 3251 259 
Q 2797 -91 1919 -91 
Q 1588 -91 1214 -16 
Q 841 59 441 206 
L 441 856 
Q 825 641 1194 531 
Q 1563 422 1919 422 
Q 2459 422 2753 634 
Q 3047 847 3047 1241 
Q 3047 1584 2836 1778 
Q 2625 1972 2144 2069 
L 1759 2144 
Q 1053 2284 737 2584 
Q 422 2884 422 3419 
Q 422 4038 858 4394 
Q 1294 4750 2059 4750 
Q 2388 4750 2728 4690 
Q 3069 4631 3425 4513 
z
" transform="scale(0.015625)"/>
     </defs>
     <use xlink:href="#DejaVuSans-54"/>
     <use xlink:href="#DejaVuSans-2d" x="51.958984"/>
     <use xlink:href="#DejaVuSans-73" x="88.042969"/>
     <use xlink:href="#DejaVuSans-20" x="140.142578"/>
     <use xlink:href="#DejaVuSans-44" x="171.929688"/>
     <use xlink:href="#DejaVuSans-69" x="248.931641"/>
     <use xlink:href="#DejaVuSans-61" x="276.714844"/>
     <use xlink:href="#DejaVuSans-67" x="337.994141"/>
     <use xlink:href="#DejaVuSans-72" x="401.470703"/>
     <use xlink:href="#DejaVuSans-61" x="442.583984"/>
     <use xlink:href="#DejaVuSans-6d" x="503.863281"/>
     <use xlink:href="#DejaVuSans-20" x="601.275391"/>
     <use xlink:href="#DejaVuSans-66" x="633.0625"/>
     <use xlink:href="#DejaVuSans-6f" x="668.267578"/>
     <use xlink:href="#DejaVuSans-72" x="729.449219"/>
     <use xlink:href="#DejaVuSans-20" x="770.5625"/>
     <use xlink:href="#DejaVuSans-4f" x="802.349609"/>
     <use xlink:href="#DejaVuSans-52" x="881.060547"/>
     <use xlink:href="#DejaVuSans-43" x="945.542969"/>
     <use xlink:href="#DejaVuSans-20" x="1015.367188"/>
     <use xlink:href="#DejaVuSans-53" x="1047.154297"/>
     <use xlink:href="#DejaVuSans-79" x="1110.630859"/>
     <use xlink:href="#DejaVuSans-73" x="1169.810547"/>
     <use xlink:href="#DejaVuSans-74" x="1221.910156"/>
     <use xlink:href="#DejaVuSans-65" x="1261.119141"/>
     <use xlink:href="#DejaVuSans-6d" x="1322.642578"/>
    </g>
   </g>
  </g>
 </g>
 <defs>
  <clipPath id="p2c8df391b2">
   <rect x="58.97" y="32.64" width="1370.23" height="638.2"/>
  </clipPath>
 </defs>
</svg>
