<?xml version="1.0" encoding="utf-8" standalone="no"?>
<!DOCTYPE svg PUBLIC "-//W3C//DTD SVG 1.1//EN"
  "http://www.w3.org/Graphics/SVG/1.1/DTD/svg11.dtd">
<svg xmlns:xlink="http://www.w3.org/1999/xlink" width="1440pt" height="864pt" viewBox="0 0 1440 864" xmlns="http://www.w3.org/2000/svg" version="1.1">
 <metadata>
  <rdf:RDF xmlns:dc="http://purl.org/dc/elements/1.1/" xmlns:cc="http://creativecommons.org/ns#" xmlns:rdf="http://www.w3.org/1999/02/22-rdf-syntax-ns#">
   <cc:Work>
    <dc:type rdf:resource="http://purl.org/dc/dcmitype/StillImage"/>
    <dc:date>2024-05-28T19:16:05.608241</dc:date>
    <dc:format>image/svg+xml</dc:format>
    <dc:creator>
     <cc:Agent>
      <dc:title>Matplotlib v3.8.1, https://matplotlib.org/</dc:title>
     </cc:Agent>
    </dc:creator>
   </cc:Work>
  </rdf:RDF>
 </metadata>
 <defs>
  <style type="text/css">*{stroke-linejoin: round; stroke-linecap: butt}</style>
 </defs>
 <g id="figure_1">
  <g id="patch_1">
   <path d="M 0 864 
L 1440 864 
L 1440 0 
L 0 0 
z
" style="fill: #ffffff"/>
  </g>
  <g id="axes_1">
   <g id="patch_2">
    <path d="M 91.46 794.68 
L 1429.2 794.68 
L 1429.2 41.76 
L 91.46 41.76 
z
" style="fill: #ffffff"/>
   </g>
   <g id="PathCollection_1">
    <defs>
     <path id="m60aca21aab" d="M 0 3 
C 0.795609 3 1.55874 2.683901 2.12132 2.12132 
C 2.683901 1.55874 3 0.795609 3 0 
C 3 -0.795609 2.683901 -1.55874 2.12132 -2.12132 
C 1.55874 -2.683901 0.795609 -3 0 -3 
C -0.795609 -3 -1.55874 -2.683901 -2.12132 -2.12132 
C -2.683901 -1.55874 -3 -0.795609 -3 0 
C -3 0.795609 -2.683901 1.55874 -2.12132 2.12132 
C -1.55874 2.683901 -0.795609 3 0 3 
z
" style="stroke: #ff0000"/>
    </defs>
    <g clip-path="url(#pa09e5f7a73)">
     <use xlink:href="#m60aca21aab" x="246.148717" y="664.678807" style="fill: #ff0000; stroke: #ff0000"/>
    </g>
   </g>
   <g id="PathCollection_2">
    <g clip-path="url(#pa09e5f7a73)">
     <use xlink:href="#m60aca21aab" x="1306.831369" y="192.344" style="fill: #ff0000; stroke: #ff0000"/>
    </g>
   </g>
   <g id="PathCollection_3">
    <g clip-path="url(#pa09e5f7a73)">
     <use xlink:href="#m60aca21aab" x="1324.081465" y="674.960469" style="fill: #ff0000; stroke: #ff0000"/>
    </g>
   </g>
   <g id="PathCollection_4">
    <g clip-path="url(#pa09e5f7a73)">
     <use xlink:href="#m60aca21aab" x="240.787099" y="680.401132" style="fill: #ff0000; stroke: #ff0000"/>
    </g>
   </g>
   <g id="matplotlib.axis_1">
    <g id="xtick_1">
     <g id="line2d_1">
      <defs>
       <path id="m71d29192f6" d="M 0 0 
L 0 3.5 
" style="stroke: #000000; stroke-width: 0.8"/>
      </defs>
      <g>
       <use xlink:href="#m71d29192f6" x="202.938333" y="794.68" style="stroke: #000000; stroke-width: 0.8"/>
      </g>
     </g>
     <g id="text_1">
      <!-- 1100 -->
      <g transform="translate(172.398333 819.91625) scale(0.24 -0.24)">
       <defs>
        <path id="DejaVuSans-31" d="M 794 531 
L 1825 531 
L 1825 4091 
L 703 3866 
L 703 4441 
L 1819 4666 
L 2450 4666 
L 2450 531 
L 3481 531 
L 3481 0 
L 794 0 
L 794 531 
z
" transform="scale(0.015625)"/>
        <path id="DejaVuSans-30" d="M 2034 4250 
Q 1547 4250 1301 3770 
Q 1056 3291 1056 2328 
Q 1056 1369 1301 889 
Q 1547 409 2034 409 
Q 2525 409 2770 889 
Q 3016 1369 3016 2328 
Q 3016 3291 2770 3770 
Q 2525 4250 2034 4250 
z
M 2034 4750 
Q 2819 4750 3233 4129 
Q 3647 3509 3647 2328 
Q 3647 1150 3233 529 
Q 2819 -91 2034 -91 
Q 1250 -91 836 529 
Q 422 1150 422 2328 
Q 422 3509 836 4129 
Q 1250 4750 2034 4750 
z
" transform="scale(0.015625)"/>
       </defs>
       <use xlink:href="#DejaVuSans-31"/>
       <use xlink:href="#DejaVuSans-31" x="63.623047"/>
       <use xlink:href="#DejaVuSans-30" x="127.246094"/>
       <use xlink:href="#DejaVuSans-30" x="190.869141"/>
      </g>
     </g>
    </g>
    <g id="xtick_2">
     <g id="line2d_2">
      <g>
       <use xlink:href="#m71d29192f6" x="425.895" y="794.68" style="stroke: #000000; stroke-width: 0.8"/>
      </g>
     </g>
     <g id="text_2">
      <!-- 1200 -->
      <g transform="translate(395.355 819.91625) scale(0.24 -0.24)">
       <defs>
        <path id="DejaVuSans-32" d="M 1228 531 
L 3431 531 
L 3431 0 
L 469 0 
L 469 531 
Q 828 903 1448 1529 
Q 2069 2156 2228 2338 
Q 2531 2678 2651 2914 
Q 2772 3150 2772 3378 
Q 2772 3750 2511 3984 
Q 2250 4219 1831 4219 
Q 1534 4219 1204 4116 
Q 875 4013 500 3803 
L 500 4441 
Q 881 4594 1212 4672 
Q 1544 4750 1819 4750 
Q 2544 4750 2975 4387 
Q 3406 4025 3406 3419 
Q 3406 3131 3298 2873 
Q 3191 2616 2906 2266 
Q 2828 2175 2409 1742 
Q 1991 1309 1228 531 
z
" transform="scale(0.015625)"/>
       </defs>
       <use xlink:href="#DejaVuSans-31"/>
       <use xlink:href="#DejaVuSans-32" x="63.623047"/>
       <use xlink:href="#DejaVuSans-30" x="127.246094"/>
       <use xlink:href="#DejaVuSans-30" x="190.869141"/>
      </g>
     </g>
    </g>
    <g id="xtick_3">
     <g id="line2d_3">
      <g>
       <use xlink:href="#m71d29192f6" x="648.851667" y="794.68" style="stroke: #000000; stroke-width: 0.8"/>
      </g>
     </g>
     <g id="text_3">
      <!-- 1300 -->
      <g transform="translate(618.311667 819.91625) scale(0.24 -0.24)">
       <defs>
        <path id="DejaVuSans-33" d="M 2597 2516 
Q 3050 2419 3304 2112 
Q 3559 1806 3559 1356 
Q 3559 666 3084 287 
Q 2609 -91 1734 -91 
Q 1441 -91 1130 -33 
Q 819 25 488 141 
L 488 750 
Q 750 597 1062 519 
Q 1375 441 1716 441 
Q 2309 441 2620 675 
Q 2931 909 2931 1356 
Q 2931 1769 2642 2001 
Q 2353 2234 1838 2234 
L 1294 2234 
L 1294 2753 
L 1863 2753 
Q 2328 2753 2575 2939 
Q 2822 3125 2822 3475 
Q 2822 3834 2567 4026 
Q 2313 4219 1838 4219 
Q 1578 4219 1281 4162 
Q 984 4106 628 3988 
L 628 4550 
Q 988 4650 1302 4700 
Q 1616 4750 1894 4750 
Q 2613 4750 3031 4423 
Q 3450 4097 3450 3541 
Q 3450 3153 3228 2886 
Q 3006 2619 2597 2516 
z
" transform="scale(0.015625)"/>
       </defs>
       <use xlink:href="#DejaVuSans-31"/>
       <use xlink:href="#DejaVuSans-33" x="63.623047"/>
       <use xlink:href="#DejaVuSans-30" x="127.246094"/>
       <use xlink:href="#DejaVuSans-30" x="190.869141"/>
      </g>
     </g>
    </g>
    <g id="xtick_4">
     <g id="line2d_4">
      <g>
       <use xlink:href="#m71d29192f6" x="871.808333" y="794.68" style="stroke: #000000; stroke-width: 0.8"/>
      </g>
     </g>
     <g id="text_4">
      <!-- 1400 -->
      <g transform="translate(841.268333 819.91625) scale(0.24 -0.24)">
       <defs>
        <path id="DejaVuSans-34" d="M 2419 4116 
L 825 1625 
L 2419 1625 
L 2419 4116 
z
M 2253 4666 
L 3047 4666 
L 3047 1625 
L 3713 1625 
L 3713 1100 
L 3047 1100 
L 3047 0 
L 2419 0 
L 2419 1100 
L 313 1100 
L 313 1709 
L 2253 4666 
z
" transform="scale(0.015625)"/>
       </defs>
       <use xlink:href="#DejaVuSans-31"/>
       <use xlink:href="#DejaVuSans-34" x="63.623047"/>
       <use xlink:href="#DejaVuSans-30" x="127.246094"/>
       <use xlink:href="#DejaVuSans-30" x="190.869141"/>
      </g>
     </g>
    </g>
    <g id="xtick_5">
     <g id="line2d_5">
      <g>
       <use xlink:href="#m71d29192f6" x="1094.765" y="794.68" style="stroke: #000000; stroke-width: 0.8"/>
      </g>
     </g>
     <g id="text_5">
      <!-- 1500 -->
      <g transform="translate(1064.225 819.91625) scale(0.24 -0.24)">
       <defs>
        <path id="DejaVuSans-35" d="M 691 4666 
L 3169 4666 
L 3169 4134 
L 1269 4134 
L 1269 2991 
Q 1406 3038 1543 3061 
Q 1681 3084 1819 3084 
Q 2600 3084 3056 2656 
Q 3513 2228 3513 1497 
Q 3513 744 3044 326 
Q 2575 -91 1722 -91 
Q 1428 -91 1123 -41 
Q 819 9 494 109 
L 494 744 
Q 775 591 1075 516 
Q 1375 441 1709 441 
Q 2250 441 2565 725 
Q 2881 1009 2881 1497 
Q 2881 1984 2565 2268 
Q 2250 2553 1709 2553 
Q 1456 2553 1204 2497 
Q 953 2441 691 2322 
L 691 4666 
z
" transform="scale(0.015625)"/>
       </defs>
       <use xlink:href="#DejaVuSans-31"/>
       <use xlink:href="#DejaVuSans-35" x="63.623047"/>
       <use xlink:href="#DejaVuSans-30" x="127.246094"/>
       <use xlink:href="#DejaVuSans-30" x="190.869141"/>
      </g>
     </g>
    </g>
    <g id="xtick_6">
     <g id="line2d_6">
      <g>
       <use xlink:href="#m71d29192f6" x="1317.721667" y="794.68" style="stroke: #000000; stroke-width: 0.8"/>
      </g>
     </g>
     <g id="text_6">
      <!-- 1600 -->
      <g transform="translate(1287.181667 819.91625) scale(0.24 -0.24)">
       <defs>
        <path id="DejaVuSans-36" d="M 2113 2584 
Q 1688 2584 1439 2293 
Q 1191 2003 1191 1497 
Q 1191 994 1439 701 
Q 1688 409 2113 409 
Q 2538 409 2786 701 
Q 3034 994 3034 1497 
Q 3034 2003 2786 2293 
Q 2538 2584 2113 2584 
z
M 3366 4563 
L 3366 3988 
Q 3128 4100 2886 4159 
Q 2644 4219 2406 4219 
Q 1781 4219 1451 3797 
Q 1122 3375 1075 2522 
Q 1259 2794 1537 2939 
Q 1816 3084 2150 3084 
Q 2853 3084 3261 2657 
Q 3669 2231 3669 1497 
Q 3669 778 3244 343 
Q 2819 -91 2113 -91 
Q 1303 -91 875 529 
Q 447 1150 447 2328 
Q 447 3434 972 4092 
Q 1497 4750 2381 4750 
Q 2619 4750 2861 4703 
Q 3103 4656 3366 4563 
z
" transform="scale(0.015625)"/>
       </defs>
       <use xlink:href="#DejaVuSans-31"/>
       <use xlink:href="#DejaVuSans-36" x="63.623047"/>
       <use xlink:href="#DejaVuSans-30" x="127.246094"/>
       <use xlink:href="#DejaVuSans-30" x="190.869141"/>
      </g>
     </g>
    </g>
    <g id="text_7">
     <!-- Entropy, s [J/kg.K] -->
     <g transform="translate(652.823125 847.14375) scale(0.24 -0.24)">
      <defs>
       <path id="DejaVuSans-45" d="M 628 4666 
L 3578 4666 
L 3578 4134 
L 1259 4134 
L 1259 2753 
L 3481 2753 
L 3481 2222 
L 1259 2222 
L 1259 531 
L 3634 531 
L 3634 0 
L 628 0 
L 628 4666 
z
" transform="scale(0.015625)"/>
       <path id="DejaVuSans-6e" d="M 3513 2113 
L 3513 0 
L 2938 0 
L 2938 2094 
Q 2938 2591 2744 2837 
Q 2550 3084 2163 3084 
Q 1697 3084 1428 2787 
Q 1159 2491 1159 1978 
L 1159 0 
L 581 0 
L 581 3500 
L 1159 3500 
L 1159 2956 
Q 1366 3272 1645 3428 
Q 1925 3584 2291 3584 
Q 2894 3584 3203 3211 
Q 3513 2838 3513 2113 
z
" transform="scale(0.015625)"/>
       <path id="DejaVuSans-74" d="M 1172 4494 
L 1172 3500 
L 2356 3500 
L 2356 3053 
L 1172 3053 
L 1172 1153 
Q 1172 725 1289 603 
Q 1406 481 1766 481 
L 2356 481 
L 2356 0 
L 1766 0 
Q 1100 0 847 248 
Q 594 497 594 1153 
L 594 3053 
L 172 3053 
L 172 3500 
L 594 3500 
L 594 4494 
L 1172 4494 
z
" transform="scale(0.015625)"/>
       <path id="DejaVuSans-72" d="M 2631 2963 
Q 2534 3019 2420 3045 
Q 2306 3072 2169 3072 
Q 1681 3072 1420 2755 
Q 1159 2438 1159 1844 
L 1159 0 
L 581 0 
L 581 3500 
L 1159 3500 
L 1159 2956 
Q 1341 3275 1631 3429 
Q 1922 3584 2338 3584 
Q 2397 3584 2469 3576 
Q 2541 3569 2628 3553 
L 2631 2963 
z
" transform="scale(0.015625)"/>
       <path id="DejaVuSans-6f" d="M 1959 3097 
Q 1497 3097 1228 2736 
Q 959 2375 959 1747 
Q 959 1119 1226 758 
Q 1494 397 1959 397 
Q 2419 397 2687 759 
Q 2956 1122 2956 1747 
Q 2956 2369 2687 2733 
Q 2419 3097 1959 3097 
z
M 1959 3584 
Q 2709 3584 3137 3096 
Q 3566 2609 3566 1747 
Q 3566 888 3137 398 
Q 2709 -91 1959 -91 
Q 1206 -91 779 398 
Q 353 888 353 1747 
Q 353 2609 779 3096 
Q 1206 3584 1959 3584 
z
" transform="scale(0.015625)"/>
       <path id="DejaVuSans-70" d="M 1159 525 
L 1159 -1331 
L 581 -1331 
L 581 3500 
L 1159 3500 
L 1159 2969 
Q 1341 3281 1617 3432 
Q 1894 3584 2278 3584 
Q 2916 3584 3314 3078 
Q 3713 2572 3713 1747 
Q 3713 922 3314 415 
Q 2916 -91 2278 -91 
Q 1894 -91 1617 61 
Q 1341 213 1159 525 
z
M 3116 1747 
Q 3116 2381 2855 2742 
Q 2594 3103 2138 3103 
Q 1681 3103 1420 2742 
Q 1159 2381 1159 1747 
Q 1159 1113 1420 752 
Q 1681 391 2138 391 
Q 2594 391 2855 752 
Q 3116 1113 3116 1747 
z
" transform="scale(0.015625)"/>
       <path id="DejaVuSans-79" d="M 2059 -325 
Q 1816 -950 1584 -1140 
Q 1353 -1331 966 -1331 
L 506 -1331 
L 506 -850 
L 844 -850 
Q 1081 -850 1212 -737 
Q 1344 -625 1503 -206 
L 1606 56 
L 191 3500 
L 800 3500 
L 1894 763 
L 2988 3500 
L 3597 3500 
L 2059 -325 
z
" transform="scale(0.015625)"/>
       <path id="DejaVuSans-2c" d="M 750 794 
L 1409 794 
L 1409 256 
L 897 -744 
L 494 -744 
L 750 256 
L 750 794 
z
" transform="scale(0.015625)"/>
       <path id="DejaVuSans-20" transform="scale(0.015625)"/>
       <path id="DejaVuSans-73" d="M 2834 3397 
L 2834 2853 
Q 2591 2978 2328 3040 
Q 2066 3103 1784 3103 
Q 1356 3103 1142 2972 
Q 928 2841 928 2578 
Q 928 2378 1081 2264 
Q 1234 2150 1697 2047 
L 1894 2003 
Q 2506 1872 2764 1633 
Q 3022 1394 3022 966 
Q 3022 478 2636 193 
Q 2250 -91 1575 -91 
Q 1294 -91 989 -36 
Q 684 19 347 128 
L 347 722 
Q 666 556 975 473 
Q 1284 391 1588 391 
Q 1994 391 2212 530 
Q 2431 669 2431 922 
Q 2431 1156 2273 1281 
Q 2116 1406 1581 1522 
L 1381 1569 
Q 847 1681 609 1914 
Q 372 2147 372 2553 
Q 372 3047 722 3315 
Q 1072 3584 1716 3584 
Q 2034 3584 2315 3537 
Q 2597 3491 2834 3397 
z
" transform="scale(0.015625)"/>
       <path id="DejaVuSans-5b" d="M 550 4863 
L 1875 4863 
L 1875 4416 
L 1125 4416 
L 1125 -397 
L 1875 -397 
L 1875 -844 
L 550 -844 
L 550 4863 
z
" transform="scale(0.015625)"/>
       <path id="DejaVuSans-4a" d="M 628 4666 
L 1259 4666 
L 1259 325 
Q 1259 -519 939 -900 
Q 619 -1281 -91 -1281 
L -331 -1281 
L -331 -750 
L -134 -750 
Q 284 -750 456 -515 
Q 628 -281 628 325 
L 628 4666 
z
" transform="scale(0.015625)"/>
       <path id="DejaVuSans-2f" d="M 1625 4666 
L 2156 4666 
L 531 -594 
L 0 -594 
L 1625 4666 
z
" transform="scale(0.015625)"/>
       <path id="DejaVuSans-6b" d="M 581 4863 
L 1159 4863 
L 1159 1991 
L 2875 3500 
L 3609 3500 
L 1753 1863 
L 3688 0 
L 2938 0 
L 1159 1709 
L 1159 0 
L 581 0 
L 581 4863 
z
" transform="scale(0.015625)"/>
       <path id="DejaVuSans-67" d="M 2906 1791 
Q 2906 2416 2648 2759 
Q 2391 3103 1925 3103 
Q 1463 3103 1205 2759 
Q 947 2416 947 1791 
Q 947 1169 1205 825 
Q 1463 481 1925 481 
Q 2391 481 2648 825 
Q 2906 1169 2906 1791 
z
M 3481 434 
Q 3481 -459 3084 -895 
Q 2688 -1331 1869 -1331 
Q 1566 -1331 1297 -1286 
Q 1028 -1241 775 -1147 
L 775 -588 
Q 1028 -725 1275 -790 
Q 1522 -856 1778 -856 
Q 2344 -856 2625 -561 
Q 2906 -266 2906 331 
L 2906 616 
Q 2728 306 2450 153 
Q 2172 0 1784 0 
Q 1141 0 747 490 
Q 353 981 353 1791 
Q 353 2603 747 3093 
Q 1141 3584 1784 3584 
Q 2172 3584 2450 3431 
Q 2728 3278 2906 2969 
L 2906 3500 
L 3481 3500 
L 3481 434 
z
" transform="scale(0.015625)"/>
       <path id="DejaVuSans-2e" d="M 684 794 
L 1344 794 
L 1344 0 
L 684 0 
L 684 794 
z
" transform="scale(0.015625)"/>
       <path id="DejaVuSans-4b" d="M 628 4666 
L 1259 4666 
L 1259 2694 
L 3353 4666 
L 4166 4666 
L 1850 2491 
L 4331 0 
L 3500 0 
L 1259 2247 
L 1259 0 
L 628 0 
L 628 4666 
z
" transform="scale(0.015625)"/>
       <path id="DejaVuSans-5d" d="M 1947 4863 
L 1947 -844 
L 622 -844 
L 622 -397 
L 1369 -397 
L 1369 4416 
L 622 4416 
L 622 4863 
L 1947 4863 
z
" transform="scale(0.015625)"/>
      </defs>
      <use xlink:href="#DejaVuSans-45"/>
      <use xlink:href="#DejaVuSans-6e" x="63.183594"/>
      <use xlink:href="#DejaVuSans-74" x="126.5625"/>
      <use xlink:href="#DejaVuSans-72" x="165.771484"/>
      <use xlink:href="#DejaVuSans-6f" x="204.634766"/>
      <use xlink:href="#DejaVuSans-70" x="265.816406"/>
      <use xlink:href="#DejaVuSans-79" x="329.292969"/>
      <use xlink:href="#DejaVuSans-2c" x="388.472656"/>
      <use xlink:href="#DejaVuSans-20" x="420.259766"/>
      <use xlink:href="#DejaVuSans-73" x="452.046875"/>
      <use xlink:href="#DejaVuSans-20" x="504.146484"/>
      <use xlink:href="#DejaVuSans-5b" x="535.933594"/>
      <use xlink:href="#DejaVuSans-4a" x="574.947266"/>
      <use xlink:href="#DejaVuSans-2f" x="604.439453"/>
      <use xlink:href="#DejaVuSans-6b" x="638.130859"/>
      <use xlink:href="#DejaVuSans-67" x="696.041016"/>
      <use xlink:href="#DejaVuSans-2e" x="759.517578"/>
      <use xlink:href="#DejaVuSans-4b" x="791.304688"/>
      <use xlink:href="#DejaVuSans-5d" x="856.880859"/>
     </g>
    </g>
   </g>
   <g id="matplotlib.axis_2">
    <g id="ytick_1">
     <g id="line2d_7">
      <defs>
       <path id="ma451851077" d="M 0 0 
L -3.5 0 
" style="stroke: #000000; stroke-width: 0.8"/>
      </defs>
      <g>
       <use xlink:href="#ma451851077" x="91.46" y="719.388" style="stroke: #000000; stroke-width: 0.8"/>
      </g>
     </g>
     <g id="text_8">
      <!-- 20 -->
      <g transform="translate(53.92 728.506125) scale(0.24 -0.24)">
       <use xlink:href="#DejaVuSans-32"/>
       <use xlink:href="#DejaVuSans-30" x="63.623047"/>
      </g>
     </g>
    </g>
    <g id="ytick_2">
     <g id="line2d_8">
      <g>
       <use xlink:href="#ma451851077" x="91.46" y="568.804" style="stroke: #000000; stroke-width: 0.8"/>
      </g>
     </g>
     <g id="text_9">
      <!-- 40 -->
      <g transform="translate(53.92 577.922125) scale(0.24 -0.24)">
       <use xlink:href="#DejaVuSans-34"/>
       <use xlink:href="#DejaVuSans-30" x="63.623047"/>
      </g>
     </g>
    </g>
    <g id="ytick_3">
     <g id="line2d_9">
      <g>
       <use xlink:href="#ma451851077" x="91.46" y="418.22" style="stroke: #000000; stroke-width: 0.8"/>
      </g>
     </g>
     <g id="text_10">
      <!-- 60 -->
      <g transform="translate(53.92 427.338125) scale(0.24 -0.24)">
       <use xlink:href="#DejaVuSans-36"/>
       <use xlink:href="#DejaVuSans-30" x="63.623047"/>
      </g>
     </g>
    </g>
    <g id="ytick_4">
     <g id="line2d_10">
      <g>
       <use xlink:href="#ma451851077" x="91.46" y="267.636" style="stroke: #000000; stroke-width: 0.8"/>
      </g>
     </g>
     <g id="text_11">
      <!-- 80 -->
      <g transform="translate(53.92 276.754125) scale(0.24 -0.24)">
       <defs>
        <path id="DejaVuSans-38" d="M 2034 2216 
Q 1584 2216 1326 1975 
Q 1069 1734 1069 1313 
Q 1069 891 1326 650 
Q 1584 409 2034 409 
Q 2484 409 2743 651 
Q 3003 894 3003 1313 
Q 3003 1734 2745 1975 
Q 2488 2216 2034 2216 
z
M 1403 2484 
Q 997 2584 770 2862 
Q 544 3141 544 3541 
Q 544 4100 942 4425 
Q 1341 4750 2034 4750 
Q 2731 4750 3128 4425 
Q 3525 4100 3525 3541 
Q 3525 3141 3298 2862 
Q 3072 2584 2669 2484 
Q 3125 2378 3379 2068 
Q 3634 1759 3634 1313 
Q 3634 634 3220 271 
Q 2806 -91 2034 -91 
Q 1263 -91 848 271 
Q 434 634 434 1313 
Q 434 1759 690 2068 
Q 947 2378 1403 2484 
z
M 1172 3481 
Q 1172 3119 1398 2916 
Q 1625 2713 2034 2713 
Q 2441 2713 2670 2916 
Q 2900 3119 2900 3481 
Q 2900 3844 2670 4047 
Q 2441 4250 2034 4250 
Q 1625 4250 1398 4047 
Q 1172 3844 1172 3481 
z
" transform="scale(0.015625)"/>
       </defs>
       <use xlink:href="#DejaVuSans-38"/>
       <use xlink:href="#DejaVuSans-30" x="63.623047"/>
      </g>
     </g>
    </g>
    <g id="ytick_5">
     <g id="line2d_11">
      <g>
       <use xlink:href="#ma451851077" x="91.46" y="117.052" style="stroke: #000000; stroke-width: 0.8"/>
      </g>
     </g>
     <g id="text_12">
      <!-- 100 -->
      <g transform="translate(38.65 126.170125) scale(0.24 -0.24)">
       <use xlink:href="#DejaVuSans-31"/>
       <use xlink:href="#DejaVuSans-30" x="63.623047"/>
       <use xlink:href="#DejaVuSans-30" x="127.246094"/>
      </g>
     </g>
    </g>
    <g id="text_13">
     <!-- Temperature, T [oC] -->
     <g transform="translate(29.65875 538.083125) rotate(-90) scale(0.24 -0.24)">
      <defs>
       <path id="DejaVuSans-54" d="M -19 4666 
L 3928 4666 
L 3928 4134 
L 2272 4134 
L 2272 0 
L 1638 0 
L 1638 4134 
L -19 4134 
L -19 4666 
z
" transform="scale(0.015625)"/>
       <path id="DejaVuSans-65" d="M 3597 1894 
L 3597 1613 
L 953 1613 
Q 991 1019 1311 708 
Q 1631 397 2203 397 
Q 2534 397 2845 478 
Q 3156 559 3463 722 
L 3463 178 
Q 3153 47 2828 -22 
Q 2503 -91 2169 -91 
Q 1331 -91 842 396 
Q 353 884 353 1716 
Q 353 2575 817 3079 
Q 1281 3584 2069 3584 
Q 2775 3584 3186 3129 
Q 3597 2675 3597 1894 
z
M 3022 2063 
Q 3016 2534 2758 2815 
Q 2500 3097 2075 3097 
Q 1594 3097 1305 2825 
Q 1016 2553 972 2059 
L 3022 2063 
z
" transform="scale(0.015625)"/>
       <path id="DejaVuSans-6d" d="M 3328 2828 
Q 3544 3216 3844 3400 
Q 4144 3584 4550 3584 
Q 5097 3584 5394 3201 
Q 5691 2819 5691 2113 
L 5691 0 
L 5113 0 
L 5113 2094 
Q 5113 2597 4934 2840 
Q 4756 3084 4391 3084 
Q 3944 3084 3684 2787 
Q 3425 2491 3425 1978 
L 3425 0 
L 2847 0 
L 2847 2094 
Q 2847 2600 2669 2842 
Q 2491 3084 2119 3084 
Q 1678 3084 1418 2786 
Q 1159 2488 1159 1978 
L 1159 0 
L 581 0 
L 581 3500 
L 1159 3500 
L 1159 2956 
Q 1356 3278 1631 3431 
Q 1906 3584 2284 3584 
Q 2666 3584 2933 3390 
Q 3200 3197 3328 2828 
z
" transform="scale(0.015625)"/>
       <path id="DejaVuSans-61" d="M 2194 1759 
Q 1497 1759 1228 1600 
Q 959 1441 959 1056 
Q 959 750 1161 570 
Q 1363 391 1709 391 
Q 2188 391 2477 730 
Q 2766 1069 2766 1631 
L 2766 1759 
L 2194 1759 
z
M 3341 1997 
L 3341 0 
L 2766 0 
L 2766 531 
Q 2569 213 2275 61 
Q 1981 -91 1556 -91 
Q 1019 -91 701 211 
Q 384 513 384 1019 
Q 384 1609 779 1909 
Q 1175 2209 1959 2209 
L 2766 2209 
L 2766 2266 
Q 2766 2663 2505 2880 
Q 2244 3097 1772 3097 
Q 1472 3097 1187 3025 
Q 903 2953 641 2809 
L 641 3341 
Q 956 3463 1253 3523 
Q 1550 3584 1831 3584 
Q 2591 3584 2966 3190 
Q 3341 2797 3341 1997 
z
" transform="scale(0.015625)"/>
       <path id="DejaVuSans-75" d="M 544 1381 
L 544 3500 
L 1119 3500 
L 1119 1403 
Q 1119 906 1312 657 
Q 1506 409 1894 409 
Q 2359 409 2629 706 
Q 2900 1003 2900 1516 
L 2900 3500 
L 3475 3500 
L 3475 0 
L 2900 0 
L 2900 538 
Q 2691 219 2414 64 
Q 2138 -91 1772 -91 
Q 1169 -91 856 284 
Q 544 659 544 1381 
z
M 1991 3584 
L 1991 3584 
z
" transform="scale(0.015625)"/>
       <path id="DejaVuSans-43" d="M 4122 4306 
L 4122 3641 
Q 3803 3938 3442 4084 
Q 3081 4231 2675 4231 
Q 1875 4231 1450 3742 
Q 1025 3253 1025 2328 
Q 1025 1406 1450 917 
Q 1875 428 2675 428 
Q 3081 428 3442 575 
Q 3803 722 4122 1019 
L 4122 359 
Q 3791 134 3420 21 
Q 3050 -91 2638 -91 
Q 1578 -91 968 557 
Q 359 1206 359 2328 
Q 359 3453 968 4101 
Q 1578 4750 2638 4750 
Q 3056 4750 3426 4639 
Q 3797 4528 4122 4306 
z
" transform="scale(0.015625)"/>
      </defs>
      <use xlink:href="#DejaVuSans-54"/>
      <use xlink:href="#DejaVuSans-65" x="44.083984"/>
      <use xlink:href="#DejaVuSans-6d" x="105.607422"/>
      <use xlink:href="#DejaVuSans-70" x="203.019531"/>
      <use xlink:href="#DejaVuSans-65" x="266.496094"/>
      <use xlink:href="#DejaVuSans-72" x="328.019531"/>
      <use xlink:href="#DejaVuSans-61" x="369.132812"/>
      <use xlink:href="#DejaVuSans-74" x="430.412109"/>
      <use xlink:href="#DejaVuSans-75" x="469.621094"/>
      <use xlink:href="#DejaVuSans-72" x="533"/>
      <use xlink:href="#DejaVuSans-65" x="571.863281"/>
      <use xlink:href="#DejaVuSans-2c" x="633.386719"/>
      <use xlink:href="#DejaVuSans-20" x="665.173828"/>
      <use xlink:href="#DejaVuSans-54" x="696.960938"/>
      <use xlink:href="#DejaVuSans-20" x="758.044922"/>
      <use xlink:href="#DejaVuSans-5b" x="789.832031"/>
      <use xlink:href="#DejaVuSans-6f" x="828.845703"/>
      <use xlink:href="#DejaVuSans-43" x="890.027344"/>
      <use xlink:href="#DejaVuSans-5d" x="959.851562"/>
     </g>
    </g>
   </g>
   <g id="line2d_12">
    <path d="M 87.403238 792.092794 
L 129.002673 762.086713 
L 1319.640322 762.086713 
L 1342.280747 739.825957 
L 1406.839313 674.967488 
L 1441 639.620329 
L 1441 639.620329 
" clip-path="url(#pa09e5f7a73)" style="fill: none; stroke-dasharray: 3.2,0.8,0.5,0.8; stroke-dashoffset: 0; stroke: #363636; stroke-width: 0.5"/>
   </g>
   <g id="line2d_13">
    <path d="M 89.720067 789.587852 
L 175.507012 727.568123 
L 248.20963 674.960469 
L 248.286171 674.960469 
L 249.318128 674.960469 
L 250.376669 674.960469 
L 251.462481 674.960469 
L 252.576265 674.960469 
L 253.718742 674.960469 
L 254.890651 674.960469 
L 256.092751 674.960469 
L 257.32582 674.960469 
L 258.590655 674.960469 
L 259.888074 674.960469 
L 261.218917 674.960469 
L 262.584045 674.960469 
L 263.984342 674.960469 
L 265.420712 674.960469 
L 266.894087 674.960469 
L 268.405418 674.960469 
L 269.955684 674.960469 
L 271.545888 674.960469 
L 273.177058 674.960469 
L 274.85025 674.960469 
L 276.566547 674.960469 
L 278.32706 674.960469 
L 280.132926 674.960469 
L 281.985314 674.960469 
L 283.885424 674.960469 
L 285.834484 674.960469 
L 287.833756 674.960469 
L 289.884532 674.960469 
L 291.988141 674.960469 
L 294.145942 674.960469 
L 296.359333 674.960469 
L 298.629744 674.960469 
L 300.958646 674.960469 
L 303.347544 674.960469 
L 305.797985 674.960469 
L 308.311554 674.960469 
L 310.889877 674.960469 
L 313.534623 674.960469 
L 316.247503 674.960469 
L 319.030271 674.960469 
L 321.884728 674.960469 
L 324.812722 674.960469 
L 327.816147 674.960469 
L 330.896945 674.960469 
L 334.05711 674.960469 
L 337.298688 674.960469 
L 340.623774 674.960469 
L 344.034521 674.960469 
L 347.533135 674.960469 
L 351.12188 674.960469 
L 354.803078 674.960469 
L 358.579111 674.960469 
L 362.452421 674.960469 
L 366.425515 674.960469 
L 370.500963 674.960469 
L 374.681403 674.960469 
L 378.969539 674.960469 
L 383.368145 674.960469 
L 387.880067 674.960469 
L 392.508225 674.960469 
L 397.255613 674.960469 
L 402.125303 674.960469 
L 407.120445 674.960469 
L 412.244272 674.960469 
L 417.500098 674.960469 
L 422.891323 674.960469 
L 428.421437 674.960469 
L 434.094018 674.960469 
L 439.912734 674.960469 
L 445.881352 674.960469 
L 452.003732 674.960469 
L 458.283837 674.960469 
L 464.725729 674.960469 
L 471.333576 674.960469 
L 478.111653 674.960469 
L 485.064347 674.960469 
L 492.196155 674.960469 
L 499.511692 674.960469 
L 507.015691 674.960469 
L 514.713008 674.960469 
L 522.608621 674.960469 
L 530.707641 674.960469 
L 539.015306 674.960469 
L 547.536993 674.960469 
L 556.278214 674.960469 
L 565.244626 674.960469 
L 574.442029 674.960469 
L 583.876375 674.960469 
L 593.553767 674.960469 
L 603.480467 674.960469 
L 613.662898 674.960469 
L 624.107647 674.960469 
L 643.868605 674.960469 
L 664.568526 674.960469 
L 686.252028 674.960469 
L 708.965846 674.960469 
L 732.758937 674.960469 
L 757.682583 674.960469 
L 783.790504 674.960469 
L 811.138973 674.960469 
L 839.786935 674.960469 
L 869.796137 674.960469 
L 901.23126 674.960469 
L 934.160059 674.960469 
L 968.653506 674.960469 
L 1004.785948 674.960469 
L 1042.635265 674.960469 
L 1082.283034 674.960469 
L 1123.814711 674.960469 
L 1167.319813 674.960469 
L 1212.89211 674.960469 
L 1260.629825 674.960469 
L 1310.635851 674.960469 
L 1326.566083 674.960469 
L 1366.379024 636.51369 
L 1427.392443 575.838565 
L 1441 561.86091 
" clip-path="url(#pa09e5f7a73)" style="fill: none; stroke-dasharray: 3.2,0.8,0.5,0.8; stroke-dashoffset: 0; stroke: #363636; stroke-width: 0.5"/>
   </g>
   <g id="line2d_14">
    <path d="M -0.872275 853.710455 
L 93.191634 785.831539 
L 179.281532 723.433542 
L 257.957111 666.334675 
L 329.761748 614.321943 
L 385.424376 574.200606 
L 385.641629 574.200606 
L 387.059298 574.200606 
L 388.513489 574.200606 
L 390.005142 574.200606 
L 391.535223 574.200606 
L 393.104722 574.200606 
L 394.714655 574.200606 
L 396.366062 574.200606 
L 398.060012 574.200606 
L 399.797602 574.200606 
L 401.579955 574.200606 
L 403.408226 574.200606 
L 405.283596 574.200606 
L 407.207278 574.200606 
L 409.180519 574.200606 
L 411.204594 574.200606 
L 413.280813 574.200606 
L 415.41052 574.200606 
L 417.595091 574.200606 
L 419.835941 574.200606 
L 422.13452 574.200606 
L 424.492315 574.200606 
L 426.910851 574.200606 
L 429.391692 574.200606 
L 431.936445 574.200606 
L 434.546756 574.200606 
L 437.224313 574.200606 
L 439.970849 574.200606 
L 442.788141 574.200606 
L 445.678012 574.200606 
L 448.642331 574.200606 
L 451.683017 574.200606 
L 454.802036 574.200606 
L 458.001407 574.200606 
L 461.283201 574.200606 
L 464.649539 574.200606 
L 468.1026 574.200606 
L 471.644619 574.200606 
L 475.277887 574.200606 
L 479.004755 574.200606 
L 482.827634 574.200606 
L 486.748998 574.200606 
L 490.771383 574.200606 
L 494.897392 574.200606 
L 499.129695 574.200606 
L 503.471031 574.200606 
L 507.924207 574.200606 
L 512.492106 574.200606 
L 517.177682 574.200606 
L 521.983967 574.200606 
L 526.914072 574.200606 
L 531.971185 574.200606 
L 537.158579 574.200606 
L 542.47961 574.200606 
L 547.937721 574.200606 
L 553.536443 574.200606 
L 559.279398 574.200606 
L 565.170303 574.200606 
L 571.212969 574.200606 
L 577.411305 574.200606 
L 583.769322 574.200606 
L 590.291134 574.200606 
L 596.98096 574.200606 
L 603.843128 574.200606 
L 610.882079 574.200606 
L 618.102366 574.200606 
L 625.508661 574.200606 
L 633.105757 574.200606 
L 640.898568 574.200606 
L 648.892137 574.200606 
L 657.091635 574.200606 
L 665.502367 574.200606 
L 674.129776 574.200606 
L 682.979443 574.200606 
L 692.057094 574.200606 
L 701.368603 574.200606 
L 710.919994 574.200606 
L 720.717446 574.200606 
L 730.767299 574.200606 
L 741.076056 574.200606 
L 751.650385 574.200606 
L 762.497129 574.200606 
L 773.623306 574.200606 
L 785.036114 574.200606 
L 796.742937 574.200606 
L 808.751351 574.200606 
L 821.069123 574.200606 
L 833.704225 574.200606 
L 846.66483 574.200606 
L 859.959326 574.200606 
L 873.596312 574.200606 
L 899.396827 574.200606 
L 926.423283 574.200606 
L 954.733932 574.200606 
L 984.389792 574.200606 
L 1015.454785 574.200606 
L 1047.995865 574.200606 
L 1082.083172 574.200606 
L 1117.790175 574.200606 
L 1155.193837 574.200606 
L 1194.374776 574.200606 
L 1235.417442 574.200606 
L 1278.410296 574.200606 
L 1323.446004 574.200606 
L 1334.140389 574.200606 
L 1373.395485 537.891525 
L 1427.942056 485.532383 
L 1441 472.508581 
" clip-path="url(#pa09e5f7a73)" style="fill: none; stroke-dasharray: 3.2,0.8,0.5,0.8; stroke-dashoffset: 0; stroke: #363636; stroke-width: 0.5"/>
   </g>
   <g id="line2d_15">
    <path d="M 9.73774 842.363339 
L 104.73234 773.319552 
L 191.824591 709.663646 
L 271.584971 651.204864 
L 344.563897 597.725823 
L 411.269302 549.013445 
L 472.140258 504.885373 
L 527.543776 465.189139 
L 577.798619 429.777719 
L 623.2063 398.483728 
L 664.070146 371.108396 
L 695.597936 350.665571 
L 695.998885 350.665571 
L 698.783033 350.665571 
L 701.638906 350.665571 
L 704.568352 350.665571 
L 707.573265 350.665571 
L 710.655591 350.665571 
L 713.817323 350.665571 
L 717.060508 350.665571 
L 720.387243 350.665571 
L 723.799681 350.665571 
L 727.30003 350.665571 
L 730.890555 350.665571 
L 734.573578 350.665571 
L 738.351483 350.665571 
L 742.226713 350.665571 
L 746.201777 350.665571 
L 750.279246 350.665571 
L 754.461759 350.665571 
L 758.752021 350.665571 
L 763.152808 350.665571 
L 767.666967 350.665571 
L 772.29742 350.665571 
L 777.047162 350.665571 
L 781.919267 350.665571 
L 786.916885 350.665571 
L 792.043252 350.665571 
L 797.301684 350.665571 
L 802.695583 350.665571 
L 808.228439 350.665571 
L 813.903832 350.665571 
L 819.725434 350.665571 
L 825.697011 350.665571 
L 831.822427 350.665571 
L 838.105645 350.665571 
L 844.550731 350.665571 
L 851.161855 350.665571 
L 857.943293 350.665571 
L 864.899434 350.665571 
L 872.034779 350.665571 
L 879.353943 350.665571 
L 886.861663 350.665571 
L 894.562796 350.665571 
L 902.462324 350.665571 
L 910.56536 350.665571 
L 918.877144 350.665571 
L 927.403056 350.665571 
L 936.148612 350.665571 
L 945.119469 350.665571 
L 954.321433 350.665571 
L 963.760456 350.665571 
L 973.442647 350.665571 
L 983.374269 350.665571 
L 993.561749 350.665571 
L 1004.011677 350.665571 
L 1014.730815 350.665571 
L 1025.726098 350.665571 
L 1037.00464 350.665571 
L 1048.573739 350.665571 
L 1060.440879 350.665571 
L 1072.61374 350.665571 
L 1085.100196 350.665571 
L 1097.908327 350.665571 
L 1111.04642 350.665571 
L 1124.522974 350.665571 
L 1138.34671 350.665571 
L 1152.526572 350.665571 
L 1167.071733 350.665571 
L 1181.991605 350.665571 
L 1197.295841 350.665571 
L 1212.994344 350.665571 
L 1229.097269 350.665571 
L 1245.615036 350.665571 
L 1262.558331 350.665571 
L 1279.938118 350.665571 
L 1297.765641 350.665571 
L 1316.052435 350.665571 
L 1333.823443 350.665571 
L 1334.735419 350.039437 
L 1352.730534 337.336151 
L 1371.603025 323.351349 
L 1391.381254 308.040803 
L 1412.093673 291.359648 
L 1433.768851 273.262066 
" clip-path="url(#pa09e5f7a73)" style="fill: none; stroke-dasharray: 3.2,0.8,0.5,0.8; stroke-dashoffset: 0; stroke: #363636; stroke-width: 0.5"/>
   </g>
   <g id="line2d_16">
    <path d="M 20.311 831.025455 
L 116.226626 760.820398 
L 204.310325 695.910787 
L 285.142091 636.098019 
L 359.27732 581.161766 
L 427.223358 530.890239 
L 489.419261 485.099676 
L 546.241258 443.626439 
L 598.029787 406.30214 
L 645.116552 372.933621 
L 687.837074 343.298605 
L 726.528901 317.153789 
L 761.522833 294.247283 
L 793.133798 274.32944 
L 821.654719 257.159721 
L 847.354018 242.509676 
L 870.476052 230.163165 
L 891.243432 219.915045 
L 909.860291 211.569257 
L 926.515935 204.93685 
L 933.725921 202.356251 
L 936.250214 202.356251 
L 941.111793 202.356251 
L 946.098615 202.356251 
L 951.213908 202.356251 
L 956.46098 202.356251 
L 961.843227 202.356251 
L 967.36413 202.356251 
L 973.027262 202.356251 
L 978.836287 202.356251 
L 984.794964 202.356251 
L 990.907148 202.356251 
L 997.176792 202.356251 
L 1003.607955 202.356251 
L 1010.204796 202.356251 
L 1016.971585 202.356251 
L 1023.912699 202.356251 
L 1031.032629 202.356251 
L 1038.335981 202.356251 
L 1045.827482 202.356251 
L 1053.511978 202.356251 
L 1061.394442 202.356251 
L 1069.479972 202.356251 
L 1077.773801 202.356251 
L 1086.281294 202.356251 
L 1095.007957 202.356251 
L 1103.959434 202.356251 
L 1113.141519 202.356251 
L 1122.560151 202.356251 
L 1132.221426 202.356251 
L 1142.131592 202.356251 
L 1152.297064 202.356251 
L 1162.724417 202.356251 
L 1173.420398 202.356251 
L 1184.391928 202.356251 
L 1195.646106 202.356251 
L 1207.190212 202.356251 
L 1219.031716 202.356251 
L 1231.178279 202.356251 
L 1243.637761 202.356251 
L 1256.418223 202.356251 
L 1269.527933 202.356251 
L 1275.719242 202.356251 
L 1281.471456 200.769013 
L 1292.485795 197.390699 
L 1303.902981 193.432071 
L 1315.75161 188.852079 
L 1328.060793 183.609172 
L 1340.860127 177.661247 
L 1354.179681 170.965577 
L 1368.049979 163.478711 
L 1382.501983 155.156359 
L 1397.567077 145.953254 
L 1413.277048 135.823026 
L 1429.664064 124.718061 
" clip-path="url(#pa09e5f7a73)" style="fill: none; stroke-dasharray: 3.2,0.8,0.5,0.8; stroke-dashoffset: 0; stroke: #363636; stroke-width: 0.5"/>
   </g>
   <g id="line2d_17">
    <path d="M 30.848788 819.695857 
L 127.676433 748.332707 
L 216.741431 682.173126 
L 298.632076 621.011682 
L 373.907135 564.626108 
L 443.072772 512.805691 
L 506.568888 465.364071 
L 564.781229 422.126612 
L 618.068605 382.907638 
L 666.784319 347.496916 
L 711.282401 315.660928 
L 751.912465 287.152985 
L 789.011042 261.724381 
L 822.894778 239.132259 
L 853.857321 219.143388 
L 882.169381 201.53495 
L 908.080665 186.093876 
L 931.822468 172.615899 
L 953.610101 160.904972 
L 973.644837 150.773232 
L 992.115283 142.041419 
L 1009.19828 134.539582 
L 1025.059404 128.107908 
L 1039.853205 122.597538 
L 1053.723209 117.871307 
L 1066.80179 113.804318 
L 1079.209949 110.284325 
L 1091.057107 107.211838 
L 1102.440997 104.499932 
L 1113.447751 102.073705 
L 1124.15226 99.869407 
L 1134.61881 97.833276 
L 1144.902006 95.920159 
L 1155.047899 94.092026 
L 1165.095257 92.316469 
L 1175.076859 90.565284 
L 1185.020766 88.813209 
L 1194.951468 87.036835 
L 1204.890902 85.213731 
L 1214.8593 83.321756 
L 1224.875875 81.338542 
L 1234.959366 79.241129 
L 1245.128447 77.005708 
L 1255.402026 74.607465 
L 1265.799461 72.020477 
L 1276.340706 69.217667 
L 1287.046408 66.170776 
L 1297.937962 62.85036 
L 1309.037542 59.225791 
L 1320.368113 55.265257 
L 1331.953434 50.935762 
L 1343.818043 46.203119 
L 1355.987252 41.031929 
" clip-path="url(#pa09e5f7a73)" style="fill: none; stroke-dasharray: 3.2,0.8,0.5,0.8; stroke-dashoffset: 0; stroke: #363636; stroke-width: 0.5"/>
   </g>
   <g id="line2d_18">
    <path d="M 67.737486 806.6023 
L 103.21435 780.849707 
L 138.597359 755.097113 
L 173.896154 729.34452 
L 209.12087 703.591927 
L 244.282369 677.839333 
L 279.392663 652.08674 
L 314.465566 626.334147 
L 349.517574 600.581553 
L 384.568943 574.82896 
L 419.64484 549.076367 
L 454.776449 523.323773 
L 490.00194 497.57118 
L 525.367326 471.818587 
L 560.92741 446.065993 
L 596.74724 420.3134 
L 632.904711 394.560807 
L 669.495348 368.808213 
L 706.64099 343.05562 
L 744.505696 317.303027 
L 783.325803 291.550433 
L 823.470345 265.79784 
L 865.575361 240.045247 
L 869.178128 237.914773 
L 872.80308 235.784299 
L 876.451279 233.653825 
L 880.123869 231.523351 
L 883.822083 229.392877 
L 887.54725 227.262403 
L 891.300811 225.131928 
L 895.084326 223.001454 
L 898.899493 220.87098 
L 902.748163 218.740506 
L 906.63236 216.610032 
L 910.554302 214.479558 
L 914.516433 212.349084 
L 918.521452 210.21861 
L 922.572348 208.088136 
L 926.672452 205.957662 
L 930.82549 203.827188 
L 935.035649 201.696714 
L 939.307662 199.56624 
L 943.64691 197.435766 
L 948.059553 195.305292 
L 952.552692 193.174818 
L 957.134583 191.044344 
L 961.81491 188.91387 
L 966.60515 186.783396 
L 971.51907 184.652922 
L 976.573399 182.522448 
L 981.788792 180.391974 
L 987.191218 178.2615 
L 992.814039 176.131026 
L 998.701251 174.000552 
L 1004.912774 171.870078 
L 1011.533595 169.739604 
L 1018.690808 167.60913 
L 1026.588693 165.478656 
L 1035.591706 163.348182 
L 1046.468016 161.217708 
L 1061.449476 159.087234 
L 1114.266255 156.95676 
" clip-path="url(#pa09e5f7a73)" style="fill: none; stroke: #363636; stroke-width: 0.5; stroke-linecap: square"/>
   </g>
   <g id="line2d_19">
    <path d="M 1316.466856 806.6023 
L 1318.2548 780.849707 
L 1320.171134 755.097113 
L 1322.180506 729.34452 
L 1324.246833 703.591927 
L 1326.333241 677.839333 
L 1328.401894 652.08674 
L 1330.413629 626.334147 
L 1332.327376 600.581553 
L 1334.099319 574.82896 
L 1335.681782 549.076367 
L 1337.021797 523.323773 
L 1338.059292 497.57118 
L 1338.724746 471.818587 
L 1338.93607 446.065993 
L 1338.594283 420.3134 
L 1337.57724 394.560807 
L 1335.730146 368.808213 
L 1332.850473 343.05562 
L 1328.662668 317.303027 
L 1322.772803 291.550433 
L 1314.57984 265.79784 
L 1303.079439 240.045247 
L 1301.930946 237.914773 
L 1300.746349 235.784299 
L 1299.524036 233.653825 
L 1298.26228 231.523351 
L 1296.959221 229.392877 
L 1295.612856 227.262403 
L 1294.221023 225.131928 
L 1292.781378 223.001454 
L 1291.29138 220.87098 
L 1289.748263 218.740506 
L 1288.149009 216.610032 
L 1286.490313 214.479558 
L 1284.768545 212.349084 
L 1282.979706 210.21861 
L 1281.119368 208.088136 
L 1279.182616 205.957662 
L 1277.163962 203.827188 
L 1275.057251 201.696714 
L 1272.855546 199.56624 
L 1270.55098 197.435766 
L 1268.134574 195.305292 
L 1265.596007 193.174818 
L 1262.923322 191.044344 
L 1260.102542 188.91387 
L 1257.117166 186.783396 
L 1253.947489 184.652922 
L 1250.569674 182.522448 
L 1246.954446 180.391974 
L 1243.065211 178.2615 
L 1238.855259 176.131026 
L 1234.26344 174.000552 
L 1229.207172 171.870078 
L 1223.570446 169.739604 
L 1217.181738 167.60913 
L 1209.769108 165.478656 
L 1200.855591 163.348182 
L 1189.458314 161.217708 
L 1172.816805 159.087234 
L 1114.266255 156.95676 
" clip-path="url(#pa09e5f7a73)" style="fill: none; stroke: #363636; stroke-width: 0.5; stroke-linecap: square"/>
   </g>
   <g id="line2d_20">
    <path d="M 246.148717 664.678807 
L 294.498058 628.852615 
L 340.350249 594.851615 
L 383.824099 562.62608 
L 425.028846 532.130291 
L 464.06339 503.322973 
L 501.017295 476.166052 
L 535.973143 450.622365 
L 569.009385 426.65323 
L 600.20285 404.216594 
L 629.630419 383.266129 
L 657.369727 363.751251 
L 683.499065 345.617802 
L 708.096764 328.809104 
L 731.24034 313.267106 
L 753.005624 298.933431 
L 773.466012 285.750228 
L 792.691911 273.660784 
L 810.750389 262.609919 
L 827.705022 252.544181 
L 843.615893 243.41189 
L 858.539727 235.163089 
L 872.530096 227.749413 
L 885.637689 221.123944 
L 897.910605 215.241036 
L 909.394665 210.056155 
L 920.133722 205.525723 
L 930.16997 201.60698 
L 939.544258 198.257856 
L 946.875842 195.873153 
L 947.366118 195.8816 
L 950.327269 195.932588 
L 953.334223 195.984384 
L 956.387676 196.037002 
L 959.488334 196.090455 
L 962.636914 196.144756 
L 965.834142 196.199919 
L 969.080756 196.255957 
L 972.377505 196.312884 
L 975.725147 196.370715 
L 979.124453 196.429465 
L 982.576205 196.489147 
L 986.081194 196.549777 
L 989.640226 196.61137 
L 993.254115 196.673941 
L 996.92369 196.737507 
L 1000.649789 196.802083 
L 1004.433265 196.867685 
L 1008.274981 196.93433 
L 1012.175813 197.002034 
L 1016.13665 197.070815 
L 1020.158392 197.14069 
L 1024.241955 197.211676 
L 1028.388265 197.283791 
L 1032.598263 197.357054 
L 1036.872902 197.431483 
L 1041.21315 197.507097 
L 1045.619987 197.583914 
L 1050.094408 197.661955 
L 1054.637422 197.741238 
L 1059.250051 197.821785 
L 1063.933333 197.903614 
L 1068.68832 197.986748 
L 1073.516077 198.071207 
L 1078.417686 198.157012 
L 1083.394243 198.244185 
L 1088.446861 198.332749 
L 1093.576664 198.422725 
L 1098.784797 198.514137 
L 1104.072417 198.607008 
L 1109.440699 198.701362 
L 1114.890832 198.797221 
L 1120.424023 198.894612 
L 1126.041494 198.993558 
L 1131.744486 199.094085 
L 1137.534255 199.196219 
L 1143.412075 199.299985 
L 1149.379235 199.40541 
L 1155.437043 199.512522 
L 1161.586826 199.621346 
L 1167.829927 199.731913 
L 1174.167706 199.844248 
L 1180.601542 199.958383 
L 1187.132835 200.074345 
L 1193.762998 200.192164 
L 1200.493468 200.311871 
L 1207.325697 200.433497 
L 1214.261159 200.557073 
L 1221.301344 200.68263 
L 1228.447763 200.810202 
L 1235.701949 200.939821 
L 1243.06545 201.07152 
L 1250.539837 201.205334 
L 1258.1267 201.341297 
L 1265.827651 201.479444 
L 1273.644319 201.619812 
L 1275.004154 201.644202 
L 1280.237358 200.37188 
L 1286.678648 198.664472 
L 1293.25411 196.763094 
L 1299.969685 194.659152 
L 1306.831369 192.344 
" clip-path="url(#pa09e5f7a73)" style="fill: none; stroke: #ff0000; stroke-width: 2; stroke-linecap: square"/>
   </g>
   <g id="line2d_21">
    <path d="M 1306.831369 192.344 
L 1307.005613 198.068189 
L 1307.179856 203.777604 
L 1307.354099 209.472197 
L 1307.528343 215.1519 
L 1307.702586 220.816628 
L 1307.87683 226.466279 
L 1308.051073 232.100741 
L 1308.225316 237.719888 
L 1308.39956 243.323588 
L 1308.573803 248.911703 
L 1308.748047 253.906799 
L 1308.92229 258.447293 
L 1309.096533 263.007249 
L 1309.270777 267.58578 
L 1309.44502 272.182055 
L 1309.619264 276.795285 
L 1309.793507 281.424724 
L 1309.96775 286.069664 
L 1310.141994 290.72943 
L 1310.316237 295.403375 
L 1310.490481 300.090882 
L 1310.664724 304.791357 
L 1310.838967 309.504229 
L 1311.013211 314.228947 
L 1311.187454 318.964979 
L 1311.361698 323.711811 
L 1311.535941 328.468943 
L 1311.710184 333.235891 
L 1311.884428 338.012184 
L 1312.058671 342.797362 
L 1312.232915 347.59098 
L 1312.407158 352.392601 
L 1312.581401 357.201797 
L 1312.755645 362.018153 
L 1312.929888 366.841259 
L 1313.104131 371.670715 
L 1313.278375 376.506129 
L 1313.452618 381.347115 
L 1313.626862 386.193295 
L 1313.801105 391.044298 
L 1313.975348 395.899756 
L 1314.149592 400.75931 
L 1314.323835 405.622607 
L 1314.498079 410.489296 
L 1314.672322 415.359035 
L 1314.846565 420.231484 
L 1315.020809 425.10631 
L 1315.195052 429.983182 
L 1315.369296 434.861778 
L 1315.543539 439.741775 
L 1315.717782 444.622859 
L 1315.892026 449.504717 
L 1316.066269 454.387041 
L 1316.240513 459.269528 
L 1316.414756 464.151877 
L 1316.588999 469.033794 
L 1316.763243 473.914987 
L 1316.937486 478.795166 
L 1317.11173 483.674048 
L 1317.285973 488.551353 
L 1317.460216 493.426803 
L 1317.63446 498.300126 
L 1317.808703 503.171052 
L 1317.982947 508.039316 
L 1318.15719 512.904657 
L 1318.331433 517.766815 
L 1318.505677 522.625536 
L 1318.67992 527.48057 
L 1318.854163 532.331669 
L 1319.028407 537.178591 
L 1319.20265 542.021095 
L 1319.376894 546.858946 
L 1319.551137 551.69191 
L 1319.72538 556.519761 
L 1319.899624 561.342272 
L 1320.073867 566.159223 
L 1320.248111 570.970396 
L 1320.422354 575.775578 
L 1320.596597 580.574558 
L 1320.770841 585.367129 
L 1320.945084 590.15309 
L 1321.119328 594.93224 
L 1321.293571 599.704386 
L 1321.467814 604.469334 
L 1321.642058 609.226897 
L 1321.816301 613.97689 
L 1321.990545 618.719133 
L 1322.164788 623.453447 
L 1322.339031 628.17966 
L 1322.513275 632.897601 
L 1322.687518 637.607103 
L 1322.861762 642.308004 
L 1323.036005 647.000143 
L 1323.210248 651.683364 
L 1323.384492 656.357515 
L 1323.558735 661.022445 
L 1323.732979 665.678009 
L 1323.907222 670.324063 
L 1324.081465 674.960469 
" clip-path="url(#pa09e5f7a73)" style="fill: none; stroke: #ff0000; stroke-width: 2; stroke-linecap: square"/>
   </g>
   <g id="line2d_22">
    <path d="M 1324.081465 674.960469 
L 1286.373737 675.145821 
L 1249.949653 675.325131 
L 1214.764411 675.498592 
L 1180.77484 675.666392 
L 1147.93934 675.828714 
L 1116.21782 675.985735 
L 1085.571638 676.137624 
L 1055.963546 676.284549 
L 1027.357636 676.426668 
L 999.71929 676.564138 
L 973.015129 676.697109 
L 947.212967 676.825727 
L 922.281766 676.950133 
L 898.191591 677.070462 
L 874.913572 677.186848 
L 852.419861 677.299419 
L 830.683592 677.408298 
L 809.678851 677.513605 
L 789.380635 677.615458 
L 769.764819 677.713967 
L 750.808127 677.809242 
L 732.488096 677.901389 
L 714.78305 677.990508 
L 697.672069 678.0767 
L 681.134964 678.160059 
L 665.152246 678.240678 
L 649.705105 678.318647 
L 634.775383 678.394052 
L 620.345552 678.466976 
L 606.398688 678.537502 
L 592.918455 678.605707 
L 579.889078 678.671667 
L 567.295328 678.735456 
L 555.122498 678.797146 
L 543.356388 678.856803 
L 531.983284 678.914497 
L 520.989945 678.970289 
L 510.36358 679.024244 
L 500.091839 679.076421 
L 490.162793 679.126879 
L 480.56492 679.175674 
L 471.28709 679.222861 
L 462.318555 679.268492 
L 453.648932 679.312618 
L 445.268189 679.35529 
L 437.166639 679.396554 
L 429.334921 679.436457 
L 421.763992 679.475045 
L 414.445116 679.512359 
L 407.369854 679.548442 
L 400.530052 679.583335 
L 393.917831 679.617076 
L 387.525579 679.649704 
L 381.345942 679.681254 
L 375.371812 679.711764 
L 369.596324 679.741266 
L 364.012842 679.769795 
L 358.614954 679.797381 
L 353.396465 679.824057 
L 348.351388 679.849852 
L 343.473937 679.874795 
L 338.75852 679.898914 
L 334.199736 679.922237 
L 329.792361 679.944789 
L 325.531349 679.966597 
L 321.411823 679.987684 
L 317.429071 680.008074 
L 313.578535 680.027791 
L 309.855814 680.046857 
L 306.256652 680.065292 
L 302.776936 680.083119 
L 299.412691 680.100356 
L 296.160075 680.117024 
L 293.015375 680.133141 
L 289.975 680.148725 
L 287.035481 680.163794 
L 284.193465 680.178365 
L 281.445711 680.192455 
L 278.789084 680.206079 
L 276.220556 680.219252 
L 273.7372 680.231991 
L 271.336186 680.244308 
L 269.014778 680.256217 
L 266.770332 680.267733 
L 264.600291 680.278869 
L 262.502186 680.289636 
L 260.473626 680.300047 
L 258.512304 680.310114 
L 256.615986 680.319849 
L 254.782516 680.329261 
L 253.009807 680.338362 
L 251.295842 680.347162 
L 249.638673 680.355671 
L 248.036415 680.363899 
L 246.487246 680.371855 
L 244.989404 680.379547 
L 243.541187 680.386985 
L 242.14095 680.394178 
L 240.787099 680.401132 
" clip-path="url(#pa09e5f7a73)" style="fill: none; stroke: #ff0000; stroke-width: 2; stroke-linecap: square"/>
   </g>
   <g id="line2d_23">
    <path d="M 240.787099 680.401132 
L 240.841257 680.243979 
L 240.895415 680.086793 
L 240.949573 679.929572 
L 241.00373 679.772318 
L 241.057888 679.615029 
L 241.112046 679.457707 
L 241.166204 679.30035 
L 241.220361 679.14296 
L 241.274519 678.985535 
L 241.328677 678.828077 
L 241.382835 678.670584 
L 241.436992 678.513058 
L 241.49115 678.355498 
L 241.545308 678.197903 
L 241.599466 678.040275 
L 241.653623 677.882613 
L 241.707781 677.724917 
L 241.761939 677.567187 
L 241.816097 677.409423 
L 241.870254 677.251625 
L 241.924412 677.093793 
L 241.97857 676.935928 
L 242.032728 676.778028 
L 242.086886 676.620095 
L 242.141043 676.462127 
L 242.195201 676.304126 
L 242.249359 676.146091 
L 242.303517 675.988022 
L 242.357674 675.829919 
L 242.411832 675.671782 
L 242.46599 675.513611 
L 242.520148 675.355407 
L 242.574305 675.197169 
L 242.628463 675.038896 
L 242.682621 674.88059 
L 242.736779 674.72225 
L 242.790936 674.563877 
L 242.845094 674.405469 
L 242.899252 674.247028 
L 242.95341 674.088552 
L 243.007567 673.930043 
L 243.061725 673.7715 
L 243.115883 673.612924 
L 243.170041 673.454313 
L 243.224198 673.295669 
L 243.278356 673.136991 
L 243.332514 672.978279 
L 243.386672 672.819533 
L 243.440829 672.660754 
L 243.494987 672.50194 
L 243.549145 672.343093 
L 243.603303 672.184212 
L 243.65746 672.025298 
L 243.711618 671.86635 
L 243.765776 671.707368 
L 243.819934 671.548352 
L 243.874091 671.389302 
L 243.928249 671.230219 
L 243.982407 671.071102 
L 244.036565 670.911951 
L 244.090722 670.752766 
L 244.14488 670.593548 
L 244.199038 670.434296 
L 244.253196 670.275011 
L 244.307353 670.115691 
L 244.361511 669.956338 
L 244.415669 669.796951 
L 244.469827 669.637531 
L 244.523984 669.478077 
L 244.578142 669.318589 
L 244.6323 669.159067 
L 244.686458 668.999512 
L 244.740615 668.839923 
L 244.794773 668.6803 
L 244.848931 668.520644 
L 244.903089 668.360954 
L 244.957246 668.201231 
L 245.011404 668.041474 
L 245.065562 667.881683 
L 245.11972 667.721858 
L 245.173877 667.562 
L 245.228035 667.402108 
L 245.282193 667.242183 
L 245.336351 667.082224 
L 245.390508 666.922231 
L 245.444666 666.762205 
L 245.498824 666.602145 
L 245.552982 666.442052 
L 245.607139 666.281925 
L 245.661297 666.121764 
L 245.715455 665.96157 
L 245.769613 665.801342 
L 245.82377 665.641081 
L 245.877928 665.480786 
L 245.932086 665.320457 
L 245.986244 665.160095 
L 246.040401 664.999699 
L 246.094559 664.83927 
L 246.148717 664.678807 
" clip-path="url(#pa09e5f7a73)" style="fill: none; stroke: #ff0000; stroke-width: 2; stroke-linecap: square"/>
   </g>
   <g id="patch_3">
    <path d="M 91.46 794.68 
L 91.46 41.76 
" style="fill: none; stroke: #000000; stroke-width: 0.8; stroke-linejoin: miter; stroke-linecap: square"/>
   </g>
   <g id="patch_4">
    <path d="M 1429.2 794.68 
L 1429.2 41.76 
" style="fill: none; stroke: #000000; stroke-width: 0.8; stroke-linejoin: miter; stroke-linecap: square"/>
   </g>
   <g id="patch_5">
    <path d="M 91.46 794.68 
L 1429.2 794.68 
" style="fill: none; stroke: #000000; stroke-width: 0.8; stroke-linejoin: miter; stroke-linecap: square"/>
   </g>
   <g id="patch_6">
    <path d="M 91.46 41.76 
L 1429.2 41.76 
" style="fill: none; stroke: #000000; stroke-width: 0.8; stroke-linejoin: miter; stroke-linecap: square"/>
   </g>
   <g id="text_14">
    <g id="patch_7">
     <path d="M 620.173487 773.700463 
L 705.778487 773.700463 
L 705.778487 750.472963 
L 620.173487 750.472963 
z
" style="fill: #ffffff; stroke: #ffffff; stroke-linejoin: miter"/>
    </g>
    <!-- 5.0 bar -->
    <g transform="translate(620.173487 768.709213) rotate(-360) scale(0.24 -0.24)">
     <defs>
      <path id="DejaVuSans-62" d="M 3116 1747 
Q 3116 2381 2855 2742 
Q 2594 3103 2138 3103 
Q 1681 3103 1420 2742 
Q 1159 2381 1159 1747 
Q 1159 1113 1420 752 
Q 1681 391 2138 391 
Q 2594 391 2855 752 
Q 3116 1113 3116 1747 
z
M 1159 2969 
Q 1341 3281 1617 3432 
Q 1894 3584 2278 3584 
Q 2916 3584 3314 3078 
Q 3713 2572 3713 1747 
Q 3713 922 3314 415 
Q 2916 -91 2278 -91 
Q 1894 -91 1617 61 
Q 1341 213 1159 525 
L 1159 0 
L 581 0 
L 581 4863 
L 1159 4863 
L 1159 2969 
z
" transform="scale(0.015625)"/>
     </defs>
     <use xlink:href="#DejaVuSans-35"/>
     <use xlink:href="#DejaVuSans-2e" x="63.623047"/>
     <use xlink:href="#DejaVuSans-30" x="95.410156"/>
     <use xlink:href="#DejaVuSans-20" x="159.033203"/>
     <use xlink:href="#DejaVuSans-62" x="190.820312"/>
     <use xlink:href="#DejaVuSans-61" x="254.296875"/>
     <use xlink:href="#DejaVuSans-72" x="315.576172"/>
    </g>
   </g>
   <g id="text_15">
    <g id="patch_8">
     <path d="M 714.880083 686.574219 
L 800.485083 686.574219 
L 800.485083 663.346719 
L 714.880083 663.346719 
z
" style="fill: #ffffff; stroke: #ffffff; stroke-linejoin: miter"/>
    </g>
    <!-- 7.0 bar -->
    <g transform="translate(714.880083 681.582969) rotate(-360) scale(0.24 -0.24)">
     <defs>
      <path id="DejaVuSans-37" d="M 525 4666 
L 3525 4666 
L 3525 4397 
L 1831 0 
L 1172 0 
L 2766 4134 
L 525 4134 
L 525 4666 
z
" transform="scale(0.015625)"/>
     </defs>
     <use xlink:href="#DejaVuSans-37"/>
     <use xlink:href="#DejaVuSans-2e" x="63.623047"/>
     <use xlink:href="#DejaVuSans-30" x="95.410156"/>
     <use xlink:href="#DejaVuSans-20" x="159.033203"/>
     <use xlink:href="#DejaVuSans-62" x="190.820312"/>
     <use xlink:href="#DejaVuSans-61" x="254.296875"/>
     <use xlink:href="#DejaVuSans-72" x="315.576172"/>
    </g>
   </g>
   <g id="text_16">
    <g id="patch_9">
     <path d="M 809.521826 585.814356 
L 910.396826 585.814356 
L 910.396826 562.586856 
L 809.521826 562.586856 
z
" style="fill: #ffffff; stroke: #ffffff; stroke-linejoin: miter"/>
    </g>
    <!-- 10.0 bar -->
    <g transform="translate(809.521826 580.823106) scale(0.24 -0.24)">
     <use xlink:href="#DejaVuSans-31"/>
     <use xlink:href="#DejaVuSans-30" x="63.623047"/>
     <use xlink:href="#DejaVuSans-2e" x="127.246094"/>
     <use xlink:href="#DejaVuSans-30" x="159.033203"/>
     <use xlink:href="#DejaVuSans-20" x="222.65625"/>
     <use xlink:href="#DejaVuSans-62" x="254.443359"/>
     <use xlink:href="#DejaVuSans-61" x="317.919922"/>
     <use xlink:href="#DejaVuSans-72" x="379.199219"/>
    </g>
   </g>
   <g id="text_17">
    <g id="patch_10">
     <path d="M 1131.554105 362.279321 
L 1232.429105 362.279321 
L 1232.429105 339.051821 
L 1131.554105 339.051821 
z
" style="fill: #ffffff; stroke: #ffffff; stroke-linejoin: miter"/>
    </g>
    <!-- 20.0 bar -->
    <g transform="translate(1131.554105 357.288071) scale(0.24 -0.24)">
     <use xlink:href="#DejaVuSans-32"/>
     <use xlink:href="#DejaVuSans-30" x="63.623047"/>
     <use xlink:href="#DejaVuSans-2e" x="127.246094"/>
     <use xlink:href="#DejaVuSans-30" x="159.033203"/>
     <use xlink:href="#DejaVuSans-20" x="222.65625"/>
     <use xlink:href="#DejaVuSans-62" x="254.443359"/>
     <use xlink:href="#DejaVuSans-61" x="317.919922"/>
     <use xlink:href="#DejaVuSans-72" x="379.199219"/>
    </g>
   </g>
   <g id="text_18">
    <g id="patch_11">
     <path d="M 1225.281742 213.970001 
L 1326.156742 213.970001 
L 1326.156742 190.742501 
L 1225.281742 190.742501 
z
" style="fill: #ffffff; stroke: #ffffff; stroke-linejoin: miter"/>
    </g>
    <!-- 30.0 bar -->
    <g transform="translate(1225.281742 208.978751) scale(0.24 -0.24)">
     <use xlink:href="#DejaVuSans-33"/>
     <use xlink:href="#DejaVuSans-30" x="63.623047"/>
     <use xlink:href="#DejaVuSans-2e" x="127.246094"/>
     <use xlink:href="#DejaVuSans-30" x="159.033203"/>
     <use xlink:href="#DejaVuSans-20" x="222.65625"/>
     <use xlink:href="#DejaVuSans-62" x="254.443359"/>
     <use xlink:href="#DejaVuSans-61" x="317.919922"/>
     <use xlink:href="#DejaVuSans-72" x="379.199219"/>
    </g>
   </g>
   <g id="text_19">
    <g id="patch_12">
     <path d="M 1219.986655 96.10382 
L 1317.531342 70.397795 
L 1311.612267 47.937133 
L 1214.06758 73.643159 
z
" style="fill: #ffffff; stroke: #ffffff; stroke-linejoin: miter"/>
    </g>
    <!-- 40.0 bar -->
    <g transform="translate(1218.714733 91.277353) rotate(-14.763541) scale(0.24 -0.24)">
     <use xlink:href="#DejaVuSans-34"/>
     <use xlink:href="#DejaVuSans-30" x="63.623047"/>
     <use xlink:href="#DejaVuSans-2e" x="127.246094"/>
     <use xlink:href="#DejaVuSans-30" x="159.033203"/>
     <use xlink:href="#DejaVuSans-20" x="222.65625"/>
     <use xlink:href="#DejaVuSans-62" x="254.443359"/>
     <use xlink:href="#DejaVuSans-61" x="317.919922"/>
     <use xlink:href="#DejaVuSans-72" x="379.199219"/>
    </g>
   </g>
   <g id="text_20">
    <g id="patch_13">
     <path d="M 475.584865 523.423256 
L 518.639856 490.08441 
L 504.419016 471.719104 
L 461.364025 505.05795 
z
" style="fill: #ffffff; stroke: #ffffff; stroke-linejoin: miter"/>
    </g>
    <!-- 0.0 - -->
    <g transform="translate(472.529014 519.47682) rotate(-37.751756) scale(0.24 -0.24)">
     <defs>
      <path id="DejaVuSans-2d" d="M 313 2009 
L 1997 2009 
L 1997 1497 
L 313 1497 
L 313 2009 
z
" transform="scale(0.015625)"/>
     </defs>
     <use xlink:href="#DejaVuSans-30"/>
     <use xlink:href="#DejaVuSans-2e" x="63.623047"/>
     <use xlink:href="#DejaVuSans-30" x="95.410156"/>
     <use xlink:href="#DejaVuSans-20" x="159.033203"/>
     <use xlink:href="#DejaVuSans-2d" x="190.820312"/>
    </g>
   </g>
   <g id="text_21">
    <g id="patch_14">
     <path d="M 1348.62978 525.219809 
L 1350.69952 470.805408 
L 1327.488804 469.922551 
L 1325.419064 524.336952 
z
" style="fill: #ffffff; stroke: #ffffff; stroke-linejoin: miter"/>
    </g>
    <!-- 1.0 - -->
    <g transform="translate(1343.642137 525.030096) rotate(-87.821712) scale(0.24 -0.24)">
     <use xlink:href="#DejaVuSans-31"/>
     <use xlink:href="#DejaVuSans-2e" x="63.623047"/>
     <use xlink:href="#DejaVuSans-30" x="95.410156"/>
     <use xlink:href="#DejaVuSans-20" x="159.033203"/>
     <use xlink:href="#DejaVuSans-2d" x="190.820312"/>
    </g>
   </g>
   <g id="text_22">
    <!-- T-s Diagram for ORC System -->
    <g transform="translate(533.125 35.105) scale(0.32 -0.32)">
     <defs>
      <path id="DejaVuSans-44" d="M 1259 4147 
L 1259 519 
L 2022 519 
Q 2988 519 3436 956 
Q 3884 1394 3884 2338 
Q 3884 3275 3436 3711 
Q 2988 4147 2022 4147 
L 1259 4147 
z
M 628 4666 
L 1925 4666 
Q 3281 4666 3915 4102 
Q 4550 3538 4550 2338 
Q 4550 1131 3912 565 
Q 3275 0 1925 0 
L 628 0 
L 628 4666 
z
" transform="scale(0.015625)"/>
      <path id="DejaVuSans-69" d="M 603 3500 
L 1178 3500 
L 1178 0 
L 603 0 
L 603 3500 
z
M 603 4863 
L 1178 4863 
L 1178 4134 
L 603 4134 
L 603 4863 
z
" transform="scale(0.015625)"/>
      <path id="DejaVuSans-66" d="M 2375 4863 
L 2375 4384 
L 1825 4384 
Q 1516 4384 1395 4259 
Q 1275 4134 1275 3809 
L 1275 3500 
L 2222 3500 
L 2222 3053 
L 1275 3053 
L 1275 0 
L 697 0 
L 697 3053 
L 147 3053 
L 147 3500 
L 697 3500 
L 697 3744 
Q 697 4328 969 4595 
Q 1241 4863 1831 4863 
L 2375 4863 
z
" transform="scale(0.015625)"/>
      <path id="DejaVuSans-4f" d="M 2522 4238 
Q 1834 4238 1429 3725 
Q 1025 3213 1025 2328 
Q 1025 1447 1429 934 
Q 1834 422 2522 422 
Q 3209 422 3611 934 
Q 4013 1447 4013 2328 
Q 4013 3213 3611 3725 
Q 3209 4238 2522 4238 
z
M 2522 4750 
Q 3503 4750 4090 4092 
Q 4678 3434 4678 2328 
Q 4678 1225 4090 567 
Q 3503 -91 2522 -91 
Q 1538 -91 948 565 
Q 359 1222 359 2328 
Q 359 3434 948 4092 
Q 1538 4750 2522 4750 
z
" transform="scale(0.015625)"/>
      <path id="DejaVuSans-52" d="M 2841 2188 
Q 3044 2119 3236 1894 
Q 3428 1669 3622 1275 
L 4263 0 
L 3584 0 
L 2988 1197 
Q 2756 1666 2539 1819 
Q 2322 1972 1947 1972 
L 1259 1972 
L 1259 0 
L 628 0 
L 628 4666 
L 2053 4666 
Q 2853 4666 3247 4331 
Q 3641 3997 3641 3322 
Q 3641 2881 3436 2590 
Q 3231 2300 2841 2188 
z
M 1259 4147 
L 1259 2491 
L 2053 2491 
Q 2509 2491 2742 2702 
Q 2975 2913 2975 3322 
Q 2975 3731 2742 3939 
Q 2509 4147 2053 4147 
L 1259 4147 
z
" transform="scale(0.015625)"/>
      <path id="DejaVuSans-53" d="M 3425 4513 
L 3425 3897 
Q 3066 4069 2747 4153 
Q 2428 4238 2131 4238 
Q 1616 4238 1336 4038 
Q 1056 3838 1056 3469 
Q 1056 3159 1242 3001 
Q 1428 2844 1947 2747 
L 2328 2669 
Q 3034 2534 3370 2195 
Q 3706 1856 3706 1288 
Q 3706 609 3251 259 
Q 2797 -91 1919 -91 
Q 1588 -91 1214 -16 
Q 841 59 441 206 
L 441 856 
Q 825 641 1194 531 
Q 1563 422 1919 422 
Q 2459 422 2753 634 
Q 3047 847 3047 1241 
Q 3047 1584 2836 1778 
Q 2625 1972 2144 2069 
L 1759 2144 
Q 1053 2284 737 2584 
Q 422 2884 422 3419 
Q 422 4038 858 4394 
Q 1294 4750 2059 4750 
Q 2388 4750 2728 4690 
Q 3069 4631 3425 4513 
z
" transform="scale(0.015625)"/>
     </defs>
     <use xlink:href="#DejaVuSans-54"/>
     <use xlink:href="#DejaVuSans-2d" x="51.958984"/>
     <use xlink:href="#DejaVuSans-73" x="88.042969"/>
     <use xlink:href="#DejaVuSans-20" x="140.142578"/>
     <use xlink:href="#DejaVuSans-44" x="171.929688"/>
     <use xlink:href="#DejaVuSans-69" x="248.931641"/>
     <use xlink:href="#DejaVuSans-61" x="276.714844"/>
     <use xlink:href="#DejaVuSans-67" x="337.994141"/>
     <use xlink:href="#DejaVuSans-72" x="401.470703"/>
     <use xlink:href="#DejaVuSans-61" x="442.583984"/>
     <use xlink:href="#DejaVuSans-6d" x="503.863281"/>
     <use xlink:href="#DejaVuSans-20" x="601.275391"/>
     <use xlink:href="#DejaVuSans-66" x="633.0625"/>
     <use xlink:href="#DejaVuSans-6f" x="668.267578"/>
     <use xlink:href="#DejaVuSans-72" x="729.449219"/>
     <use xlink:href="#DejaVuSans-20" x="770.5625"/>
     <use xlink:href="#DejaVuSans-4f" x="802.349609"/>
     <use xlink:href="#DejaVuSans-52" x="881.060547"/>
     <use xlink:href="#DejaVuSans-43" x="945.542969"/>
     <use xlink:href="#DejaVuSans-20" x="1015.367188"/>
     <use xlink:href="#DejaVuSans-53" x="1047.154297"/>
     <use xlink:href="#DejaVuSans-79" x="1110.630859"/>
     <use xlink:href="#DejaVuSans-73" x="1169.810547"/>
     <use xlink:href="#DejaVuSans-74" x="1221.910156"/>
     <use xlink:href="#DejaVuSans-65" x="1261.119141"/>
     <use xlink:href="#DejaVuSans-6d" x="1322.642578"/>
    </g>
   </g>
  </g>
 </g>
 <defs>
  <clipPath id="pa09e5f7a73">
   <rect x="91.46" y="41.76" width="1337.74" height="752.92"/>
  </clipPath>
 </defs>
</svg>
